# Blender v2.91.0 OBJ File: 'Box - wireframe- primitive.blend'
# www.blender.org
mtllib Box - wireframe- primitive.mtl
o Cylinder.030
v 5.000576 3.987999 7.000001
v 5.000576 3.990291 7.007054
v -5.000576 3.990290 7.007053
v -5.000576 3.987999 7.000000
v 5.000576 3.996291 7.011415
v -5.000576 3.996290 7.011414
v 5.000576 4.003707 7.011415
v -5.000576 4.003707 7.011414
v 5.000576 4.009707 7.007054
v -5.000576 4.009707 7.007053
v 5.000576 4.012000 7.000001
v -5.000576 4.011999 7.000000
v 5.000576 4.009707 6.992949
v -5.000576 4.009707 6.992948
v 5.000576 4.003707 6.988588
v -5.000576 4.003707 6.988587
v 5.000576 3.996291 6.988588
v -5.000576 3.996290 6.988587
v -5.000576 3.990290 6.992948
v 5.000576 3.990291 6.992949
v 5.000000 3.988000 6.983127
v 4.992947 3.990291 6.983127
v 4.992947 3.990292 -7.018757
v 5.000000 3.988000 -7.018757
v 4.988588 3.996291 6.983127
v 4.988587 3.996292 -7.018757
v 4.988588 4.003708 6.983127
v 4.988587 4.003709 -7.018757
v 4.992947 4.009708 6.983127
v 4.992947 4.009709 -7.018757
v 5.000000 4.012000 6.983127
v 5.000000 4.012001 -7.018757
v 5.007053 4.009708 6.983127
v 5.007053 4.009709 -7.018757
v 5.011413 4.003708 6.983127
v 5.011413 4.003709 -7.018757
v 5.011413 3.996291 6.983127
v 5.011413 3.996292 -7.018757
v 5.007053 3.990292 -7.018757
v 5.007053 3.990291 6.983127
v -5.000000 3.987999 6.983128
v -5.007053 3.990291 6.983128
v -5.007053 3.990292 -7.018756
v -5.000000 3.988000 -7.018756
v -5.011413 3.996291 6.983128
v -5.011413 3.996292 -7.018756
v -5.011413 4.003708 6.983128
v -5.011413 4.003709 -7.018756
v -5.007053 4.009708 6.983128
v -5.007053 4.009708 -7.018756
v -5.000000 4.012000 6.983128
v -5.000000 4.012001 -7.018756
v -4.992947 4.009708 6.983128
v -4.992947 4.009708 -7.018756
v -4.988587 4.003708 6.983128
v -4.988588 4.003709 -7.018756
v -4.988587 3.996291 6.983128
v -4.988588 3.996292 -7.018756
v -4.992947 3.990292 -7.018756
v -4.992947 3.990291 6.983128
v 5.000576 3.988001 -7.000000
v 5.000576 3.990293 -6.992947
v -5.000576 3.990292 -6.992948
v -5.000576 3.988001 -7.000000
v 5.000576 3.996293 -6.988586
v -5.000576 3.996292 -6.988587
v 5.000576 4.003709 -6.988586
v -5.000576 4.003709 -6.988587
v 5.000576 4.009709 -6.992947
v -5.000576 4.009709 -6.992948
v 5.000576 4.012002 -7.000000
v -5.000576 4.012001 -7.000000
v 5.000576 4.009709 -7.007052
v -5.000576 4.009709 -7.007053
v 5.000576 4.003709 -7.011413
v -5.000576 4.003709 -7.011414
v 5.000576 3.996293 -7.011413
v -5.000576 3.996292 -7.011414
v -5.000576 3.990292 -7.007053
v 5.000576 3.990293 -7.007052
v 5.000576 7.988002 -6.999999
v 5.000576 7.990294 -6.992946
v -5.000576 7.990293 -6.992947
v -5.000576 7.988001 -7.000000
v 5.000576 7.996293 -6.988585
v -5.000576 7.996292 -6.988586
v 5.000576 8.003710 -6.988585
v -5.000576 8.003709 -6.988586
v 5.000576 8.009709 -6.992946
v -5.000576 8.009709 -6.992947
v 5.000576 8.012002 -6.999999
v -5.000576 8.012000 -7.000000
v 5.000576 8.009709 -7.007051
v -5.000576 8.009709 -7.007052
v 5.000576 8.003710 -7.011412
v -5.000576 8.003709 -7.011413
v 5.000576 7.996293 -7.011412
v -5.000576 7.996292 -7.011413
v -5.000576 7.990293 -7.007052
v 5.000576 7.990294 -7.007051
v -4.997916 8.000461 3.506793
v -4.991367 8.000461 3.510274
v -4.991369 -0.000462 3.510273
v -4.997917 -0.000462 3.506791
v -4.988116 8.000461 3.516940
v -4.988118 -0.000462 3.516939
v -4.989404 8.000461 3.524244
v -4.989406 -0.000462 3.524243
v -4.994739 8.000461 3.529396
v -4.994740 -0.000462 3.529394
v -5.002083 8.000461 3.530428
v -5.002085 -0.000462 3.530427
v -5.008632 8.000461 3.526946
v -5.008633 -0.000462 3.526945
v -5.011882 8.000461 3.520280
v -5.011884 -0.000462 3.520279
v -5.010595 8.000461 3.512977
v -5.010596 -0.000462 3.512975
v -5.005261 -0.000462 3.507823
v -5.005260 8.000461 3.507825
v 5.002085 8.000461 3.506793
v 5.008633 8.000461 3.510275
v 5.008632 -0.000462 3.510273
v 5.002084 -0.000462 3.506791
v 5.011884 8.000461 3.516940
v 5.011882 -0.000462 3.516939
v 5.010596 8.000461 3.524244
v 5.010595 -0.000462 3.524243
v 5.005261 8.000461 3.529396
v 5.005260 -0.000462 3.529395
v 4.997917 8.000461 3.530428
v 4.997916 -0.000462 3.530427
v 4.991369 8.000461 3.526946
v 4.991367 -0.000462 3.526945
v 4.988118 8.000461 3.520281
v 4.988116 -0.000462 3.520279
v 4.989406 8.000461 3.512977
v 4.989404 -0.000462 3.512976
v 4.994739 -0.000462 3.507824
v 4.994740 8.000461 3.507825
v 5.002085 8.000463 -3.591159
v 5.008633 8.000463 -3.587677
v 5.008632 -0.000460 -3.587678
v 5.002083 -0.000460 -3.591160
v 5.011884 8.000463 -3.581011
v 5.011882 -0.000460 -3.581012
v 5.010596 8.000463 -3.573708
v 5.010595 -0.000460 -3.573709
v 5.005261 8.000463 -3.568556
v 5.005260 -0.000460 -3.568557
v 4.997917 8.000463 -3.567524
v 4.997916 -0.000460 -3.567525
v 4.991369 8.000463 -3.571006
v 4.991367 -0.000460 -3.571007
v 4.988118 8.000463 -3.577671
v 4.988116 -0.000460 -3.577672
v 4.989406 8.000463 -3.584975
v 4.989404 -0.000460 -3.584976
v 4.994739 -0.000460 -3.590128
v 4.994740 8.000463 -3.590127
v -4.997916 8.000463 -3.591159
v -4.991367 8.000463 -3.587677
v -4.991369 -0.000460 -3.587678
v -4.997917 -0.000460 -3.591160
v -4.988116 8.000463 -3.581011
v -4.988118 -0.000460 -3.581012
v -4.989404 8.000463 -3.573708
v -4.989406 -0.000460 -3.573709
v -4.994739 8.000463 -3.568556
v -4.994740 -0.000460 -3.568557
v -5.002084 8.000463 -3.567524
v -5.002085 -0.000460 -3.567525
v -5.008632 8.000463 -3.571006
v -5.008633 -0.000460 -3.571007
v -5.011882 8.000463 -3.577672
v -5.011884 -0.000460 -3.577673
v -5.010595 8.000463 -3.584975
v -5.010596 -0.000460 -3.584976
v -5.005261 -0.000460 -3.590128
v -5.005260 8.000463 -3.590127
v -4.997916 8.000462 -0.011816
v -4.991368 8.000462 -0.008334
v -4.991369 -0.000461 -0.008335
v -4.997917 -0.000461 -0.011817
v -4.988116 8.000462 -0.001668
v -4.988117 -0.000461 -0.001669
v -4.989404 8.000462 0.005636
v -4.989405 -0.000461 0.005635
v -4.994740 8.000462 0.010788
v -4.994740 -0.000461 0.010787
v -5.002083 8.000462 0.011820
v -5.002084 -0.000461 0.011819
v -5.008632 8.000462 0.008338
v -5.008633 -0.000461 0.008337
v -5.011883 8.000462 0.001672
v -5.011884 -0.000461 0.001671
v -5.010595 8.000462 -0.005632
v -5.010596 -0.000461 -0.005633
v -5.005261 -0.000461 -0.010785
v -5.005260 8.000462 -0.010784
v -4.997916 8.000463 -7.011816
v -4.991368 8.000463 -7.008335
v -4.991369 -0.000460 -7.008336
v -4.997917 -0.000460 -7.011818
v -4.988117 8.000463 -7.001667
v -4.988117 -0.000460 -7.001669
v -4.989405 8.000463 -6.994365
v -4.989405 -0.000460 -6.994366
v -4.994740 8.000463 -6.989213
v -4.994740 -0.000460 -6.989214
v -5.002084 8.000463 -6.988180
v -5.002084 -0.000460 -6.988183
v -5.008632 8.000463 -6.991662
v -5.008633 -0.000460 -6.991663
v -5.011883 8.000463 -6.998329
v -5.011884 -0.000460 -6.998330
v -5.010595 8.000463 -7.005631
v -5.010596 -0.000460 -7.005633
v -5.005261 -0.000460 -7.010785
v -5.005260 8.000463 -7.010784
v 0.002084 8.000463 -7.011816
v 0.008633 8.000463 -7.008336
v 0.008631 -0.000460 -7.008337
v 0.002083 -0.000460 -7.011819
v 0.011884 8.000463 -7.001668
v 0.011883 -0.000460 -7.001670
v 0.010596 8.000463 -6.994366
v 0.010595 -0.000460 -6.994367
v 0.005261 8.000463 -6.989213
v 0.005260 -0.000460 -6.989215
v -0.002083 8.000463 -6.988181
v -0.002084 -0.000460 -6.988183
v -0.008631 8.000463 -6.991663
v -0.008633 -0.000460 -6.991664
v -0.011883 8.000463 -6.998330
v -0.011884 -0.000460 -6.998331
v -0.010595 8.000463 -7.005632
v -0.010596 -0.000460 -7.005634
v -0.005261 -0.000460 -7.010786
v -0.005260 8.000463 -7.010785
v 5.002084 8.000463 -7.011816
v 5.008633 8.000463 -7.008336
v 5.008632 -0.000460 -7.008337
v 5.002083 -0.000460 -7.011818
v 5.011884 8.000463 -7.001668
v 5.011883 -0.000460 -7.001670
v 5.010596 8.000463 -6.994365
v 5.010595 -0.000460 -6.994366
v 5.005261 8.000463 -6.989213
v 5.005260 -0.000460 -6.989214
v 4.997917 8.000463 -6.988181
v 4.997916 -0.000460 -6.988183
v 4.991368 8.000463 -6.991662
v 4.991368 -0.000460 -6.991663
v 4.988117 8.000463 -6.998329
v 4.988116 -0.000460 -6.998330
v 4.989405 8.000463 -7.005632
v 4.989404 -0.000460 -7.005634
v 4.994739 -0.000460 -7.010786
v 4.994740 8.000463 -7.010785
v 5.002084 8.000462 -0.011816
v 5.008633 8.000462 -0.008334
v 5.008632 -0.000461 -0.008335
v 5.002083 -0.000461 -0.011817
v 5.011884 8.000462 -0.001669
v 5.011883 -0.000461 -0.001670
v 5.010596 8.000462 0.005635
v 5.010595 -0.000461 0.005634
v 5.005261 8.000462 0.010787
v 5.005260 -0.000461 0.010786
v 4.997917 8.000462 0.011819
v 4.997916 -0.000461 0.011818
v 4.991369 8.000462 0.008337
v 4.991368 -0.000461 0.008336
v 4.988117 8.000462 0.001671
v 4.988116 -0.000461 0.001670
v 4.989405 8.000462 -0.005632
v 4.989404 -0.000461 -0.005633
v 4.994740 -0.000461 -0.010785
v 4.994740 8.000462 -0.010784
v 5.002084 8.000461 6.988184
v 5.008633 8.000461 6.991666
v 5.008632 -0.000462 6.991665
v 5.002084 -0.000462 6.988183
v 5.011884 8.000461 6.998333
v 5.011883 -0.000462 6.998331
v 5.010596 8.000461 7.005636
v 5.010595 -0.000462 7.005635
v 5.005261 8.000461 7.010788
v 5.005260 -0.000462 7.010787
v 4.997917 8.000461 7.011820
v 4.997916 -0.000462 7.011819
v 4.991369 8.000461 7.008338
v 4.991368 -0.000462 7.008337
v 4.988117 8.000461 7.001672
v 4.988117 -0.000462 7.001671
v 4.989405 8.000461 6.994369
v 4.989405 -0.000462 6.994367
v 4.994740 -0.000462 6.989215
v 4.994740 8.000461 6.989216
v 0.002084 8.000461 6.988184
v 0.008633 8.000461 6.991666
v 0.008631 -0.000462 6.991665
v 0.002083 -0.000462 6.988183
v 0.011884 8.000461 6.998333
v 0.011883 -0.000462 6.998332
v 0.010596 8.000461 7.005636
v 0.010595 -0.000462 7.005635
v 0.005261 8.000461 7.010788
v 0.005260 -0.000462 7.010787
v -0.002083 8.000461 7.011820
v -0.002084 -0.000462 7.011819
v -0.008631 8.000461 7.008338
v -0.008633 -0.000462 7.008337
v -0.011883 8.000461 7.001672
v -0.011884 -0.000462 7.001671
v -0.010595 8.000461 6.994370
v -0.010596 -0.000462 6.994368
v -0.005261 -0.000462 6.989216
v -0.005260 8.000461 6.989217
v -4.997916 8.000461 6.988185
v -4.991368 8.000461 6.991667
v -4.991368 -0.000462 6.991666
v -4.997917 -0.000462 6.988184
v -4.988116 8.000461 6.998333
v -4.988117 -0.000462 6.998332
v -4.989404 8.000461 7.005636
v -4.989405 -0.000462 7.005635
v -4.994739 8.000461 7.010788
v -4.994740 -0.000462 7.010787
v -5.002083 8.000461 7.011820
v -5.002084 -0.000462 7.011819
v -5.008632 8.000461 7.008338
v -5.008633 -0.000462 7.008337
v -5.011883 8.000461 7.001672
v -5.011884 -0.000462 7.001671
v -5.010595 8.000461 6.994370
v -5.010596 -0.000462 6.994368
v -5.005261 -0.000462 6.989216
v -5.005260 8.000461 6.989217
v 5.000576 7.988000 3.504190
v 5.000576 7.990293 3.511244
v -5.000576 7.990292 3.511243
v -5.000576 7.987999 3.504190
v 5.000576 7.996292 3.515603
v -5.000576 7.996291 3.515602
v 5.000576 8.003708 3.515603
v -5.000576 8.003707 3.515602
v 5.000576 8.009707 3.511244
v -5.000576 8.009707 3.511243
v 5.000576 8.012000 3.504190
v -5.000576 8.011998 3.504190
v 5.000576 8.009707 3.497137
v -5.000576 8.009707 3.497136
v 5.000576 8.003708 3.492778
v -5.000576 8.003707 3.492777
v 5.000576 7.996292 3.492778
v -5.000576 7.996291 3.492777
v -5.000576 7.990292 3.497136
v 5.000576 7.990293 3.497137
v 5.000576 7.988001 -3.563884
v 5.000576 7.990294 -3.556831
v -5.000576 7.990293 -3.556832
v -5.000576 7.988000 -3.563885
v 5.000576 7.996293 -3.552472
v -5.000576 7.996292 -3.552473
v 5.000576 8.003710 -3.552472
v -5.000576 8.003709 -3.552473
v 5.000576 8.009709 -3.556831
v -5.000576 8.009709 -3.556832
v 5.000576 8.012002 -3.563884
v -5.000576 8.012000 -3.563885
v 5.000576 8.009709 -3.570938
v -5.000576 8.009709 -3.570939
v 5.000576 8.003710 -3.575297
v -5.000576 8.003709 -3.575298
v 5.000576 7.996293 -3.575297
v -5.000576 7.996292 -3.575298
v -5.000576 7.990293 -3.570939
v 5.000576 7.990294 -3.570938
v 5.000576 -0.012001 3.504189
v 5.000576 -0.009709 3.511243
v -5.000576 -0.009710 3.511242
v -5.000576 -0.012002 3.504189
v 5.000576 -0.003709 3.515602
v -5.000576 -0.003710 3.515601
v 5.000576 0.003708 3.515602
v -5.000576 0.003707 3.515601
v 5.000576 0.009708 3.511243
v -5.000576 0.009707 3.511242
v 5.000576 0.011999 3.504189
v -5.000576 0.011998 3.504189
v 5.000576 0.009708 3.497136
v -5.000576 0.009707 3.497135
v 5.000576 0.003708 3.492777
v -5.000576 0.003707 3.492776
v 5.000576 -0.003709 3.492777
v -5.000576 -0.003710 3.492776
v -5.000576 -0.009710 3.497135
v 5.000576 -0.009709 3.497136
v 5.000576 -0.011999 -3.563885
v 5.000576 -0.009707 -3.556832
v -5.000576 -0.009708 -3.556833
v -5.000576 -0.012000 -3.563886
v 5.000576 -0.003707 -3.552473
v -5.000576 -0.003708 -3.552474
v 5.000576 0.003710 -3.552473
v -5.000576 0.003709 -3.552474
v 5.000576 0.009710 -3.556832
v -5.000576 0.009709 -3.556833
v 5.000576 0.012001 -3.563885
v -5.000576 0.012000 -3.563886
v 5.000576 0.009710 -3.570939
v -5.000576 0.009709 -3.570940
v 5.000576 0.003710 -3.575298
v -5.000576 0.003709 -3.575299
v 5.000576 -0.003707 -3.575298
v -5.000576 -0.003708 -3.575299
v -5.000576 -0.009708 -3.570940
v 5.000576 -0.009707 -3.570939
v 5.000576 -0.012000 0.000001
v 5.000576 -0.009708 0.007054
v -5.000576 -0.009709 0.007054
v -5.000576 -0.012001 -0.000000
v 5.000576 -0.003708 0.011414
v -5.000576 -0.003709 0.011413
v 5.000576 0.003709 0.011414
v -5.000576 0.003708 0.011413
v 5.000576 0.009709 0.007054
v -5.000576 0.009708 0.007054
v 5.000576 0.012000 0.000001
v -5.000576 0.011999 0.000000
v 5.000576 0.009709 -0.007052
v -5.000576 0.009708 -0.007053
v 5.000576 0.003709 -0.011411
v -5.000576 0.003708 -0.011412
v 5.000576 -0.003708 -0.011411
v -5.000576 -0.003709 -0.011412
v -5.000576 -0.009709 -0.007053
v 5.000576 -0.009708 -0.007052
v 5.000576 7.988001 0.000002
v 5.000576 7.990293 0.007055
v -5.000576 7.990292 0.007055
v -5.000576 7.988000 0.000001
v 5.000576 7.996292 0.011415
v -5.000576 7.996291 0.011414
v 5.000576 8.003709 0.011415
v -5.000576 8.003708 0.011414
v 5.000576 8.009708 0.007055
v -5.000576 8.009708 0.007055
v 5.000576 8.012001 0.000002
v -5.000576 8.011999 0.000001
v 5.000576 8.009708 -0.007051
v -5.000576 8.009708 -0.007052
v 5.000576 8.003709 -0.011410
v -5.000576 8.003708 -0.011411
v 5.000576 7.996292 -0.011410
v -5.000576 7.996291 -0.011411
v -5.000576 7.990292 -0.007052
v 5.000576 7.990293 -0.007051
v 5.000576 7.988000 7.000003
v 5.000576 7.990292 7.007056
v -5.000576 7.990291 7.007055
v -5.000576 7.987999 7.000002
v 5.000576 7.996291 7.011416
v -5.000576 7.996290 7.011415
v 5.000576 8.003708 7.011416
v -5.000576 8.003707 7.011415
v 5.000576 8.009707 7.007056
v -5.000576 8.009707 7.007055
v 5.000576 8.012000 7.000003
v -5.000576 8.011998 7.000002
v 5.000576 8.009707 6.992950
v -5.000576 8.009707 6.992949
v 5.000576 8.003708 6.988590
v -5.000576 8.003707 6.988589
v 5.000576 7.996291 6.988590
v -5.000576 7.996290 6.988589
v -5.000576 7.990291 6.992949
v 5.000576 7.990292 6.992950
v 5.000576 7.988002 -6.999999
v 5.000576 7.990294 -6.992946
v -5.000576 7.990293 -6.992947
v -5.000576 7.988001 -7.000000
v 5.000576 7.996293 -6.988585
v -5.000576 7.996292 -6.988586
v 5.000576 8.003710 -6.988585
v -5.000576 8.003709 -6.988586
v 5.000576 8.009709 -6.992946
v -5.000576 8.009709 -6.992947
v 5.000576 8.012002 -6.999999
v -5.000576 8.012000 -7.000000
v 5.000576 8.009709 -7.007051
v -5.000576 8.009709 -7.007052
v 5.000576 8.003710 -7.011412
v -5.000576 8.003709 -7.011413
v 5.000576 7.996293 -7.011412
v -5.000576 7.996292 -7.011413
v -5.000576 7.990293 -7.007052
v 5.000576 7.990294 -7.007051
v 5.000576 -0.011999 -7.000000
v 5.000576 -0.009707 -6.992947
v -5.000576 -0.009708 -6.992948
v -5.000576 -0.012000 -7.000001
v 5.000576 -0.003707 -6.988587
v -5.000576 -0.003708 -6.988588
v 5.000576 0.003710 -6.988587
v -5.000576 0.003709 -6.988588
v 5.000576 0.009710 -6.992947
v -5.000576 0.009709 -6.992948
v 5.000576 0.012001 -7.000000
v -5.000576 0.012000 -7.000001
v 5.000576 0.009710 -7.007053
v -5.000576 0.009709 -7.007054
v 5.000576 0.003710 -7.011413
v -5.000576 0.003709 -7.011414
v 5.000576 -0.003707 -7.011413
v -5.000576 -0.003708 -7.011414
v -5.000576 -0.009708 -7.007054
v 5.000576 -0.009707 -7.007053
v 5.000576 -0.012001 7.000002
v 5.000576 -0.009709 7.007055
v -5.000576 -0.009710 7.007054
v -5.000576 -0.012002 7.000001
v 5.000576 -0.003709 7.011415
v -5.000576 -0.003710 7.011414
v 5.000576 0.003708 7.011415
v -5.000576 0.003707 7.011414
v 5.000576 0.009708 7.007055
v -5.000576 0.009707 7.007054
v 5.000576 0.011999 7.000002
v -5.000576 0.011998 7.000001
v 5.000576 0.009708 6.992949
v -5.000576 0.009707 6.992948
v 5.000576 0.003708 6.988589
v -5.000576 0.003707 6.988588
v 5.000576 -0.003709 6.988589
v -5.000576 -0.003710 6.988588
v -5.000576 -0.009710 6.992948
v 5.000576 -0.009709 6.992949
v -5.000000 7.988000 6.976578
v -5.007054 7.990292 6.976578
v -5.007054 7.990293 -6.976573
v -5.000000 7.988001 -6.976573
v -5.011413 7.996292 6.976578
v -5.011413 7.996293 -6.976573
v -5.011413 8.003708 6.976578
v -5.011413 8.003709 -6.976573
v -5.007054 8.009707 6.976578
v -5.007054 8.009709 -6.976573
v -5.000000 8.012000 6.976578
v -5.000000 8.012001 -6.976573
v -4.992947 8.009707 6.976578
v -4.992947 8.009709 -6.976573
v -4.988587 8.003708 6.976578
v -4.988588 8.003709 -6.976573
v -4.988587 7.996292 6.976578
v -4.988588 7.996293 -6.976573
v -4.992947 7.990293 -6.976573
v -4.992947 7.990292 6.976578
v 5.000000 7.987999 6.852480
v 4.992947 7.990292 6.852480
v 4.992947 7.990293 -6.852478
v 5.000000 7.988000 -6.852478
v 4.988587 7.996291 6.852480
v 4.988587 7.996292 -6.852478
v 4.988587 8.003707 6.852480
v 4.988587 8.003709 -6.852478
v 4.992947 8.009707 6.852480
v 4.992947 8.009708 -6.852478
v 5.000000 8.011999 6.852480
v 5.000000 8.012000 -6.852478
v 5.007054 8.009707 6.852480
v 5.007053 8.009708 -6.852478
v 5.011413 8.003707 6.852480
v 5.011413 8.003709 -6.852478
v 5.011413 7.996291 6.852480
v 5.011413 7.996292 -6.852478
v 5.007053 7.990293 -6.852478
v 5.007054 7.990292 6.852480
v 0.000000 7.988000 7.043898
v -0.007053 7.990292 7.043898
v -0.007053 7.990293 -7.043894
v 0.000000 7.988001 -7.043894
v -0.011413 7.996292 7.043898
v -0.011413 7.996293 -7.043894
v -0.011413 8.003708 7.043898
v -0.011413 8.003709 -7.043894
v -0.007053 8.009707 7.043898
v -0.007053 8.009708 -7.043894
v 0.000000 8.012000 7.043898
v 0.000000 8.012000 -7.043894
v 0.007053 8.009707 7.043898
v 0.007053 8.009708 -7.043894
v 0.011413 8.003708 7.043898
v 0.011413 8.003709 -7.043894
v 0.011413 7.996292 7.043898
v 0.011413 7.996293 -7.043894
v 0.007053 7.990293 -7.043894
v 0.007053 7.990292 7.043898
v 0.000000 -0.012001 7.043897
v -0.007053 -0.009708 7.043897
v -0.007053 -0.009708 -7.043896
v 0.000000 -0.012000 -7.043896
v -0.011413 -0.003709 7.043897
v -0.011413 -0.003708 -7.043896
v -0.011413 0.003707 7.043897
v -0.011413 0.003708 -7.043896
v -0.007053 0.009707 7.043897
v -0.007053 0.009708 -7.043896
v 0.000000 0.011999 7.043897
v 0.000000 0.012000 -7.043896
v 0.007053 0.009707 7.043897
v 0.007053 0.009708 -7.043896
v 0.011413 0.003707 7.043897
v 0.011413 0.003708 -7.043896
v 0.011413 -0.003709 7.043897
v 0.011413 -0.003708 -7.043896
v 0.007053 -0.009708 -7.043896
v 0.007053 -0.009708 7.043897
v -5.000000 -0.012001 6.989772
v -5.007053 -0.009709 6.989772
v -5.007054 -0.009708 -6.989770
v -5.000000 -0.012000 -6.989770
v -5.011413 -0.003709 6.989772
v -5.011413 -0.003708 -6.989770
v -5.011413 0.003707 6.989772
v -5.011413 0.003708 -6.989770
v -5.007053 0.009707 6.989772
v -5.007054 0.009708 -6.989770
v -5.000000 0.011999 6.989772
v -5.000000 0.012000 -6.989770
v -4.992947 0.009707 6.989772
v -4.992947 0.009708 -6.989770
v -4.988587 0.003707 6.989772
v -4.988587 0.003708 -6.989770
v -4.988587 -0.003709 6.989772
v -4.988587 -0.003708 -6.989770
v -4.992947 -0.009708 -6.989770
v -4.992947 -0.009709 6.989772
v 5.000000 -0.012001 6.852479
v 4.992947 -0.009708 6.852479
v 4.992947 -0.009708 -6.852479
v 5.000000 -0.012000 -6.852479
v 4.988588 -0.003708 6.852479
v 4.988587 -0.003708 -6.852479
v 4.988588 0.003708 6.852479
v 4.988587 0.003708 -6.852479
v 4.992947 0.009708 6.852479
v 4.992947 0.009708 -6.852479
v 5.000000 0.011999 6.852479
v 5.000000 0.012001 -6.852479
v 5.007054 0.009708 6.852479
v 5.007054 0.009708 -6.852479
v 5.011413 0.003708 6.852479
v 5.011413 0.003708 -6.852479
v 5.011413 -0.003708 6.852479
v 5.011413 -0.003708 -6.852479
v 5.007054 -0.009708 -6.852479
v 5.007054 -0.009708 6.852479
v 5.041294 5.983980 6.999693
v 5.034241 5.986271 6.999693
v 5.034241 5.986272 -7.002191
v 5.041294 5.983980 -7.002191
v 5.029881 5.992271 6.999693
v 5.029881 5.992272 -7.002191
v 5.029881 5.999688 6.999693
v 5.029881 5.999689 -7.002191
v 5.034241 6.005688 6.999693
v 5.034241 6.005689 -7.002191
v 5.041294 6.007980 6.999693
v 5.041294 6.007981 -7.002191
v 5.048347 6.005688 6.999693
v 5.048347 6.005689 -7.002191
v 5.052707 5.999688 6.999693
v 5.052707 5.999689 -7.002191
v 5.052707 5.992271 6.999693
v 5.052707 5.992272 -7.002191
v 5.048347 5.986272 -7.002191
v 5.048347 5.986271 6.999693
v 5.041294 1.981424 6.999693
v 5.034241 1.983714 6.999693
v 5.034241 1.983716 -7.002191
v 5.041294 1.981424 -7.002191
v 5.029881 1.989715 6.999693
v 5.029881 1.989716 -7.002191
v 5.029881 1.997132 6.999693
v 5.029881 1.997133 -7.002191
v 5.034241 2.003131 6.999693
v 5.034241 2.003133 -7.002191
v 5.041294 2.005424 6.999693
v 5.041294 2.005425 -7.002191
v 5.048347 2.003131 6.999693
v 5.048347 2.003133 -7.002191
v 5.052707 1.997132 6.999693
v 5.052707 1.997133 -7.002191
v 5.052707 1.989715 6.999693
v 5.052707 1.989716 -7.002191
v 5.048347 1.983716 -7.002191
v 5.048347 1.983714 6.999693
v 5.041294 0.972352 6.999692
v 5.034241 0.974643 6.999692
v 5.034241 0.974644 -7.002191
v 5.041294 0.972352 -7.002191
v 5.029881 0.980643 6.999692
v 5.029881 0.980644 -7.002191
v 5.029881 0.988060 6.999692
v 5.029881 0.988061 -7.002191
v 5.034241 0.994059 6.999692
v 5.034241 0.994061 -7.002191
v 5.041294 0.996352 6.999692
v 5.041294 0.996353 -7.002191
v 5.048347 0.994059 6.999692
v 5.048347 0.994061 -7.002191
v 5.052707 0.988060 6.999692
v 5.052707 0.988061 -7.002191
v 5.052707 0.980643 6.999692
v 5.052707 0.980644 -7.002191
v 5.048347 0.974644 -7.002191
v 5.048347 0.974643 6.999692
v 5.041294 2.996196 6.999692
v 5.034241 2.998487 6.999692
v 5.034241 2.998488 -7.002191
v 5.041294 2.996197 -7.002191
v 5.029881 3.004488 6.999692
v 5.029881 3.004488 -7.002191
v 5.029881 3.011904 6.999692
v 5.029881 3.011906 -7.002191
v 5.034241 3.017904 6.999692
v 5.034241 3.017905 -7.002191
v 5.041294 3.020196 6.999692
v 5.041294 3.020198 -7.002191
v 5.048347 3.017904 6.999692
v 5.048347 3.017905 -7.002191
v 5.052707 3.011904 6.999692
v 5.052707 3.011906 -7.002191
v 5.052707 3.004488 6.999692
v 5.052707 3.004488 -7.002191
v 5.048347 2.998488 -7.002191
v 5.048347 2.998487 6.999692
v 5.000000 4.999923 6.983127
v 4.992947 5.002213 6.983127
v 4.992947 5.002214 -7.018756
v 5.000000 4.999922 -7.018756
v 4.988588 5.008214 6.983127
v 4.988587 5.008214 -7.018756
v 4.988588 5.015630 6.983127
v 4.988587 5.015631 -7.018756
v 4.992947 5.021630 6.983127
v 4.992947 5.021631 -7.018756
v 5.000000 5.023922 6.983127
v 5.000000 5.023923 -7.018756
v 5.007053 5.021630 6.983127
v 5.007053 5.021631 -7.018756
v 5.011413 5.015630 6.983127
v 5.011413 5.015631 -7.018756
v 5.011413 5.008214 6.983127
v 5.011413 5.008214 -7.018756
v 5.007053 5.002214 -7.018756
v 5.007053 5.002213 6.983127
v 5.000576 7.990292 1.871676
v -5.000576 7.990291 1.871675
v -5.000576 7.996290 1.867316
v 5.000576 7.996291 1.867317
v -5.000576 8.003708 1.867316
v 5.000576 8.003709 1.867317
v -5.000576 8.009708 1.871675
v 5.000576 8.009708 1.871676
v -5.000576 8.011999 1.878729
v 5.000576 8.012001 1.878729
v -5.000576 8.009708 1.885782
v 5.000576 8.009708 1.885783
v -5.000576 8.003708 1.890141
v 5.000576 8.003709 1.890142
v -5.000576 7.996290 1.890141
v 5.000576 7.996291 1.890142
v -5.000576 7.987999 1.878729
v -5.000576 7.990291 1.885782
v 5.000576 7.990292 1.885783
v 5.000576 7.988000 1.878729
v 5.041294 6.995903 6.999693
v 5.034241 6.998193 6.999693
v 5.034241 6.998194 -7.002191
v 5.041294 6.995903 -7.002191
v 5.029881 7.004194 6.999693
v 5.029881 7.004194 -7.002191
v 5.029881 7.011611 6.999693
v 5.029881 7.011611 -7.002191
v 5.034241 7.017610 6.999693
v 5.034241 7.017611 -7.002191
v 5.041294 7.019903 6.999693
v 5.041294 7.019904 -7.002191
v 5.048347 7.017610 6.999693
v 5.048347 7.017611 -7.002191
v 5.052707 7.011611 6.999693
v 5.052707 7.011611 -7.002191
v 5.052707 7.004194 6.999693
v 5.052707 7.004194 -7.002191
v 5.048347 6.998194 -7.002191
v 5.048347 6.998193 6.999693
v -5.018773 3.988000 6.983127
v -5.025826 3.990291 6.983127
v -5.025826 3.990292 -7.018757
v -5.018773 3.988000 -7.018757
v -5.030185 3.996291 6.983127
v -5.030186 3.996292 -7.018757
v -5.030185 4.003708 6.983127
v -5.030186 4.003709 -7.018757
v -5.025826 4.009708 6.983127
v -5.025826 4.009709 -7.018757
v -5.018773 4.012000 6.983127
v -5.018773 4.012001 -7.018757
v -5.011720 4.009708 6.983127
v -5.011720 4.009709 -7.018757
v -5.007360 4.003708 6.983127
v -5.007360 4.003709 -7.018757
v -5.007360 3.996291 6.983127
v -5.007360 3.996292 -7.018757
v -5.011720 3.990292 -7.018757
v -5.011720 3.990291 6.983127
v -4.977479 5.983980 6.999693
v -4.984532 5.986271 6.999693
v -4.984532 5.986272 -7.002191
v -4.977479 5.983980 -7.002191
v -4.988892 5.992271 6.999693
v -4.988893 5.992272 -7.002191
v -4.988892 5.999688 6.999693
v -4.988893 5.999689 -7.002191
v -4.984532 6.005688 6.999693
v -4.984532 6.005689 -7.002191
v -4.977479 6.007980 6.999693
v -4.977479 6.007981 -7.002191
v -4.970427 6.005688 6.999693
v -4.970427 6.005689 -7.002191
v -4.966066 5.999688 6.999693
v -4.966066 5.999689 -7.002191
v -4.966066 5.992271 6.999693
v -4.966066 5.992272 -7.002191
v -4.970427 5.986272 -7.002191
v -4.970427 5.986271 6.999693
v -4.977479 1.981424 6.999693
v -4.984532 1.983714 6.999693
v -4.984532 1.983716 -7.002191
v -4.977479 1.981424 -7.002191
v -4.988892 1.989715 6.999693
v -4.988893 1.989716 -7.002191
v -4.988892 1.997132 6.999693
v -4.988893 1.997133 -7.002191
v -4.984532 2.003131 6.999693
v -4.984532 2.003133 -7.002191
v -4.977479 2.005424 6.999693
v -4.977479 2.005425 -7.002191
v -4.970427 2.003131 6.999693
v -4.970427 2.003133 -7.002191
v -4.966066 1.997132 6.999693
v -4.966066 1.997133 -7.002191
v -4.966066 1.989715 6.999693
v -4.966066 1.989716 -7.002191
v -4.970427 1.983716 -7.002191
v -4.970427 1.983714 6.999693
v -4.977479 0.972352 6.999692
v -4.984532 0.974643 6.999692
v -4.984532 0.974644 -7.002191
v -4.977479 0.972352 -7.002191
v -4.988892 0.980643 6.999692
v -4.988893 0.980644 -7.002191
v -4.988892 0.988060 6.999692
v -4.988893 0.988061 -7.002191
v -4.984532 0.994059 6.999692
v -4.984532 0.994061 -7.002191
v -4.977479 0.996352 6.999692
v -4.977479 0.996353 -7.002191
v -4.970427 0.994059 6.999692
v -4.970427 0.994061 -7.002191
v -4.966066 0.988060 6.999692
v -4.966066 0.988061 -7.002191
v -4.966066 0.980643 6.999692
v -4.966066 0.980644 -7.002191
v -4.970427 0.974644 -7.002191
v -4.970427 0.974643 6.999692
v -4.977479 2.996196 6.999692
v -4.984532 2.998487 6.999692
v -4.984532 2.998488 -7.002191
v -4.977479 2.996197 -7.002191
v -4.988892 3.004488 6.999692
v -4.988893 3.004488 -7.002191
v -4.988892 3.011904 6.999692
v -4.988893 3.011906 -7.002191
v -4.984532 3.017904 6.999692
v -4.984532 3.017905 -7.002191
v -4.977479 3.020196 6.999692
v -4.977479 3.020198 -7.002191
v -4.970427 3.017904 6.999692
v -4.970427 3.017905 -7.002191
v -4.966066 3.011904 6.999692
v -4.966066 3.011906 -7.002191
v -4.966066 3.004488 6.999692
v -4.966066 3.004488 -7.002191
v -4.970427 2.998488 -7.002191
v -4.970427 2.998487 6.999692
v -5.018773 4.999923 6.983127
v -5.025826 5.002213 6.983127
v -5.025826 5.002214 -7.018756
v -5.018773 4.999922 -7.018756
v -5.030185 5.008214 6.983127
v -5.030186 5.008214 -7.018756
v -5.030185 5.015630 6.983127
v -5.030186 5.015631 -7.018756
v -5.025826 5.021630 6.983127
v -5.025826 5.021631 -7.018756
v -5.018773 5.023922 6.983127
v -5.018773 5.023923 -7.018756
v -5.011720 5.021630 6.983127
v -5.011720 5.021631 -7.018756
v -5.007360 5.015630 6.983127
v -5.007360 5.015631 -7.018756
v -5.007360 5.008214 6.983127
v -5.007360 5.008214 -7.018756
v -5.011720 5.002214 -7.018756
v -5.011720 5.002213 6.983127
v -4.977479 6.995903 6.999693
v -4.984532 6.998193 6.999693
v -4.984532 6.998194 -7.002191
v -4.977479 6.995903 -7.002191
v -4.988892 7.004194 6.999693
v -4.988893 7.004194 -7.002191
v -4.988892 7.011611 6.999693
v -4.988893 7.011611 -7.002191
v -4.984532 7.017610 6.999693
v -4.984532 7.017611 -7.002191
v -4.977479 7.019903 6.999693
v -4.977479 7.019904 -7.002191
v -4.970427 7.017610 6.999693
v -4.970427 7.017611 -7.002191
v -4.966066 7.011611 6.999693
v -4.966066 7.011611 -7.002191
v -4.966066 7.004194 6.999693
v -4.966066 7.004194 -7.002191
v -4.970427 6.998194 -7.002191
v -4.970427 6.998193 6.999693
v 5.000576 7.988001 -5.189344
v 5.000576 7.990294 -5.182292
v -5.000576 7.990293 -5.182292
v -5.000576 7.988000 -5.189345
v 5.000576 7.996293 -5.177933
v -5.000576 7.996292 -5.177934
v 5.000576 8.003710 -5.177933
v -5.000576 8.003709 -5.177934
v 5.000576 8.009709 -5.182292
v -5.000576 8.009709 -5.182292
v 5.000576 8.012002 -5.189344
v -5.000576 8.012000 -5.189345
v 5.000576 8.009709 -5.196399
v -5.000576 8.009709 -5.196400
v 5.000576 8.003710 -5.200758
v -5.000576 8.003709 -5.200758
v 5.000576 7.996293 -5.200758
v -5.000576 7.996292 -5.200758
v -5.000576 7.990293 -5.196400
v 5.000576 7.990294 -5.196399
v 5.000576 7.988001 -1.625459
v 5.000576 7.990293 -1.618406
v -5.000576 7.990292 -1.618406
v -5.000576 7.988000 -1.625460
v 5.000576 7.996292 -1.614046
v -5.000576 7.996291 -1.614047
v 5.000576 8.003709 -1.614046
v -5.000576 8.003708 -1.614047
v 5.000576 8.009708 -1.618406
v -5.000576 8.009708 -1.618406
v 5.000576 8.012001 -1.625459
v -5.000576 8.011999 -1.625460
v 5.000576 8.009708 -1.632512
v -5.000576 8.009708 -1.632513
v 5.000576 8.003709 -1.636871
v -5.000576 8.003708 -1.636872
v 5.000576 7.996292 -1.636871
v -5.000576 7.996291 -1.636872
v -5.000576 7.990292 -1.632513
v 5.000576 7.990293 -1.632512
v 5.000576 7.987999 5.374542
v 5.000576 7.990292 5.381595
v -5.000576 7.990291 5.381594
v -5.000576 7.987998 5.374541
v 5.000576 7.996291 5.385955
v -5.000576 7.996290 5.385954
v 5.000576 8.003708 5.385955
v -5.000576 8.003707 5.385954
v 5.000576 8.009707 5.381595
v -5.000576 8.009707 5.381594
v 5.000576 8.012000 5.374542
v -5.000576 8.011998 5.374541
v 5.000576 8.009707 5.367489
v -5.000576 8.009707 5.367488
v 5.000576 8.003708 5.363129
v -5.000576 8.003707 5.363128
v 5.000576 7.996291 5.363129
v -5.000576 7.996290 5.363128
v -5.000576 7.990291 5.367488
v 5.000576 7.990292 5.367489
v 5.002085 8.000462 1.897089
v 5.008633 8.000462 1.900571
v 5.008632 -0.000462 1.900568
v 5.002084 -0.000462 1.897086
v 5.011884 8.000462 1.907236
v 5.011882 -0.000462 1.907234
v 5.010596 8.000462 1.914540
v 5.010595 -0.000462 1.914538
v 5.005261 8.000462 1.919692
v 5.005260 -0.000462 1.919690
v 4.997917 8.000462 1.920724
v 4.997916 -0.000462 1.920722
v 4.991369 8.000462 1.917242
v 4.991367 -0.000462 1.917240
v 4.988118 8.000462 1.910576
v 4.988116 -0.000462 1.910574
v 4.989406 8.000462 1.903273
v 4.989404 -0.000462 1.903271
v 4.994739 -0.000462 1.898119
v 4.994740 8.000462 1.898121
v 5.002085 8.000463 -5.200863
v 5.008633 8.000463 -5.197381
v 5.008632 -0.000460 -5.197382
v 5.002083 -0.000460 -5.200865
v 5.011884 8.000463 -5.190715
v 5.011882 -0.000460 -5.190717
v 5.010596 8.000463 -5.183413
v 5.010595 -0.000460 -5.183414
v 5.005261 8.000463 -5.178260
v 5.005260 -0.000460 -5.178262
v 4.997917 8.000463 -5.177228
v 4.997916 -0.000460 -5.177229
v 4.991369 8.000463 -5.180710
v 4.991367 -0.000460 -5.180712
v 4.988118 8.000463 -5.187375
v 4.988116 -0.000460 -5.187376
v 4.989406 8.000463 -5.194679
v 4.989404 -0.000460 -5.194681
v 4.994739 -0.000460 -5.199832
v 4.994740 8.000463 -5.199831
v 5.002084 8.000462 -1.621520
v 5.008633 8.000462 -1.618038
v 5.008632 -0.000461 -1.618040
v 5.002083 -0.000461 -1.621522
v 5.011884 8.000462 -1.611373
v 5.011883 -0.000461 -1.611375
v 5.010596 8.000462 -1.604069
v 5.010595 -0.000461 -1.604071
v 5.005261 8.000462 -1.598917
v 5.005260 -0.000461 -1.598919
v 4.997917 8.000462 -1.597885
v 4.997916 -0.000461 -1.597887
v 4.991369 8.000462 -1.601367
v 4.991368 -0.000461 -1.601369
v 4.988117 8.000462 -1.608033
v 4.988116 -0.000461 -1.608035
v 4.989405 8.000462 -1.615336
v 4.989404 -0.000461 -1.615338
v 4.994740 -0.000461 -1.620490
v 4.994740 8.000462 -1.620488
v 5.002085 8.000462 5.346142
v 5.008633 8.000462 5.349624
v 5.008632 -0.000462 5.349622
v 5.002084 -0.000462 5.346140
v 5.011884 8.000462 5.356289
v 5.011882 -0.000462 5.356288
v 5.010596 8.000462 5.363594
v 5.010595 -0.000462 5.363592
v 5.005261 8.000462 5.368745
v 5.005260 -0.000462 5.368744
v 4.997917 8.000462 5.369777
v 4.997916 -0.000462 5.369776
v 4.991369 8.000462 5.366295
v 4.991367 -0.000462 5.366294
v 4.988118 8.000462 5.359630
v 4.988116 -0.000462 5.359628
v 4.989406 8.000462 5.352326
v 4.989404 -0.000462 5.352325
v 4.994739 -0.000462 5.347173
v 4.994740 8.000462 5.347174
v -1.019122 -0.009708 7.043897
v -1.019122 -0.009708 -7.043896
v -1.014762 -0.003708 -7.043896
v -1.014762 -0.003709 7.043897
v -1.014762 0.003708 -7.043896
v -1.014762 0.003707 7.043897
v -1.019122 0.009708 -7.043896
v -1.019122 0.009707 7.043897
v -1.026175 0.012000 -7.043896
v -1.026175 0.011999 7.043897
v -1.033228 0.009708 -7.043896
v -1.033228 0.009707 7.043897
v -1.037588 0.003708 -7.043896
v -1.037588 0.003707 7.043897
v -1.037588 -0.003708 -7.043896
v -1.037588 -0.003709 7.043897
v -1.026175 -0.012000 -7.043896
v -1.033228 -0.009708 -7.043896
v -1.033228 -0.009708 7.043897
v -1.026175 -0.012001 7.043897
v -1.019122 7.990292 7.043898
v -1.019122 7.990293 -7.043894
v -1.014762 7.996293 -7.043894
v -1.014762 7.996292 7.043898
v -1.014762 8.003709 -7.043894
v -1.014762 8.003708 7.043898
v -1.019122 8.009708 -7.043894
v -1.019122 8.009707 7.043898
v -1.026175 8.012000 -7.043894
v -1.026175 8.012000 7.043898
v -1.033228 8.009708 -7.043894
v -1.033228 8.009707 7.043898
v -1.037588 8.003709 -7.043894
v -1.037588 8.003708 7.043898
v -1.037588 7.996293 -7.043894
v -1.037588 7.996292 7.043898
v -1.026175 7.988001 -7.043894
v -1.033228 7.990293 -7.043894
v -1.033228 7.990292 7.043898
v -1.026175 7.988000 7.043898
v -1.999890 -0.003709 7.043897
v -1.999890 -0.003708 -7.043896
v -2.004250 -0.009708 -7.043896
v -2.004250 -0.009708 7.043897
v -1.999890 0.003708 -7.043896
v -1.999890 0.003707 7.043897
v -2.004250 0.009708 -7.043896
v -2.004250 0.009707 7.043897
v -2.011303 0.012000 -7.043896
v -2.011303 0.011999 7.043897
v -2.018356 0.009708 -7.043896
v -2.018356 0.009707 7.043897
v -2.022716 0.003708 -7.043896
v -2.022716 0.003707 7.043897
v -2.022716 -0.003708 -7.043896
v -2.022716 -0.003709 7.043897
v -2.011303 -0.012000 -7.043896
v -2.018356 -0.009708 -7.043896
v -2.018356 -0.009708 7.043897
v -2.011303 -0.012001 7.043897
v -2.004250 7.990292 7.043898
v -2.004250 7.990293 -7.043894
v -1.999890 7.996293 -7.043894
v -1.999890 7.996292 7.043898
v -1.999890 8.003709 -7.043894
v -1.999890 8.003708 7.043898
v -2.004250 8.009708 -7.043894
v -2.004250 8.009707 7.043898
v -2.011303 8.012000 -7.043894
v -2.011303 8.012000 7.043898
v -2.018356 8.009708 -7.043894
v -2.018356 8.009707 7.043898
v -2.022716 8.003709 -7.043894
v -2.022716 8.003708 7.043898
v -2.022716 7.996293 -7.043894
v -2.022716 7.996292 7.043898
v -2.011303 7.988001 -7.043894
v -2.018356 7.990293 -7.043894
v -2.018356 7.990292 7.043898
v -2.011303 7.988000 7.043898
v -3.005541 -0.003709 7.043897
v -3.005541 -0.003708 -7.043896
v -3.009901 -0.009708 -7.043896
v -3.009901 -0.009708 7.043897
v -3.005541 0.003708 -7.043896
v -3.005541 0.003707 7.043897
v -3.009901 0.009708 -7.043896
v -3.009901 0.009707 7.043897
v -3.016954 0.012000 -7.043896
v -3.016954 0.011999 7.043897
v -3.024007 0.009708 -7.043896
v -3.024007 0.009707 7.043897
v -3.028367 0.003708 -7.043896
v -3.028367 0.003707 7.043897
v -3.028367 -0.003708 -7.043896
v -3.028367 -0.003709 7.043897
v -3.016954 -0.012000 -7.043896
v -3.024007 -0.009708 -7.043896
v -3.024007 -0.009708 7.043897
v -3.016954 -0.012001 7.043897
v -3.009901 7.990292 7.043898
v -3.009901 7.990293 -7.043894
v -3.005541 7.996293 -7.043894
v -3.005541 7.996292 7.043898
v -3.005541 8.003709 -7.043894
v -3.005541 8.003708 7.043898
v -3.009901 8.009708 -7.043894
v -3.009901 8.009707 7.043898
v -3.016954 8.012000 -7.043894
v -3.016954 8.012000 7.043898
v -3.024007 8.009708 -7.043894
v -3.024007 8.009707 7.043898
v -3.028367 8.003709 -7.043894
v -3.028367 8.003708 7.043898
v -3.028367 7.996293 -7.043894
v -3.028367 7.996292 7.043898
v -3.016954 7.988001 -7.043894
v -3.024007 7.990293 -7.043894
v -3.024007 7.990292 7.043898
v -3.016954 7.988000 7.043898
v -3.970146 -0.003709 7.043897
v -3.970146 -0.003708 -7.043896
v -3.974506 -0.009708 -7.043896
v -3.974506 -0.009708 7.043897
v -3.970146 0.003708 -7.043896
v -3.970146 0.003707 7.043897
v -3.974506 0.009708 -7.043896
v -3.974506 0.009707 7.043897
v -3.981559 0.012000 -7.043896
v -3.981559 0.011999 7.043897
v -3.988612 0.009708 -7.043896
v -3.988612 0.009707 7.043897
v -3.992972 0.003708 -7.043896
v -3.992972 0.003707 7.043897
v -3.992972 -0.003708 -7.043896
v -3.992972 -0.003709 7.043897
v -3.981559 -0.012000 -7.043896
v -3.988612 -0.009708 -7.043896
v -3.988612 -0.009708 7.043897
v -3.981559 -0.012001 7.043897
v -3.974506 7.990292 7.043898
v -3.974506 7.990293 -7.043894
v -3.970146 7.996293 -7.043894
v -3.970146 7.996292 7.043898
v -3.970146 8.003709 -7.043894
v -3.970146 8.003708 7.043898
v -3.974506 8.009708 -7.043894
v -3.974506 8.009707 7.043898
v -3.981559 8.012000 -7.043894
v -3.981559 8.012000 7.043898
v -3.988612 8.009708 -7.043894
v -3.988612 8.009707 7.043898
v -3.992972 8.003709 -7.043894
v -3.992972 8.003708 7.043898
v -3.992972 7.996293 -7.043894
v -3.992972 7.996292 7.043898
v -3.981559 7.988001 -7.043894
v -3.988612 7.990293 -7.043894
v -3.988612 7.990292 7.043898
v -3.981559 7.988000 7.043898
v 3.968088 -0.009708 7.043897
v 3.968088 -0.009708 -7.043896
v 3.972448 -0.003708 -7.043896
v 3.972448 -0.003709 7.043897
v 3.972448 0.003708 -7.043896
v 3.972448 0.003707 7.043897
v 3.968088 0.009708 -7.043896
v 3.968088 0.009707 7.043897
v 3.961035 0.012000 -7.043896
v 3.961035 0.011999 7.043897
v 3.953982 0.009708 -7.043896
v 3.953982 0.009707 7.043897
v 3.949622 0.003708 -7.043896
v 3.949622 0.003707 7.043897
v 3.949622 -0.003708 -7.043896
v 3.949622 -0.003709 7.043897
v 3.961035 -0.012000 -7.043896
v 3.953982 -0.009708 -7.043896
v 3.953982 -0.009708 7.043897
v 3.961035 -0.012001 7.043897
v 3.968088 7.990292 7.043898
v 3.968088 7.990293 -7.043894
v 3.972448 7.996293 -7.043894
v 3.972448 7.996292 7.043898
v 3.972448 8.003709 -7.043894
v 3.972448 8.003708 7.043898
v 3.968088 8.009708 -7.043894
v 3.968088 8.009707 7.043898
v 3.961035 8.012000 -7.043894
v 3.961035 8.012000 7.043898
v 3.953982 8.009708 -7.043894
v 3.953982 8.009707 7.043898
v 3.949622 8.003709 -7.043894
v 3.949622 8.003708 7.043898
v 3.949622 7.996293 -7.043894
v 3.949622 7.996292 7.043898
v 3.961035 7.988001 -7.043894
v 3.953982 7.990293 -7.043894
v 3.953982 7.990292 7.043898
v 3.961035 7.988000 7.043898
v 2.987320 -0.003709 7.043897
v 2.987320 -0.003708 -7.043896
v 2.982960 -0.009708 -7.043896
v 2.982960 -0.009708 7.043897
v 2.987320 0.003708 -7.043896
v 2.987320 0.003707 7.043897
v 2.982960 0.009708 -7.043896
v 2.982960 0.009707 7.043897
v 2.975907 0.012000 -7.043896
v 2.975907 0.011999 7.043897
v 2.968854 0.009708 -7.043896
v 2.968854 0.009707 7.043897
v 2.964494 0.003708 -7.043896
v 2.964494 0.003707 7.043897
v 2.964494 -0.003708 -7.043896
v 2.964494 -0.003709 7.043897
v 2.975907 -0.012000 -7.043896
v 2.968854 -0.009708 -7.043896
v 2.968854 -0.009708 7.043897
v 2.975907 -0.012001 7.043897
v 2.982960 7.990292 7.043898
v 2.982960 7.990293 -7.043894
v 2.987320 7.996293 -7.043894
v 2.987320 7.996292 7.043898
v 2.987320 8.003709 -7.043894
v 2.987320 8.003708 7.043898
v 2.982960 8.009708 -7.043894
v 2.982960 8.009707 7.043898
v 2.975907 8.012000 -7.043894
v 2.975907 8.012000 7.043898
v 2.968854 8.009708 -7.043894
v 2.968854 8.009707 7.043898
v 2.964494 8.003709 -7.043894
v 2.964494 8.003708 7.043898
v 2.964494 7.996293 -7.043894
v 2.964494 7.996292 7.043898
v 2.975907 7.988001 -7.043894
v 2.968854 7.990293 -7.043894
v 2.968854 7.990292 7.043898
v 2.975907 7.988000 7.043898
v 1.981668 -0.003709 7.043897
v 1.981668 -0.003708 -7.043896
v 1.977309 -0.009708 -7.043896
v 1.977309 -0.009708 7.043897
v 1.981668 0.003708 -7.043896
v 1.981668 0.003707 7.043897
v 1.977309 0.009708 -7.043896
v 1.977309 0.009707 7.043897
v 1.970256 0.012000 -7.043896
v 1.970256 0.011999 7.043897
v 1.963202 0.009708 -7.043896
v 1.963202 0.009707 7.043897
v 1.958843 0.003708 -7.043896
v 1.958843 0.003707 7.043897
v 1.958843 -0.003708 -7.043896
v 1.958843 -0.003709 7.043897
v 1.970256 -0.012000 -7.043896
v 1.963202 -0.009708 -7.043896
v 1.963202 -0.009708 7.043897
v 1.970256 -0.012001 7.043897
v 1.977309 7.990292 7.043898
v 1.977309 7.990293 -7.043894
v 1.981668 7.996293 -7.043894
v 1.981668 7.996292 7.043898
v 1.981668 8.003709 -7.043894
v 1.981668 8.003708 7.043898
v 1.977309 8.009708 -7.043894
v 1.977309 8.009707 7.043898
v 1.970256 8.012000 -7.043894
v 1.970256 8.012000 7.043898
v 1.963202 8.009708 -7.043894
v 1.963202 8.009707 7.043898
v 1.958843 8.003709 -7.043894
v 1.958843 8.003708 7.043898
v 1.958843 7.996293 -7.043894
v 1.958843 7.996292 7.043898
v 1.970256 7.988001 -7.043894
v 1.963202 7.990293 -7.043894
v 1.963202 7.990292 7.043898
v 1.970256 7.988000 7.043898
v 1.017064 -0.003709 7.043897
v 1.017064 -0.003708 -7.043896
v 1.012704 -0.009708 -7.043896
v 1.012704 -0.009708 7.043897
v 1.017064 0.003708 -7.043896
v 1.017064 0.003707 7.043897
v 1.012704 0.009708 -7.043896
v 1.012704 0.009707 7.043897
v 1.005651 0.012000 -7.043896
v 1.005651 0.011999 7.043897
v 0.998598 0.009708 -7.043896
v 0.998598 0.009707 7.043897
v 0.994238 0.003708 -7.043896
v 0.994238 0.003707 7.043897
v 0.994238 -0.003708 -7.043896
v 0.994238 -0.003709 7.043897
v 1.005651 -0.012000 -7.043896
v 0.998598 -0.009708 -7.043896
v 0.998598 -0.009708 7.043897
v 1.005651 -0.012001 7.043897
v 1.012704 7.990292 7.043898
v 1.012704 7.990293 -7.043894
v 1.017064 7.996293 -7.043894
v 1.017064 7.996292 7.043898
v 1.017064 8.003709 -7.043894
v 1.017064 8.003708 7.043898
v 1.012704 8.009708 -7.043894
v 1.012704 8.009707 7.043898
v 1.005651 8.012000 -7.043894
v 1.005651 8.012000 7.043898
v 0.998598 8.009708 -7.043894
v 0.998598 8.009707 7.043898
v 0.994238 8.003709 -7.043894
v 0.994238 8.003708 7.043898
v 0.994238 7.996293 -7.043894
v 0.994238 7.996292 7.043898
v 1.005651 7.988001 -7.043894
v 0.998598 7.990293 -7.043894
v 0.998598 7.990292 7.043898
v 1.005651 7.988000 7.043898
v 5.000576 4.979284 7.000002
v 5.000576 4.981576 7.007055
v -5.000576 4.981575 7.007054
v -5.000576 4.979284 7.000001
v 5.000576 4.987576 7.011415
v -5.000576 4.987575 7.011414
v 5.000576 4.994992 7.011415
v -5.000576 4.994992 7.011414
v 5.000576 5.000992 7.007055
v -5.000576 5.000992 7.007054
v 5.000576 5.003285 7.000002
v -5.000576 5.003284 7.000001
v 5.000576 5.000992 6.992949
v -5.000576 5.000992 6.992948
v 5.000576 4.994992 6.988589
v -5.000576 4.994992 6.988588
v 5.000576 4.987576 6.988589
v -5.000576 4.987575 6.988588
v -5.000576 4.981575 6.992948
v 5.000576 4.981576 6.992949
v 5.000576 4.979286 -6.999999
v 5.000576 4.981578 -6.992946
v -5.000576 4.981577 -6.992947
v -5.000576 4.979286 -7.000000
v 5.000576 4.987578 -6.988586
v -5.000576 4.987576 -6.988587
v 5.000576 4.994994 -6.988586
v -5.000576 4.994994 -6.988587
v 5.000576 5.000994 -6.992946
v -5.000576 5.000994 -6.992947
v 5.000576 5.003287 -6.999999
v -5.000576 5.003286 -7.000000
v 5.000576 5.000994 -7.007052
v -5.000576 5.000994 -7.007053
v 5.000576 4.994994 -7.011412
v -5.000576 4.994994 -7.011413
v 5.000576 4.987578 -7.011412
v -5.000576 4.987576 -7.011413
v -5.000576 4.981577 -7.007053
v 5.000576 4.981578 -7.007052
v 5.000576 5.955575 7.000002
v 5.000576 5.957867 7.007055
v -5.000576 5.957866 7.007054
v -5.000576 5.955575 7.000001
v 5.000576 5.963867 7.011415
v -5.000576 5.963866 7.011414
v 5.000576 5.971283 7.011415
v -5.000576 5.971283 7.011414
v 5.000576 5.977283 7.007055
v -5.000576 5.977283 7.007054
v 5.000576 5.979576 7.000002
v -5.000576 5.979575 7.000001
v 5.000576 5.977283 6.992949
v -5.000576 5.977283 6.992948
v 5.000576 5.971283 6.988589
v -5.000576 5.971283 6.988588
v 5.000576 5.963867 6.988589
v -5.000576 5.963866 6.988588
v -5.000576 5.957866 6.992948
v 5.000576 5.957867 6.992949
v 5.000576 5.955577 -6.999999
v 5.000576 5.957869 -6.992946
v -5.000576 5.957868 -6.992947
v -5.000576 5.955577 -7.000000
v 5.000576 5.963869 -6.988586
v -5.000576 5.963868 -6.988587
v 5.000576 5.971285 -6.988586
v -5.000576 5.971285 -6.988587
v 5.000576 5.977285 -6.992946
v -5.000576 5.977285 -6.992947
v 5.000576 5.979578 -6.999999
v -5.000576 5.979577 -7.000000
v 5.000576 5.977285 -7.007052
v -5.000576 5.977285 -7.007053
v 5.000576 5.971285 -7.011412
v -5.000576 5.971285 -7.011413
v 5.000576 5.963869 -7.011412
v -5.000576 5.963868 -7.011413
v -5.000576 5.957868 -7.007053
v 5.000576 5.957869 -7.007052
v 5.000576 6.988876 7.000002
v 5.000576 6.991168 7.007055
v -5.000576 6.991167 7.007054
v -5.000576 6.988876 7.000001
v 5.000576 6.997168 7.011415
v -5.000576 6.997167 7.011414
v 5.000576 7.004584 7.011415
v -5.000576 7.004584 7.011414
v 5.000576 7.010584 7.007055
v -5.000576 7.010584 7.007054
v 5.000576 7.012877 7.000002
v -5.000576 7.012876 7.000001
v 5.000576 7.010584 6.992949
v -5.000576 7.010584 6.992948
v 5.000576 7.004584 6.988589
v -5.000576 7.004584 6.988588
v 5.000576 6.997168 6.988589
v -5.000576 6.997167 6.988588
v -5.000576 6.991167 6.992948
v 5.000576 6.991168 6.992949
v 5.000576 6.988878 -6.999999
v 5.000576 6.991170 -6.992946
v -5.000576 6.991169 -6.992947
v -5.000576 6.988878 -7.000000
v 5.000576 6.997170 -6.988586
v -5.000576 6.997169 -6.988587
v 5.000576 7.004586 -6.988586
v -5.000576 7.004586 -6.988587
v 5.000576 7.010586 -6.992946
v -5.000576 7.010586 -6.992947
v 5.000576 7.012879 -6.999999
v -5.000576 7.012878 -7.000000
v 5.000576 7.010586 -7.007052
v -5.000576 7.010586 -7.007053
v 5.000576 7.004586 -7.011412
v -5.000576 7.004586 -7.011413
v 5.000576 6.997170 -7.011412
v -5.000576 6.997169 -7.011413
v -5.000576 6.991169 -7.007053
v 5.000576 6.991170 -7.007052
v 5.000576 0.964850 7.000001
v 5.000576 0.967142 7.007054
v -5.000576 0.967141 7.007053
v -5.000576 0.964850 7.000000
v 5.000576 0.973142 7.011415
v -5.000576 0.973141 7.011414
v 5.000576 0.980558 7.011415
v -5.000576 0.980558 7.011414
v 5.000576 0.986558 7.007054
v -5.000576 0.986558 7.007053
v 5.000576 0.988851 7.000001
v -5.000576 0.988850 7.000000
v 5.000576 0.986558 6.992949
v -5.000576 0.986558 6.992948
v 5.000576 0.980558 6.988588
v -5.000576 0.980558 6.988587
v 5.000576 0.973142 6.988588
v -5.000576 0.973141 6.988587
v -5.000576 0.967141 6.992948
v 5.000576 0.967142 6.992949
v 5.000576 0.964853 -7.000000
v 5.000576 0.967145 -6.992947
v -5.000576 0.967144 -6.992948
v -5.000576 0.964853 -7.000000
v 5.000576 0.973145 -6.988586
v -5.000576 0.973143 -6.988587
v 5.000576 0.980560 -6.988586
v -5.000576 0.980560 -6.988587
v 5.000576 0.986561 -6.992947
v -5.000576 0.986561 -6.992948
v 5.000576 0.988854 -7.000000
v -5.000576 0.988853 -7.000000
v 5.000576 0.986561 -7.007052
v -5.000576 0.986561 -7.007053
v 5.000576 0.980560 -7.011413
v -5.000576 0.980560 -7.011414
v 5.000576 0.973145 -7.011413
v -5.000576 0.973143 -7.011414
v -5.000576 0.967144 -7.007053
v 5.000576 0.967145 -7.007052
v 5.000576 1.941141 7.000002
v 5.000576 1.943434 7.007055
v -5.000576 1.943433 7.007054
v -5.000576 1.941141 7.000001
v 5.000576 1.949434 7.011415
v -5.000576 1.949432 7.011414
v 5.000576 1.956849 7.011415
v -5.000576 1.956849 7.011414
v 5.000576 1.962849 7.007055
v -5.000576 1.962849 7.007054
v 5.000576 1.965142 7.000002
v -5.000576 1.965142 7.000001
v 5.000576 1.962849 6.992949
v -5.000576 1.962849 6.992948
v 5.000576 1.956849 6.988589
v -5.000576 1.956849 6.988588
v 5.000576 1.949434 6.988589
v -5.000576 1.949432 6.988588
v -5.000576 1.943433 6.992948
v 5.000576 1.943434 6.992949
v 5.000576 1.941144 -6.999999
v 5.000576 1.943436 -6.992946
v -5.000576 1.943435 -6.992947
v -5.000576 1.941144 -7.000000
v 5.000576 1.949436 -6.988586
v -5.000576 1.949435 -6.988587
v 5.000576 1.956852 -6.988586
v -5.000576 1.956852 -6.988587
v 5.000576 1.962852 -6.992946
v -5.000576 1.962852 -6.992947
v 5.000576 1.965145 -6.999999
v -5.000576 1.965144 -7.000000
v 5.000576 1.962852 -7.007052
v -5.000576 1.962852 -7.007053
v 5.000576 1.956852 -7.011412
v -5.000576 1.956852 -7.011413
v 5.000576 1.949436 -7.011412
v -5.000576 1.949435 -7.011413
v -5.000576 1.943435 -7.007053
v 5.000576 1.943436 -7.007052
v 5.000576 2.974442 7.000002
v 5.000576 2.976734 7.007055
v -5.000576 2.976733 7.007054
v -5.000576 2.974442 7.000001
v 5.000576 2.982734 7.011415
v -5.000576 2.982733 7.011414
v 5.000576 2.990150 7.011415
v -5.000576 2.990150 7.011414
v 5.000576 2.996150 7.007055
v -5.000576 2.996150 7.007054
v 5.000576 2.998443 7.000002
v -5.000576 2.998442 7.000001
v 5.000576 2.996150 6.992949
v -5.000576 2.996150 6.992948
v 5.000576 2.990150 6.988589
v -5.000576 2.990150 6.988588
v 5.000576 2.982734 6.988589
v -5.000576 2.982733 6.988588
v -5.000576 2.976733 6.992948
v 5.000576 2.976734 6.992949
v 5.000576 2.974445 -6.999999
v 5.000576 2.976737 -6.992946
v -5.000576 2.976736 -6.992947
v -5.000576 2.974445 -7.000000
v 5.000576 2.982737 -6.988586
v -5.000576 2.982735 -6.988587
v 5.000576 2.990153 -6.988586
v -5.000576 2.990153 -6.988587
v 5.000576 2.996153 -6.992946
v -5.000576 2.996153 -6.992947
v 5.000576 2.998446 -6.999999
v -5.000576 2.998445 -7.000000
v 5.000576 2.996153 -7.007052
v -5.000576 2.996153 -7.007053
v 5.000576 2.990153 -7.011412
v -5.000576 2.990153 -7.011413
v 5.000576 2.982737 -7.011412
v -5.000576 2.982735 -7.011413
v -5.000576 2.976736 -7.007053
v 5.000576 2.976737 -7.007052
vn 0.0000 -0.9511 0.3090
vn 0.0000 -0.5879 0.8089
vn -0.0000 0.0000 1.0000
vn -0.0000 0.5879 0.8089
vn -0.0000 0.9510 0.3092
vn 0.0000 0.9510 -0.3092
vn 0.0000 0.5879 -0.8089
vn 0.0000 0.0000 -1.0000
vn -1.0000 0.0000 0.0000
vn 0.0000 -0.5879 -0.8089
vn 0.0000 -0.9511 -0.3090
vn 1.0000 0.0000 0.0000
vn -0.3090 -0.9511 -0.0000
vn -0.8090 -0.5879 -0.0000
vn -0.8090 0.5879 0.0000
vn -0.3088 0.9511 0.0000
vn 0.3091 0.9510 0.0000
vn 0.8090 0.5879 0.0000
vn 0.8090 -0.5879 -0.0000
vn 0.3090 -0.9511 -0.0000
vn 0.0000 -0.9510 0.3091
vn -0.0000 0.9511 0.3090
vn -0.0000 0.9511 -0.3090
vn 0.0000 -0.9510 -0.3091
vn 0.4694 0.0000 -0.8830
vn 0.8988 -0.0000 -0.4383
vn 0.9848 -0.0000 0.1737
vn 0.6946 -0.0000 0.7194
vn 0.1392 -0.0000 0.9903
vn -0.4695 -0.0000 0.8829
vn -0.8988 0.0000 0.4383
vn -0.9848 0.0000 -0.1736
vn -0.0000 -1.0000 -0.0000
vn -0.6947 0.0000 -0.7193
vn -0.1391 0.0000 -0.9903
vn 0.0000 1.0000 0.0000
vn 0.4695 0.0000 -0.8829
vn 0.9848 -0.0000 0.1736
vn -0.4695 -0.0000 0.8830
vn -0.9848 0.0000 -0.1737
vn -0.1392 0.0000 -0.9903
vn 0.6947 -0.0000 0.7193
vn 0.1391 -0.0000 0.9903
vn -0.4694 -0.0000 0.8830
vn -0.8988 0.0000 0.4384
vn 0.4695 0.0000 -0.8830
vn 0.8988 -0.0000 -0.4384
vn -0.6946 0.0000 -0.7194
vn -0.1393 0.0000 -0.9903
vn 0.4693 0.0000 -0.8830
vn -0.4693 -0.0000 0.8831
vn 0.0000 1.0000 -0.0001
vn -0.0000 -0.5878 0.8090
vn -0.0000 0.5878 0.8090
vn 0.0000 0.5878 -0.8090
vn 0.0000 -0.5878 -0.8090
vn 0.0000 -0.9510 0.3090
vn -0.0000 0.9511 0.3089
vn -0.0000 0.9511 -0.3089
vn 0.0000 -0.9510 -0.3090
vn 0.0000 -0.5879 0.8090
vn -0.0000 0.9510 0.3091
vn -0.0000 0.9510 -0.3091
vn -0.0000 0.5879 0.8090
vn 0.0000 0.5879 -0.8090
vn 0.0000 -0.5879 -0.8090
vn -0.3091 -0.9510 -0.0000
vn -0.8090 -0.5878 -0.0000
vn -0.8090 0.5878 0.0000
vn -0.3091 0.9510 0.0000
vn 0.3091 -0.9510 -0.0000
vn -0.3092 -0.9510 -0.0000
vn -0.8089 -0.5880 -0.0000
vn -0.8089 0.5879 0.0000
vn -0.3090 0.9511 0.0000
vn 0.3090 0.9511 0.0000
vn 0.8090 0.5878 0.0000
vn 0.8089 -0.5879 -0.0000
vn 0.3092 -0.9510 -0.0000
vn 0.8089 0.5879 0.0000
vn 0.8090 -0.5878 -0.0000
vn -0.8089 -0.5879 -0.0000
vn -0.3090 -0.9510 -0.0000
vn -0.3090 0.9510 0.0000
usemtl None
s 1
f 1//1 2//1 3//1 4//1
f 2//2 5//2 6//2 3//2
f 5//3 7//3 8//3 6//3
f 7//4 9//4 10//4 8//4
f 9//5 11//5 12//5 10//5
f 11//6 13//6 14//6 12//6
f 13//7 15//7 16//7 14//7
f 15//8 17//8 18//8 16//8
f 3//9 6//9 8//9 10//9 12//9 14//9 16//9 18//9 19//9 4//9
f 17//10 20//10 19//10 18//10
f 20//11 1//11 4//11 19//11
f 1//12 20//12 17//12 15//12 13//12 11//12 9//12 7//12 5//12 2//12
f 21//13 22//13 23//13 24//13
f 22//14 25//14 26//14 23//14
f 25//9 27//9 28//9 26//9
f 27//15 29//15 30//15 28//15
f 29//16 31//16 32//16 30//16
f 31//17 33//17 34//17 32//17
f 33//18 35//18 36//18 34//18
f 35//12 37//12 38//12 36//12
f 23//8 26//8 28//8 30//8 32//8 34//8 36//8 38//8 39//8 24//8
f 37//19 40//19 39//19 38//19
f 40//20 21//20 24//20 39//20
f 21//3 40//3 37//3 35//3 33//3 31//3 29//3 27//3 25//3 22//3
f 43//8 46//8 48//8 50//8 52//8 54//8 56//8 58//8 59//8 44//8
f 41//3 60//3 57//3 55//3 53//3 51//3 49//3 47//3 45//3 42//3
f 61//1 62//1 63//1 64//1
f 62//2 65//2 66//2 63//2
f 65//3 67//3 68//3 66//3
f 67//4 69//4 70//4 68//4
f 69//5 71//5 72//5 70//5
f 71//6 73//6 74//6 72//6
f 73//7 75//7 76//7 74//7
f 75//8 77//8 78//8 76//8
f 63//9 66//9 68//9 70//9 72//9 74//9 76//9 78//9 79//9 64//9
f 77//10 80//10 79//10 78//10
f 80//11 61//11 64//11 79//11
f 61//12 80//12 77//12 75//12 73//12 71//12 69//12 67//12 65//12 62//12
f 81//21 82//21 83//21 84//21
f 82//2 85//2 86//2 83//2
f 85//3 87//3 88//3 86//3
f 87//4 89//4 90//4 88//4
f 89//22 91//22 92//22 90//22
f 91//23 93//23 94//23 92//23
f 93//7 95//7 96//7 94//7
f 95//8 97//8 98//8 96//8
f 83//9 86//9 88//9 90//9 92//9 94//9 96//9 98//9 99//9 84//9
f 97//10 100//10 99//10 98//10
f 100//24 81//24 84//24 99//24
f 81//12 100//12 97//12 95//12 93//12 91//12 89//12 87//12 85//12 82//12
f 101//25 102//25 103//25 104//25
f 102//26 105//26 106//26 103//26
f 105//27 107//27 108//27 106//27
f 107//28 109//28 110//28 108//28
f 109//29 111//29 112//29 110//29
f 111//30 113//30 114//30 112//30
f 113//31 115//31 116//31 114//31
f 115//32 117//32 118//32 116//32
f 103//33 106//33 108//33 110//33 112//33 114//33 116//33 118//33 119//33 104//33
f 117//34 120//34 119//34 118//34
f 120//35 101//35 104//35 119//35
f 101//36 120//36 117//36 115//36 113//36 111//36 109//36 107//36 105//36 102//36
f 121//37 122//37 123//37 124//37
f 122//26 125//26 126//26 123//26
f 125//38 127//38 128//38 126//38
f 127//28 129//28 130//28 128//28
f 129//29 131//29 132//29 130//29
f 131//39 133//39 134//39 132//39
f 133//31 135//31 136//31 134//31
f 135//40 137//40 138//40 136//40
f 123//33 126//33 128//33 130//33 132//33 134//33 136//33 138//33 139//33 124//33
f 137//34 140//34 139//34 138//34
f 140//41 121//41 124//41 139//41
f 121//36 140//36 137//36 135//36 133//36 131//36 129//36 127//36 125//36 122//36
f 141//37 142//37 143//37 144//37
f 142//26 145//26 146//26 143//26
f 145//27 147//27 148//27 146//27
f 147//42 149//42 150//42 148//42
f 149//43 151//43 152//43 150//43
f 151//44 153//44 154//44 152//44
f 153//45 155//45 156//45 154//45
f 155//40 157//40 158//40 156//40
f 143//33 146//33 148//33 150//33 152//33 154//33 156//33 158//33 159//33 144//33
f 157//34 160//34 159//34 158//34
f 160//35 141//35 144//35 159//35
f 141//36 160//36 157//36 155//36 153//36 151//36 149//36 147//36 145//36 142//36
f 161//46 162//46 163//46 164//46
f 162//26 165//26 166//26 163//26
f 165//27 167//27 168//27 166//27
f 167//42 169//42 170//42 168//42
f 169//43 171//43 172//43 170//43
f 171//30 173//30 174//30 172//30
f 173//31 175//31 176//31 174//31
f 175//40 177//40 178//40 176//40
f 163//33 166//33 168//33 170//33 172//33 174//33 176//33 178//33 179//33 164//33
f 177//34 180//34 179//34 178//34
f 180//35 161//35 164//35 179//35
f 161//36 180//36 177//36 175//36 173//36 171//36 169//36 167//36 165//36 162//36
f 181//37 182//37 183//37 184//37
f 182//47 185//47 186//47 183//47
f 185//27 187//27 188//27 186//27
f 187//28 189//28 190//28 188//28
f 189//29 191//29 192//29 190//29
f 191//44 193//44 194//44 192//44
f 193//31 195//31 196//31 194//31
f 195//40 197//40 198//40 196//40
f 183//33 186//33 188//33 190//33 192//33 194//33 196//33 198//33 199//33 184//33
f 197//34 200//34 199//34 198//34
f 200//41 181//41 184//41 199//41
f 181//36 200//36 197//36 195//36 193//36 191//36 189//36 187//36 185//36 182//36
f 201//37 202//37 203//37 204//37
f 202//26 205//26 206//26 203//26
f 205//27 207//27 208//27 206//27
f 207//42 209//42 210//42 208//42
f 209//29 211//29 212//29 210//29
f 211//44 213//44 214//44 212//44
f 213//31 215//31 216//31 214//31
f 215//40 217//40 218//40 216//40
f 203//33 206//33 208//33 210//33 212//33 214//33 216//33 218//33 219//33 204//33
f 217//48 220//48 219//48 218//48
f 220//49 201//49 204//49 219//49
f 201//36 220//36 217//36 215//36 213//36 211//36 209//36 207//36 205//36 202//36
f 221//25 222//25 223//25 224//25
f 222//47 225//47 226//47 223//47
f 225//27 227//27 228//27 226//27
f 227//42 229//42 230//42 228//42
f 229//29 231//29 232//29 230//29
f 231//44 233//44 234//44 232//44
f 233//31 235//31 236//31 234//31
f 235//40 237//40 238//40 236//40
f 223//33 226//33 228//33 230//33 232//33 234//33 236//33 238//33 239//33 224//33
f 237//48 240//48 239//48 238//48
f 240//35 221//35 224//35 239//35
f 221//36 240//36 237//36 235//36 233//36 231//36 229//36 227//36 225//36 222//36
f 241//50 242//50 243//50 244//50
f 242//26 245//26 246//26 243//26
f 245//27 247//27 248//27 246//27
f 247//42 249//42 250//42 248//42
f 249//43 251//43 252//43 250//43
f 251//51 253//51 254//51 252//51
f 253//31 255//31 256//31 254//31
f 255//40 257//40 258//40 256//40
f 243//33 246//33 248//33 250//33 252//33 254//33 256//33 258//33 259//33 244//33
f 257//48 260//48 259//48 258//48
f 260//35 241//35 244//35 259//35
f 241//36 260//36 257//36 255//36 253//36 251//36 249//36 247//36 245//36 242//36
f 261//25 262//25 263//25 264//25
f 262//47 265//47 266//47 263//47
f 265//27 267//27 268//27 266//27
f 267//42 269//42 270//42 268//42
f 269//29 271//29 272//29 270//29
f 271//30 273//30 274//30 272//30
f 273//45 275//45 276//45 274//45
f 275//40 277//40 278//40 276//40
f 263//33 266//33 268//33 270//33 272//33 274//33 276//33 278//33 279//33 264//33
f 277//48 280//48 279//48 278//48
f 280//41 261//41 264//41 279//41
f 261//36 280//36 277//36 275//36 273//36 271//36 269//36 267//36 265//36 262//36
f 281//46 282//46 283//46 284//46
f 282//26 285//26 286//26 283//26
f 285//27 287//27 288//27 286//27
f 287//42 289//42 290//42 288//42
f 289//43 291//43 292//43 290//43
f 291//30 293//30 294//30 292//30
f 293//31 295//31 296//31 294//31
f 295//40 297//40 298//40 296//40
f 283//33 286//33 288//33 290//33 292//33 294//33 296//33 298//33 299//33 284//33
f 297//34 300//34 299//34 298//34
f 300//35 281//35 284//35 299//35
f 281//36 300//36 297//36 295//36 293//36 291//36 289//36 287//36 285//36 282//36
f 301//37 302//37 303//37 304//37
f 302//26 305//26 306//26 303//26
f 305//27 307//27 308//27 306//27
f 307//42 309//42 310//42 308//42
f 309//43 311//43 312//43 310//43
f 311//30 313//30 314//30 312//30
f 313//45 315//45 316//45 314//45
f 315//40 317//40 318//40 316//40
f 303//33 306//33 308//33 310//33 312//33 314//33 316//33 318//33 319//33 304//33
f 317//34 320//34 319//34 318//34
f 320//41 301//41 304//41 319//41
f 301//52 320//52 317//52 315//52 313//52 311//52 309//52 307//52 305//52 302//52
f 321//46 322//46 323//46 324//46
f 322//47 325//47 326//47 323//47
f 325//27 327//27 328//27 326//27
f 327//42 329//42 330//42 328//42
f 329//43 331//43 332//43 330//43
f 331//44 333//44 334//44 332//44
f 333//31 335//31 336//31 334//31
f 335//40 337//40 338//40 336//40
f 323//33 326//33 328//33 330//33 332//33 334//33 336//33 338//33 339//33 324//33
f 337//34 340//34 339//34 338//34
f 340//35 321//35 324//35 339//35
f 321//36 340//36 337//36 335//36 333//36 331//36 329//36 327//36 325//36 322//36
f 341//21 342//21 343//21 344//21
f 342//53 345//53 346//53 343//53
f 345//3 347//3 348//3 346//3
f 347//54 349//54 350//54 348//54
f 349//22 351//22 352//22 350//22
f 351//23 353//23 354//23 352//23
f 353//55 355//55 356//55 354//55
f 355//8 357//8 358//8 356//8
f 343//9 346//9 348//9 350//9 352//9 354//9 356//9 358//9 359//9 344//9
f 357//56 360//56 359//56 358//56
f 360//24 341//24 344//24 359//24
f 341//12 360//12 357//12 355//12 353//12 351//12 349//12 347//12 345//12 342//12
f 361//1 362//1 363//1 364//1
f 362//53 365//53 366//53 363//53
f 365//3 367//3 368//3 366//3
f 367//54 369//54 370//54 368//54
f 369//22 371//22 372//22 370//22
f 371//23 373//23 374//23 372//23
f 373//55 375//55 376//55 374//55
f 375//8 377//8 378//8 376//8
f 363//9 366//9 368//9 370//9 372//9 374//9 376//9 378//9 379//9 364//9
f 377//56 380//56 379//56 378//56
f 380//11 361//11 364//11 379//11
f 361//12 380//12 377//12 375//12 373//12 371//12 369//12 367//12 365//12 362//12
f 381//57 382//57 383//57 384//57
f 382//53 385//53 386//53 383//53
f 385//3 387//3 388//3 386//3
f 387//54 389//54 390//54 388//54
f 389//58 391//58 392//58 390//58
f 391//59 393//59 394//59 392//59
f 393//55 395//55 396//55 394//55
f 395//8 397//8 398//8 396//8
f 383//9 386//9 388//9 390//9 392//9 394//9 396//9 398//9 399//9 384//9
f 397//56 400//56 399//56 398//56
f 400//60 381//60 384//60 399//60
f 381//12 400//12 397//12 395//12 393//12 391//12 389//12 387//12 385//12 382//12
f 401//21 402//21 403//21 404//21
f 402//53 405//53 406//53 403//53
f 405//3 407//3 408//3 406//3
f 407//54 409//54 410//54 408//54
f 409//58 411//58 412//58 410//58
f 411//59 413//59 414//59 412//59
f 413//55 415//55 416//55 414//55
f 415//8 417//8 418//8 416//8
f 403//9 406//9 408//9 410//9 412//9 414//9 416//9 418//9 419//9 404//9
f 417//56 420//56 419//56 418//56
f 420//11 401//11 404//11 419//11
f 401//12 420//12 417//12 415//12 413//12 411//12 409//12 407//12 405//12 402//12
f 421//57 422//57 423//57 424//57
f 422//53 425//53 426//53 423//53
f 425//3 427//3 428//3 426//3
f 427//54 429//54 430//54 428//54
f 429//58 431//58 432//58 430//58
f 431//59 433//59 434//59 432//59
f 433//55 435//55 436//55 434//55
f 435//8 437//8 438//8 436//8
f 423//9 426//9 428//9 430//9 432//9 434//9 436//9 438//9 439//9 424//9
f 437//56 440//56 439//56 438//56
f 440//24 421//24 424//24 439//24
f 421//12 440//12 437//12 435//12 433//12 431//12 429//12 427//12 425//12 422//12
f 441//21 442//21 443//21 444//21
f 442//61 445//61 446//61 443//61
f 445//3 447//3 448//3 446//3
f 447//54 449//54 450//54 448//54
f 449//62 451//62 452//62 450//62
f 451//63 453//63 454//63 452//63
f 453//55 455//55 456//55 454//55
f 455//8 457//8 458//8 456//8
f 443//9 446//9 448//9 450//9 452//9 454//9 456//9 458//9 459//9 444//9
f 457//56 460//56 459//56 458//56
f 460//24 441//24 444//24 459//24
f 441//12 460//12 457//12 455//12 453//12 451//12 449//12 447//12 445//12 442//12
f 461//21 462//21 463//21 464//21
f 462//2 465//2 466//2 463//2
f 465//3 467//3 468//3 466//3
f 467//4 469//4 470//4 468//4
f 469//22 471//22 472//22 470//22
f 471//23 473//23 474//23 472//23
f 473//7 475//7 476//7 474//7
f 475//8 477//8 478//8 476//8
f 463//9 466//9 468//9 470//9 472//9 474//9 476//9 478//9 479//9 464//9
f 477//10 480//10 479//10 478//10
f 480//24 461//24 464//24 479//24
f 461//12 480//12 477//12 475//12 473//12 471//12 469//12 467//12 465//12 462//12
f 481//21 482//21 483//21 484//21
f 482//2 485//2 486//2 483//2
f 485//3 487//3 488//3 486//3
f 487//4 489//4 490//4 488//4
f 489//22 491//22 492//22 490//22
f 491//23 493//23 494//23 492//23
f 493//7 495//7 496//7 494//7
f 495//8 497//8 498//8 496//8
f 483//9 486//9 488//9 490//9 492//9 494//9 496//9 498//9 499//9 484//9
f 497//10 500//10 499//10 498//10
f 500//24 481//24 484//24 499//24
f 481//12 500//12 497//12 495//12 493//12 491//12 489//12 487//12 485//12 482//12
f 501//21 502//21 503//21 504//21
f 502//61 505//61 506//61 503//61
f 505//3 507//3 508//3 506//3
f 507//64 509//64 510//64 508//64
f 509//58 511//58 512//58 510//58
f 511//59 513//59 514//59 512//59
f 513//65 515//65 516//65 514//65
f 515//8 517//8 518//8 516//8
f 503//9 506//9 508//9 510//9 512//9 514//9 516//9 518//9 519//9 504//9
f 517//66 520//66 519//66 518//66
f 520//24 501//24 504//24 519//24
f 501//12 520//12 517//12 515//12 513//12 511//12 509//12 507//12 505//12 502//12
f 521//21 522//21 523//21 524//21
f 522//61 525//61 526//61 523//61
f 525//3 527//3 528//3 526//3
f 527//64 529//64 530//64 528//64
f 529//58 531//58 532//58 530//58
f 531//59 533//59 534//59 532//59
f 533//65 535//65 536//65 534//65
f 535//8 537//8 538//8 536//8
f 523//9 526//9 528//9 530//9 532//9 534//9 536//9 538//9 539//9 524//9
f 537//66 540//66 539//66 538//66
f 540//24 521//24 524//24 539//24
f 521//12 540//12 537//12 535//12 533//12 531//12 529//12 527//12 525//12 522//12
f 541//67 542//67 543//67 544//67
f 542//68 545//68 546//68 543//68
f 545//9 547//9 548//9 546//9
f 547//69 549//69 550//69 548//69
f 549//70 551//70 552//70 550//70
f 551//17 553//17 554//17 552//17
f 553//18 555//18 556//18 554//18
f 555//12 557//12 558//12 556//12
f 543//8 546//8 548//8 550//8 552//8 554//8 556//8 558//8 559//8 544//8
f 557//19 560//19 559//19 558//19
f 560//71 541//71 544//71 559//71
f 541//3 560//3 557//3 555//3 553//3 551//3 549//3 547//3 545//3 542//3
f 561//72 562//72 563//72 564//72
f 562//73 565//73 566//73 563//73
f 565//9 567//9 568//9 566//9
f 567//74 569//74 570//74 568//74
f 569//75 571//75 572//75 570//75
f 571//76 573//76 574//76 572//76
f 573//77 575//77 576//77 574//77
f 575//12 577//12 578//12 576//12
f 563//8 566//8 568//8 570//8 572//8 574//8 576//8 578//8 579//8 564//8
f 577//78 580//78 579//78 578//78
f 580//79 561//79 564//79 579//79
f 561//3 580//3 577//3 575//3 573//3 571//3 569//3 567//3 565//3 562//3
f 581//67 582//67 583//67 584//67
f 582//68 585//68 586//68 583//68
f 585//9 587//9 588//9 586//9
f 587//74 589//74 590//74 588//74
f 589//70 591//70 592//70 590//70
f 591//17 593//17 594//17 592//17
f 593//80 595//80 596//80 594//80
f 595//12 597//12 598//12 596//12
f 583//8 586//8 588//8 590//8 592//8 594//8 596//8 598//8 599//8 584//8
f 597//81 600//81 599//81 598//81
f 600//71 581//71 584//71 599//71
f 581//3 600//3 597//3 595//3 593//3 591//3 589//3 587//3 585//3 582//3
f 601//67 602//67 603//67 604//67
f 602//82 605//82 606//82 603//82
f 605//9 607//9 608//9 606//9
f 607//69 609//69 610//69 608//69
f 609//70 611//70 612//70 610//70
f 611//17 613//17 614//17 612//17
f 613//77 615//77 616//77 614//77
f 615//12 617//12 618//12 616//12
f 603//8 606//8 608//8 610//8 612//8 614//8 616//8 618//8 619//8 604//8
f 617//78 620//78 619//78 618//78
f 620//71 601//71 604//71 619//71
f 601//3 620//3 617//3 615//3 613//3 611//3 609//3 607//3 605//3 602//3
f 621//83 622//83 623//83 624//83
f 622//14 625//14 626//14 623//14
f 625//9 627//9 628//9 626//9
f 627//15 629//15 630//15 628//15
f 629//84 631//84 632//84 630//84
f 631//17 633//17 634//17 632//17
f 633//18 635//18 636//18 634//18
f 635//12 637//12 638//12 636//12
f 623//8 626//8 628//8 630//8 632//8 634//8 636//8 638//8 639//8 624//8
f 637//19 640//19 639//19 638//19
f 640//71 621//71 624//71 639//71
f 621//3 640//3 637//3 635//3 633//3 631//3 629//3 627//3 625//3 622//3
f 641//67 642//67 643//67 644//67
f 642//68 645//68 646//68 643//68
f 645//9 647//9 648//9 646//9
f 647//69 649//69 650//69 648//69
f 649//70 651//70 652//70 650//70
f 651//76 653//76 654//76 652//76
f 653//77 655//77 656//77 654//77
f 655//12 657//12 658//12 656//12
f 643//8 646//8 648//8 650//8 652//8 654//8 656//8 658//8 659//8 644//8
f 657//81 660//81 659//81 658//81
f 660//71 641//71 644//71 659//71
f 641//3 660//3 657//3 655//3 653//3 651//3 649//3 647//3 645//3 642//3
l 815 816
l 807 808
l 774 773
l 993 994
l 985 986
l 813 814
l 805 806
l 977 978
l 779 778
l 957 958
l 665 666
l 673 674
l 667 668
l 675 676
l 661 664
l 669 670
l 677 678
l 662 663
l 671 672
l 679 680
l 685 686
l 693 694
l 687 688
l 695 696
l 681 684
l 689 690
l 697 698
l 682 683
l 691 692
l 699 700
l 705 706
l 713 714
l 707 708
l 715 716
l 701 704
l 709 710
l 717 718
l 702 703
l 711 712
l 719 720
l 725 726
l 733 734
l 727 728
l 735 736
l 721 724
l 729 730
l 737 738
l 722 723
l 731 732
l 739 740
l 745 746
l 753 754
l 819 820
l 811 812
l 949 950
l 962 963
l 747 748
l 755 756
l 802 803
l 817 818
l 741 744
l 749 750
l 757 758
l 809 810
l 801 804
l 742 743
l 751 752
l 759 760
l 768 767
l 776 775
l 785 786
l 793 794
l 787 788
l 795 796
l 781 784
l 789 790
l 797 798
l 782 783
l 791 792
l 799 800
l 825 826
l 833 834
l 827 828
l 835 836
l 821 824
l 829 830
l 837 838
l 822 823
l 831 832
l 839 840
l 845 846
l 853 854
l 847 848
l 855 856
l 841 844
l 849 850
l 857 858
l 842 843
l 851 852
l 859 860
l 865 866
l 873 874
l 867 868
l 875 876
l 861 864
l 869 870
l 877 878
l 862 863
l 871 872
l 879 880
l 885 886
l 893 894
l 887 888
l 895 896
l 881 884
l 889 890
l 897 898
l 882 883
l 891 892
l 899 900
l 905 906
l 913 914
l 907 908
l 915 916
l 901 904
l 909 910
l 917 918
l 902 903
l 911 912
l 919 920
l 925 926
l 933 934
l 927 928
l 935 936
l 921 924
l 929 930
l 937 938
l 922 923
l 931 932
l 939 940
l 766 765
l 951 952
l 981 984
l 959 960
l 971 972
l 979 980
l 987 988
l 995 996
l 941 944
l 942 943
l 772 771
l 780 777
l 945 946
l 953 954
l 965 966
l 973 974
l 989 990
l 997 998
l 764 763
l 982 983
l 961 964
l 969 970
l 770 769
l 762 761
l 947 948
l 955 956
l 967 968
l 975 976
l 991 992
l 999 1000
l 1001 1004
l 1009 1010
l 1017 1018
l 1025 1026
l 1033 1034
l 1045 1046
l 1053 1054
l 1041 1044
l 1002 1003
l 1011 1012
l 1019 1020
l 1027 1028
l 1035 1036
l 1047 1048
l 1055 1056
l 1005 1006
l 1013 1014
l 1021 1024
l 1029 1030
l 1037 1038
l 1049 1050
l 1057 1058
l 1042 1043
l 1022 1023
l 1007 1008
l 1015 1016
l 1031 1032
l 1039 1040
l 1051 1052
l 1059 1060
l 1061 1064
l 1069 1070
l 1077 1078
l 1062 1063
l 1071 1072
l 1079 1080
l 1065 1066
l 1073 1074
l 1067 1068
l 1075 1076
l 1119 1118
l 1100 1097
l 1088 1087
l 1096 1095
l 1104 1103
l 1112 1111
l 1084 1083
l 1102 1101
l 1106 1105
l 1114 1113
l 1099 1098
l 1092 1091
l 1108 1107
l 1116 1115
l 1090 1089
l 1086 1085
l 1094 1093
l 1120 1117
l 1082 1081
l 1110 1109
l 1140 1137
l 1159 1158
l 1128 1127
l 1136 1135
l 1144 1143
l 1152 1151
l 1121 1122
l 1142 1141
l 1146 1145
l 1154 1153
l 1139 1138
l 1132 1131
l 1148 1147
l 1156 1155
l 1130 1129
l 1126 1125
l 1134 1133
l 1160 1157
l 1123 1124
l 1150 1149
l 1180 1177
l 1199 1198
l 1168 1167
l 1176 1175
l 1184 1183
l 1192 1191
l 1161 1162
l 1182 1181
l 1186 1185
l 1194 1193
l 1179 1178
l 1172 1171
l 1188 1187
l 1196 1195
l 1170 1169
l 1166 1165
l 1174 1173
l 1200 1197
l 1163 1164
l 1190 1189
l 1220 1217
l 1239 1238
l 1208 1207
l 1216 1215
l 1224 1223
l 1232 1231
l 1201 1202
l 1222 1221
l 1226 1225
l 1234 1233
l 1219 1218
l 1212 1211
l 1228 1227
l 1236 1235
l 1210 1209
l 1206 1205
l 1214 1213
l 1240 1237
l 1203 1204
l 1230 1229
l 1279 1278
l 1260 1257
l 1248 1247
l 1256 1255
l 1264 1263
l 1272 1271
l 1244 1243
l 1262 1261
l 1266 1265
l 1274 1273
l 1259 1258
l 1252 1251
l 1268 1267
l 1276 1275
l 1250 1249
l 1246 1245
l 1254 1253
l 1280 1277
l 1242 1241
l 1270 1269
l 1300 1297
l 1319 1318
l 1288 1287
l 1296 1295
l 1304 1303
l 1312 1311
l 1281 1282
l 1302 1301
l 1306 1305
l 1314 1313
l 1299 1298
l 1292 1291
l 1308 1307
l 1316 1315
l 1290 1289
l 1286 1285
l 1294 1293
l 1320 1317
l 1283 1284
l 1310 1309
l 1340 1337
l 1359 1358
l 1328 1327
l 1336 1335
l 1344 1343
l 1352 1351
l 1321 1322
l 1342 1341
l 1346 1345
l 1354 1353
l 1339 1338
l 1332 1331
l 1348 1347
l 1356 1355
l 1330 1329
l 1326 1325
l 1334 1333
l 1360 1357
l 1323 1324
l 1350 1349
l 1380 1377
l 1399 1398
l 1368 1367
l 1376 1375
l 1384 1383
l 1392 1391
l 1361 1362
l 1382 1381
l 1386 1385
l 1394 1393
l 1379 1378
l 1372 1371
l 1388 1387
l 1396 1395
l 1370 1369
l 1366 1365
l 1374 1373
l 1400 1397
l 1363 1364
l 1390 1389
l 1401 1404
l 1409 1410
l 1417 1418
l 1425 1426
l 1433 1434
l 1402 1403
l 1411 1412
l 1419 1420
l 1427 1428
l 1435 1436
l 1405 1406
l 1413 1414
l 1421 1424
l 1429 1430
l 1437 1438
l 1422 1423
l 1407 1408
l 1415 1416
l 1431 1432
l 1439 1440
l 1441 1444
l 1449 1450
l 1457 1458
l 1465 1466
l 1473 1474
l 1442 1443
l 1451 1452
l 1459 1460
l 1467 1468
l 1475 1476
l 1445 1446
l 1453 1454
l 1461 1464
l 1469 1470
l 1477 1478
l 1462 1463
l 1447 1448
l 1455 1456
l 1471 1472
l 1479 1480
l 1481 1484
l 1489 1490
l 1497 1498
l 1505 1506
l 1513 1514
l 1482 1483
l 1491 1492
l 1499 1500
l 1507 1508
l 1515 1516
l 1485 1486
l 1493 1494
l 1501 1504
l 1509 1510
l 1517 1518
l 1502 1503
l 1487 1488
l 1495 1496
l 1511 1512
l 1519 1520
l 1521 1524
l 1529 1530
l 1537 1538
l 1545 1546
l 1553 1554
l 1522 1523
l 1531 1532
l 1539 1540
l 1547 1548
l 1555 1556
l 1525 1526
l 1533 1534
l 1541 1544
l 1549 1550
l 1557 1558
l 1542 1543
l 1527 1528
l 1535 1536
l 1551 1552
l 1559 1560
l 1561 1564
l 1569 1570
l 1577 1578
l 1585 1586
l 1593 1594
l 1562 1563
l 1571 1572
l 1579 1580
l 1587 1588
l 1595 1596
l 1565 1566
l 1573 1574
l 1581 1584
l 1589 1590
l 1597 1598
l 1582 1583
l 1567 1568
l 1575 1576
l 1591 1592
l 1599 1600
l 1601 1604
l 1609 1610
l 1617 1618
l 1625 1626
l 1633 1634
l 1602 1603
l 1611 1612
l 1619 1620
l 1627 1628
l 1635 1636
l 1605 1606
l 1613 1614
l 1621 1624
l 1629 1630
l 1637 1638
l 1622 1623
l 1607 1608
l 1615 1616
l 1631 1632
l 1639 1640
