# 3ds Max Wavefront OBJ Exporter v0.97b - (c)2007 guruware
# File Created: 08.03.2013 22:55:19

#
# object Rectangle001
#

v  50.5000 0.0000 -50.5000
v  -50.5000 0.0000 -50.5000
v  -49.7500 0.4330 -49.7500
v  49.7500 0.4330 -49.7500
v  -49.7500 -0.4330 -49.7500
v  49.7500 -0.4330 -49.7500
v  -50.5000 0.0000 50.5000
v  -49.7500 0.4330 49.7500
v  -49.7500 -0.4330 49.7500
v  50.5000 0.0000 50.5000
v  49.7500 0.4330 49.7500
v  49.7500 -0.4330 49.7500
# 12 vertices

vn 0.0000 0.8660 -0.5000
vn 0.0000 0.0000 1.0000
vn 0.0000 -0.8660 -0.5000
vn -0.5000 0.8660 -0.0000
vn 1.0000 0.0000 -0.0000
vn -0.5000 -0.8660 -0.0000
vn 0.0000 0.8660 0.5000
vn 0.0000 0.0000 -1.0000
vn 0.0000 -0.8660 0.5000
vn 0.5000 0.8660 -0.0000
vn -1.0000 0.0000 -0.0000
vn 0.5000 -0.8660 -0.0000
# 12 vertex normals

g Rectangle001
s 1
f 1//1 2//1 3//1 4//1 
s 2
f 4//2 3//2 5//2 6//2 
s 4
f 6//3 5//3 2//3 1//3 
s 8
f 2//4 7//4 8//4 3//4 
s 16
f 3//5 8//5 9//5 5//5 
s 32
f 5//6 9//6 7//6 2//6 
s 1
f 7//7 10//7 11//7 8//7 
s 2
f 8//8 11//8 12//8 9//8 
s 4
f 9//9 12//9 10//9 7//9 
s 8
f 10//10 1//10 4//10 11//10 
s 16
f 11//11 4//11 6//11 12//11 
s 32
f 12//12 6//12 1//12 10//12 
# 12 polygons

#
# object Circle001
#

v  50.0010 0.0000 -0.0000
v  49.6110 0.0000 -6.2664
v  48.8654 0.4330 -6.1733
v  49.2495 0.4330 0.0000
v  48.8654 -0.4330 -6.1733
v  49.2495 -0.4330 -0.0000
v  48.4724 0.0000 -12.3029
v  47.7439 0.4330 -12.1186
v  47.7439 -0.4330 -12.1186
v  46.6321 0.0000 -18.0616
v  45.9315 0.4330 -17.7900
v  45.9315 -0.4330 -17.7900
v  44.1374 0.0000 -23.4951
v  43.4745 0.4330 -23.1414
v  43.4745 -0.4330 -23.1414
v  41.0354 0.0000 -28.5561
v  40.4191 0.4330 -28.1264
v  40.4191 -0.4330 -28.1264
v  37.3732 0.0000 -33.1978
v  36.8117 0.4330 -32.6986
v  36.8117 -0.4330 -32.6986
v  33.1978 0.0000 -37.3732
v  32.6986 0.4330 -36.8117
v  32.6986 -0.4330 -36.8117
v  28.5561 0.0000 -41.0354
v  28.1264 0.4330 -40.4191
v  28.1264 -0.4330 -40.4191
v  23.4951 0.0000 -44.1374
v  23.1414 0.4330 -43.4745
v  23.1414 -0.4330 -43.4745
v  18.0616 0.0000 -46.6321
v  17.7900 0.4330 -45.9315
v  17.7900 -0.4330 -45.9315
v  12.3029 0.0000 -48.4724
v  12.1186 0.4330 -47.7439
v  12.1186 -0.4330 -47.7439
v  6.2664 0.0000 -49.6110
v  6.1733 0.4330 -48.8654
v  6.1733 -0.4330 -48.8654
v  -0.0000 0.0000 -50.0010
v  -0.0000 0.4330 -49.2495
v  -0.0000 -0.4330 -49.2495
v  -6.2664 0.0000 -49.6110
v  -6.1733 0.4330 -48.8654
v  -6.1733 -0.4330 -48.8654
v  -12.3029 0.0000 -48.4724
v  -12.1186 0.4330 -47.7439
v  -12.1186 -0.4330 -47.7439
v  -18.0616 0.0000 -46.6321
v  -17.7900 0.4330 -45.9315
v  -17.7900 -0.4330 -45.9315
v  -23.4951 0.0000 -44.1374
v  -23.1414 0.4330 -43.4745
v  -23.1414 -0.4330 -43.4745
v  -28.5561 0.0000 -41.0354
v  -28.1264 0.4330 -40.4191
v  -28.1264 -0.4330 -40.4191
v  -33.1978 0.0000 -37.3732
v  -32.6986 0.4330 -36.8117
v  -32.6986 -0.4330 -36.8117
v  -37.3732 0.0000 -33.1978
v  -36.8117 0.4330 -32.6986
v  -36.8117 -0.4330 -32.6986
v  -41.0354 0.0000 -28.5561
v  -40.4191 0.4330 -28.1264
v  -40.4191 -0.4330 -28.1264
v  -44.1374 0.0000 -23.4951
v  -43.4745 0.4330 -23.1414
v  -43.4745 -0.4330 -23.1414
v  -46.6321 0.0000 -18.0616
v  -45.9315 0.4330 -17.7900
v  -45.9315 -0.4330 -17.7900
v  -48.4724 0.0000 -12.3029
v  -47.7439 0.4330 -12.1186
v  -47.7439 -0.4330 -12.1186
v  -49.6110 0.0000 -6.2664
v  -48.8654 0.4330 -6.1733
v  -48.8654 -0.4330 -6.1733
v  -50.0010 0.0000 0.0000
v  -49.2495 0.4330 0.0000
v  -49.2495 -0.4330 0.0000
v  -49.6110 0.0000 6.2664
v  -48.8654 0.4330 6.1733
v  -48.8654 -0.4330 6.1733
v  -48.4724 0.0000 12.3029
v  -47.7439 0.4330 12.1186
v  -47.7439 -0.4330 12.1186
v  -46.6321 0.0000 18.0616
v  -45.9315 0.4330 17.7900
v  -45.9315 -0.4330 17.7900
v  -44.1374 0.0000 23.4951
v  -43.4745 0.4330 23.1414
v  -43.4745 -0.4330 23.1414
v  -41.0354 0.0000 28.5561
v  -40.4191 0.4330 28.1264
v  -40.4191 -0.4330 28.1264
v  -37.3732 0.0000 33.1978
v  -36.8117 0.4330 32.6986
v  -36.8117 -0.4330 32.6986
v  -33.1978 0.0000 37.3732
v  -32.6986 0.4330 36.8117
v  -32.6986 -0.4330 36.8117
v  -28.5561 0.0000 41.0354
v  -28.1264 0.4330 40.4191
v  -28.1264 -0.4330 40.4191
v  -23.4951 0.0000 44.1374
v  -23.1414 0.4330 43.4745
v  -23.1414 -0.4330 43.4745
v  -18.0616 0.0000 46.6321
v  -17.7900 0.4330 45.9315
v  -17.7900 -0.4330 45.9315
v  -12.3029 0.0000 48.4724
v  -12.1186 0.4330 47.7439
v  -12.1186 -0.4330 47.7439
v  -6.2664 0.0000 49.6110
v  -6.1733 0.4330 48.8654
v  -6.1733 -0.4330 48.8654
v  0.0000 0.0000 50.0010
v  0.0000 0.4330 49.2495
v  0.0000 -0.4330 49.2495
v  6.2664 0.0000 49.6110
v  6.1733 0.4330 48.8654
v  6.1733 -0.4330 48.8654
v  12.3029 0.0000 48.4724
v  12.1186 0.4330 47.7439
v  12.1186 -0.4330 47.7439
v  18.0616 0.0000 46.6321
v  17.7900 0.4330 45.9315
v  17.7900 -0.4330 45.9315
v  23.4951 0.0000 44.1374
v  23.1414 0.4330 43.4745
v  23.1414 -0.4330 43.4745
v  28.5561 0.0000 41.0354
v  28.1264 0.4330 40.4191
v  28.1264 -0.4330 40.4191
v  33.1978 0.0000 37.3732
v  32.6986 0.4330 36.8117
v  32.6986 -0.4330 36.8117
v  37.3732 0.0000 33.1978
v  36.8117 0.4330 32.6986
v  36.8117 -0.4330 32.6986
v  41.0354 0.0000 28.5561
v  40.4191 0.4330 28.1264
v  40.4191 -0.4330 28.1264
v  44.1374 0.0000 23.4951
v  43.4745 0.4330 23.1414
v  43.4745 -0.4330 23.1414
v  46.6321 0.0000 18.0616
v  45.9315 0.4330 17.7900
v  45.9315 -0.4330 17.7900
v  48.4724 0.0000 12.3029
v  47.7439 0.4330 12.1186
v  47.7439 -0.4330 12.1186
v  49.6110 0.0000 6.2664
v  48.8654 0.4330 6.1733
v  48.8654 -0.4330 6.1733
# 156 vertices

vn 0.4993 0.8664 0.0000
vn 0.4954 0.8664 -0.0619
vn -1.0000 0.0000 0.0000
vn -0.9923 0.0000 0.1240
vn -0.9923 -0.0000 0.1240
vn -1.0000 -0.0000 0.0000
vn 0.4993 -0.8664 -0.0000
vn 0.4954 -0.8664 -0.0619
vn 0.4840 0.8664 -0.1225
vn -0.9694 0.0000 0.2453
vn 0.4840 -0.8664 -0.1225
vn 0.4655 0.8664 -0.1805
vn -0.9324 0.0000 0.3615
vn 0.4655 -0.8664 -0.1805
vn 0.4405 0.8664 -0.2351
vn -0.8823 0.0000 0.4708
vn 0.4405 -0.8664 -0.2351
vn 0.4096 0.8664 -0.2856
vn -0.8203 0.0000 0.5720
vn 0.4096 -0.8664 -0.2856
vn 0.3732 0.8664 -0.3318
vn -0.7474 0.0000 0.6644
vn 0.3732 -0.8664 -0.3318
vn 0.3318 0.8664 -0.3732
vn -0.6644 0.0000 0.7474
vn 0.3318 -0.8664 -0.3732
vn 0.2856 0.8664 -0.4096
vn -0.5720 0.0000 0.8203
vn 0.2856 -0.8664 -0.4096
vn 0.2351 0.8664 -0.4405
vn -0.4708 0.0000 0.8823
vn 0.2351 -0.8664 -0.4405
vn 0.1805 0.8664 -0.4655
vn -0.3615 0.0000 0.9324
vn 0.1805 -0.8664 -0.4655
vn 0.1225 0.8664 -0.4840
vn -0.2453 0.0000 0.9694
vn 0.1225 -0.8664 -0.4840
vn 0.0619 0.8664 -0.4954
vn -0.1240 0.0000 0.9923
vn 0.0619 -0.8664 -0.4954
vn 0.0000 0.8664 -0.4993
vn 0.0000 0.0000 1.0000
vn 0.0000 -0.0000 1.0000
vn -0.0000 -0.8664 -0.4993
vn -0.0619 0.8664 -0.4954
vn 0.1240 0.0000 0.9923
vn 0.1240 -0.0000 0.9923
vn -0.0619 -0.8664 -0.4954
vn -0.1225 0.8664 -0.4840
vn 0.2453 0.0000 0.9694
vn -0.1225 -0.8664 -0.4840
vn -0.1805 0.8664 -0.4655
vn 0.3615 0.0000 0.9324
vn -0.1805 -0.8664 -0.4655
vn -0.2351 0.8664 -0.4405
vn 0.4708 0.0000 0.8823
vn -0.2351 -0.8664 -0.4405
vn -0.2856 0.8664 -0.4096
vn 0.5720 0.0000 0.8203
vn -0.2856 -0.8664 -0.4096
vn -0.3318 0.8664 -0.3732
vn 0.6644 0.0000 0.7474
vn -0.3318 -0.8664 -0.3732
vn -0.3732 0.8664 -0.3318
vn 0.7474 0.0000 0.6644
vn -0.3732 -0.8664 -0.3318
vn -0.4096 0.8664 -0.2856
vn 0.8203 0.0000 0.5720
vn -0.4096 -0.8664 -0.2856
vn -0.4405 0.8664 -0.2351
vn 0.8823 -0.0000 0.4708
vn 0.8823 0.0000 0.4708
vn -0.4405 -0.8664 -0.2351
vn -0.4655 0.8664 -0.1805
vn 0.9324 -0.0000 0.3615
vn -0.4655 -0.8664 -0.1805
vn -0.4840 0.8664 -0.1225
vn 0.9694 0.0000 0.2453
vn 0.9694 -0.0000 0.2453
vn -0.4840 -0.8664 -0.1225
vn -0.4954 0.8664 -0.0619
vn 0.9923 0.0000 0.1240
vn -0.4954 -0.8664 -0.0619
vn -0.4993 0.8664 -0.0000
vn -0.4993 0.8664 0.0000
vn 1.0000 0.0000 -0.0000
vn 1.0000 -0.0000 -0.0000
vn -0.4993 -0.8664 0.0000
vn -0.4954 0.8664 0.0619
vn 0.9923 0.0000 -0.1240
vn 0.9923 -0.0000 -0.1240
vn -0.4954 -0.8664 0.0619
vn -0.4840 0.8664 0.1225
vn 0.9694 0.0000 -0.2453
vn -0.4840 -0.8664 0.1225
vn -0.4655 0.8664 0.1805
vn 0.9324 0.0000 -0.3615
vn -0.4655 -0.8664 0.1805
vn -0.4405 0.8664 0.2351
vn 0.8823 0.0000 -0.4708
vn -0.4405 -0.8664 0.2351
vn -0.4096 0.8664 0.2856
vn 0.8203 0.0000 -0.5720
vn -0.4096 -0.8664 0.2856
vn -0.3732 0.8664 0.3318
vn 0.7474 0.0000 -0.6644
vn -0.3732 -0.8664 0.3318
vn -0.3318 0.8664 0.3732
vn 0.6644 0.0000 -0.7474
vn -0.3318 -0.8664 0.3732
vn -0.2856 0.8664 0.4096
vn 0.5720 0.0000 -0.8203
vn -0.2856 -0.8664 0.4096
vn -0.2351 0.8664 0.4405
vn 0.4708 0.0000 -0.8823
vn -0.2351 -0.8664 0.4405
vn -0.1805 0.8664 0.4655
vn 0.3615 0.0000 -0.9324
vn -0.1805 -0.8664 0.4655
vn -0.1225 0.8664 0.4840
vn 0.2453 0.0000 -0.9694
vn -0.1225 -0.8664 0.4840
vn -0.0619 0.8664 0.4954
vn 0.1240 0.0000 -0.9923
vn -0.0619 -0.8664 0.4954
vn -0.0000 0.8664 0.4993
vn 0.0000 0.8664 0.4993
vn -0.0000 0.0000 -1.0000
vn -0.0000 -0.0000 -1.0000
vn 0.0000 -0.8664 0.4993
vn 0.0619 0.8664 0.4954
vn -0.1240 0.0000 -0.9923
vn -0.1240 -0.0000 -0.9923
vn 0.0619 -0.8664 0.4954
vn 0.1225 0.8664 0.4840
vn -0.2453 0.0000 -0.9694
vn 0.1225 -0.8664 0.4840
vn 0.1805 0.8664 0.4655
vn -0.3615 0.0000 -0.9324
vn 0.1805 -0.8664 0.4655
vn 0.2351 0.8664 0.4405
vn -0.4708 0.0000 -0.8823
vn 0.2351 -0.8664 0.4405
vn 0.2856 0.8664 0.4096
vn -0.5720 0.0000 -0.8203
vn 0.2856 -0.8664 0.4096
vn 0.3318 0.8664 0.3732
vn -0.6644 0.0000 -0.7474
vn 0.3318 -0.8664 0.3732
vn 0.3732 0.8664 0.3318
vn -0.7474 0.0000 -0.6644
vn 0.3732 -0.8664 0.3318
vn 0.4096 0.8664 0.2856
vn -0.8203 0.0000 -0.5720
vn 0.4096 -0.8664 0.2856
vn 0.4405 0.8664 0.2351
vn -0.8823 0.0000 -0.4708
vn 0.4405 -0.8664 0.2351
vn 0.4655 0.8664 0.1805
vn -0.9324 0.0000 -0.3615
vn 0.4655 -0.8664 0.1805
vn 0.4840 0.8664 0.1225
vn -0.9694 0.0000 -0.2453
vn 0.4840 -0.8664 0.1225
vn 0.4954 0.8664 0.0619
vn -0.9923 0.0000 -0.1240
vn 0.4954 -0.8664 0.0619
# 168 vertex normals

g Circle001
s 1
f 13//13 14//14 15//14 16//13 
s 2
f 16//15 15//16 17//17 18//18 
s 4
f 18//19 17//20 14//20 13//19 
s 1
f 14//14 19//21 20//21 15//14 
s 2
f 15//16 20//22 21//22 17//17 
s 4
f 17//20 21//23 19//23 14//20 
s 1
f 19//21 22//24 23//24 20//21 
s 2
f 20//22 23//25 24//25 21//22 
s 4
f 21//23 24//26 22//26 19//23 
s 1
f 22//24 25//27 26//27 23//24 
s 2
f 23//25 26//28 27//28 24//25 
s 4
f 24//26 27//29 25//29 22//26 
s 1
f 25//27 28//30 29//30 26//27 
s 2
f 26//28 29//31 30//31 27//28 
s 4
f 27//29 30//32 28//32 25//29 
s 1
f 28//30 31//33 32//33 29//30 
s 2
f 29//31 32//34 33//34 30//31 
s 4
f 30//32 33//35 31//35 28//32 
s 1
f 31//33 34//36 35//36 32//33 
s 2
f 32//34 35//37 36//37 33//34 
s 4
f 33//35 36//38 34//38 31//35 
s 1
f 34//36 37//39 38//39 35//36 
s 2
f 35//37 38//40 39//40 36//37 
s 4
f 36//38 39//41 37//41 34//38 
s 1
f 37//39 40//42 41//42 38//39 
s 2
f 38//40 41//43 42//43 39//40 
s 4
f 39//41 42//44 40//44 37//41 
s 1
f 40//42 43//45 44//45 41//42 
s 2
f 41//43 44//46 45//46 42//43 
s 4
f 42//44 45//47 43//47 40//44 
s 1
f 43//45 46//48 47//48 44//45 
s 2
f 44//46 47//49 48//49 45//46 
s 4
f 45//47 48//50 46//50 43//47 
s 1
f 46//48 49//51 50//51 47//48 
s 2
f 47//49 50//52 51//52 48//49 
s 4
f 48//50 51//53 49//53 46//50 
s 1
f 49//51 52//54 53//54 50//51 
s 2
f 50//52 53//55 54//56 51//52 
s 4
f 51//53 54//57 52//57 49//53 
s 1
f 52//54 55//58 56//58 53//54 
s 2
f 53//55 56//59 57//60 54//56 
s 4
f 54//57 57//61 55//61 52//57 
s 1
f 55//58 58//62 59//62 56//58 
s 2
f 56//59 59//63 60//63 57//60 
s 4
f 57//61 60//64 58//64 55//61 
s 1
f 58//62 61//65 62//65 59//62 
s 2
f 59//63 62//66 63//66 60//63 
s 4
f 60//64 63//67 61//67 58//64 
s 1
f 61//65 64//68 65//68 62//65 
s 2
f 62//66 65//69 66//69 63//66 
s 4
f 63//67 66//70 64//70 61//67 
s 1
f 64//68 67//71 68//71 65//68 
s 2
f 65//69 68//72 69//72 66//69 
s 4
f 66//70 69//73 67//73 64//70 
s 1
f 67//71 70//74 71//74 68//71 
s 2
f 68//72 71//75 72//75 69//72 
s 4
f 69//73 72//76 70//76 67//73 
s 1
f 70//74 73//77 74//77 71//74 
s 2
f 71//75 74//78 75//78 72//75 
s 4
f 72//76 75//79 73//79 70//76 
s 1
f 73//77 76//80 77//80 74//77 
s 2
f 74//78 77//81 78//81 75//78 
s 4
f 75//79 78//82 76//82 73//79 
s 1
f 76//80 79//83 80//83 77//80 
s 2
f 77//81 80//84 81//85 78//81 
s 4
f 78//82 81//86 79//86 76//82 
s 1
f 79//83 82//87 83//87 80//83 
s 2
f 80//84 83//88 84//88 81//85 
s 4
f 81//86 84//89 82//89 79//86 
s 1
f 82//87 85//90 86//90 83//87 
s 2
f 83//88 86//91 87//92 84//88 
s 4
f 84//89 87//93 85//93 82//89 
s 1
f 85//90 88//94 89//94 86//90 
s 2
f 86//91 89//95 90//95 87//92 
s 4
f 87//93 90//96 88//96 85//93 
s 1
f 88//94 91//97 92//98 89//94 
s 2
f 89//95 92//99 93//100 90//95 
s 4
f 90//96 93//101 91//101 88//96 
s 1
f 91//97 94//102 95//102 92//98 
s 2
f 92//99 95//103 96//104 93//100 
s 4
f 93//101 96//105 94//105 91//101 
s 1
f 94//102 97//106 98//106 95//102 
s 2
f 95//103 98//107 99//107 96//104 
s 4
f 96//105 99//108 97//108 94//105 
s 1
f 97//106 100//109 101//109 98//106 
s 2
f 98//107 101//110 102//110 99//107 
s 4
f 99//108 102//111 100//111 97//108 
s 1
f 100//109 103//112 104//112 101//109 
s 2
f 101//110 104//113 105//113 102//110 
s 4
f 102//111 105//114 103//114 100//111 
s 1
f 103//112 106//115 107//115 104//112 
s 2
f 104//113 107//116 108//116 105//113 
s 4
f 105//114 108//117 106//117 103//114 
s 1
f 106//115 109//118 110//118 107//115 
s 2
f 107//116 110//119 111//119 108//116 
s 4
f 108//117 111//120 109//120 106//117 
s 1
f 109//118 112//121 113//121 110//118 
s 2
f 110//119 113//122 114//122 111//119 
s 4
f 111//120 114//123 112//123 109//120 
s 1
f 112//121 115//124 116//124 113//121 
s 2
f 113//122 116//125 117//125 114//122 
s 4
f 114//123 117//126 115//126 112//123 
s 1
f 115//124 118//127 119//127 116//124 
s 2
f 116//125 119//128 120//128 117//125 
s 4
f 117//126 120//129 118//129 115//126 
s 1
f 118//127 121//130 122//130 119//127 
s 2
f 119//128 122//131 123//131 120//128 
s 4
f 120//129 123//132 121//132 118//129 
s 1
f 121//130 124//133 125//133 122//130 
s 2
f 122//131 125//134 126//134 123//131 
s 4
f 123//132 126//135 124//135 121//132 
s 1
f 124//133 127//136 128//136 125//133 
s 2
f 125//134 128//137 129//137 126//134 
s 4
f 126//135 129//138 127//138 124//135 
s 1
f 127//136 130//139 131//140 128//136 
s 2
f 128//137 131//141 132//142 129//137 
s 4
f 129//138 132//143 130//143 127//138 
s 1
f 130//139 133//144 134//144 131//140 
s 2
f 131//141 134//145 135//146 132//142 
s 4
f 132//143 135//147 133//147 130//143 
s 1
f 133//144 136//148 137//148 134//144 
s 2
f 134//145 137//149 138//149 135//146 
s 4
f 135//147 138//150 136//150 133//147 
s 1
f 136//148 139//151 140//151 137//148 
s 2
f 137//149 140//152 141//152 138//149 
s 4
f 138//150 141//153 139//153 136//150 
s 1
f 139//151 142//154 143//154 140//151 
s 2
f 140//152 143//155 144//155 141//152 
s 4
f 141//153 144//156 142//156 139//153 
s 1
f 142//154 145//157 146//157 143//154 
s 2
f 143//155 146//158 147//158 144//155 
s 4
f 144//156 147//159 145//159 142//156 
s 1
f 145//157 148//160 149//160 146//157 
s 2
f 146//158 149//161 150//161 147//158 
s 4
f 147//159 150//162 148//162 145//159 
s 1
f 148//160 151//163 152//163 149//160 
s 2
f 149//161 152//164 153//164 150//161 
s 4
f 150//162 153//165 151//165 148//162 
s 1
f 151//163 154//166 155//166 152//163 
s 2
f 152//164 155//167 156//167 153//164 
s 4
f 153//165 156//168 154//168 151//165 
s 1
f 154//166 157//169 158//169 155//166 
s 2
f 155//167 158//170 159//170 156//167 
s 4
f 156//168 159//171 157//171 154//168 
s 1
f 157//169 160//172 161//172 158//169 
s 2
f 158//170 161//173 162//173 159//170 
s 4
f 159//171 162//174 160//174 157//171 
s 1
f 160//172 163//175 164//175 161//172 
s 2
f 161//173 164//176 165//176 162//173 
s 4
f 162//174 165//177 163//177 160//174 
s 1
f 163//175 166//178 167//178 164//175 
s 2
f 164//176 167//179 168//179 165//176 
s 4
f 165//177 168//180 166//180 163//177 
s 1
f 166//178 13//13 16//13 167//178 
s 2
f 167//179 16//15 18//18 168//179 
s 4
f 168//180 18//19 13//19 166//180 
# 156 polygons

