# Blender 5.1.2
# www.blender.org
mtllib Grid_20_squares.mtl
o Grid
v -1.000000 0.000000 1.000000
v -0.600000 0.000000 1.000000
v -0.200000 0.000000 1.000000
v 0.200000 0.000000 1.000000
v 0.600000 0.000000 1.000000
v 1.000000 0.000000 1.000000
v -1.000000 0.000000 0.500000
v -0.600000 0.000000 0.500000
v -0.200000 0.000000 0.500000
v 0.200000 0.000000 0.500000
v 0.600000 0.000000 0.500000
v 1.000000 0.000000 0.500000
v -1.000000 0.000000 0.000000
v -0.600000 0.000000 0.000000
v -0.200000 0.000000 0.000000
v 0.200000 0.000000 0.000000
v 0.600000 0.000000 0.000000
v 1.000000 0.000000 0.000000
v -1.000000 0.000000 -0.500000
v -0.600000 0.000000 -0.500000
v -0.200000 0.000000 -0.500000
v 0.200000 0.000000 -0.500000
v 0.600000 0.000000 -0.500000
v 1.000000 0.000000 -0.500000
v -1.000000 0.000000 -1.000000
v -0.600000 0.000000 -1.000000
v -0.200000 0.000000 -1.000000
v 0.200000 0.000000 -1.000000
v 0.600000 0.000000 -1.000000
v 1.000000 0.000000 -1.000000
vn -0.0000 1.0000 -0.0000
vt 0.000000 0.000000
vt 0.200000 0.000000
vt 0.200000 0.250000
vt 0.000000 0.250000
vt 0.400000 0.000000
vt 0.400000 0.250000
vt 0.600000 0.000000
vt 0.600000 0.250000
vt 0.800000 0.000000
vt 0.800000 0.250000
vt 1.000000 0.000000
vt 1.000000 0.250000
vt 0.200000 0.500000
vt 0.000000 0.500000
vt 0.400000 0.500000
vt 0.600000 0.500000
vt 0.800000 0.500000
vt 1.000000 0.500000
vt 0.200000 0.750000
vt 0.000000 0.750000
vt 0.400000 0.750000
vt 0.600000 0.750000
vt 0.800000 0.750000
vt 1.000000 0.750000
vt 0.200000 1.000000
vt 0.000000 1.000000
vt 0.400000 1.000000
vt 0.600000 1.000000
vt 0.800000 1.000000
vt 1.000000 1.000000
s 0
usemtl Grid_20_squares_Mat
f 1/1/1 2/2/1 8/3/1 7/4/1
f 2/2/1 3/5/1 9/6/1 8/3/1
f 3/5/1 4/7/1 10/8/1 9/6/1
f 4/7/1 5/9/1 11/10/1 10/8/1
f 5/9/1 6/11/1 12/12/1 11/10/1
f 7/4/1 8/3/1 14/13/1 13/14/1
f 8/3/1 9/6/1 15/15/1 14/13/1
f 9/6/1 10/8/1 16/16/1 15/15/1
f 10/8/1 11/10/1 17/17/1 16/16/1
f 11/10/1 12/12/1 18/18/1 17/17/1
f 13/14/1 14/13/1 20/19/1 19/20/1
f 14/13/1 15/15/1 21/21/1 20/19/1
f 15/15/1 16/16/1 22/22/1 21/21/1
f 16/16/1 17/17/1 23/23/1 22/22/1
f 17/17/1 18/18/1 24/24/1 23/23/1
f 19/20/1 20/19/1 26/25/1 25/26/1
f 20/19/1 21/21/1 27/27/1 26/25/1
f 21/21/1 22/22/1 28/28/1 27/27/1
f 22/22/1 23/23/1 29/29/1 28/28/1
f 23/23/1 24/24/1 30/30/1 29/29/1
