# Blender 5.1.2
# www.blender.org
mtllib Grid_20x20.mtl
o Grid
v -1.000000 0.000000 1.000000
v -0.904762 0.000000 1.000000
v -0.809524 0.000000 1.000000
v -0.714286 0.000000 1.000000
v -0.619048 0.000000 1.000000
v -0.523810 0.000000 1.000000
v -0.428571 0.000000 1.000000
v -0.333333 0.000000 1.000000
v -0.238095 0.000000 1.000000
v -0.142857 0.000000 1.000000
v -0.047619 0.000000 1.000000
v 0.047619 0.000000 1.000000
v 0.142857 0.000000 1.000000
v 0.238095 0.000000 1.000000
v 0.333333 0.000000 1.000000
v 0.428571 0.000000 1.000000
v 0.523810 0.000000 1.000000
v 0.619048 0.000000 1.000000
v 0.714286 0.000000 1.000000
v 0.809524 0.000000 1.000000
v 0.904762 0.000000 1.000000
v 1.000000 0.000000 1.000000
v -1.000000 0.000000 0.904762
v -0.904762 0.000000 0.904762
v -0.809524 0.000000 0.904762
v -0.714286 0.000000 0.904762
v -0.619048 0.000000 0.904762
v -0.523810 0.000000 0.904762
v -0.428571 0.000000 0.904762
v -0.333333 0.000000 0.904762
v -0.238095 0.000000 0.904762
v -0.142857 0.000000 0.904762
v -0.047619 0.000000 0.904762
v 0.047619 0.000000 0.904762
v 0.142857 0.000000 0.904762
v 0.238095 0.000000 0.904762
v 0.333333 0.000000 0.904762
v 0.428571 0.000000 0.904762
v 0.523810 0.000000 0.904762
v 0.619048 0.000000 0.904762
v 0.714286 0.000000 0.904762
v 0.809524 0.000000 0.904762
v 0.904762 0.000000 0.904762
v 1.000000 0.000000 0.904762
v -1.000000 0.000000 0.809524
v -0.904762 0.000000 0.809524
v -0.809524 0.000000 0.809524
v -0.714286 0.000000 0.809524
v -0.619048 0.000000 0.809524
v -0.523810 0.000000 0.809524
v -0.428571 0.000000 0.809524
v -0.333333 0.000000 0.809524
v -0.238095 0.000000 0.809524
v -0.142857 0.000000 0.809524
v -0.047619 0.000000 0.809524
v 0.047619 0.000000 0.809524
v 0.142857 0.000000 0.809524
v 0.238095 0.000000 0.809524
v 0.333333 0.000000 0.809524
v 0.428571 0.000000 0.809524
v 0.523810 0.000000 0.809524
v 0.619048 0.000000 0.809524
v 0.714286 0.000000 0.809524
v 0.809524 0.000000 0.809524
v 0.904762 0.000000 0.809524
v 1.000000 0.000000 0.809524
v -1.000000 0.000000 0.714286
v -0.904762 0.000000 0.714286
v -0.809524 0.000000 0.714286
v -0.714286 0.000000 0.714286
v -0.619048 0.000000 0.714286
v -0.523810 0.000000 0.714286
v -0.428571 0.000000 0.714286
v -0.333333 0.000000 0.714286
v -0.238095 0.000000 0.714286
v -0.142857 0.000000 0.714286
v -0.047619 0.000000 0.714286
v 0.047619 0.000000 0.714286
v 0.142857 0.000000 0.714286
v 0.238095 0.000000 0.714286
v 0.333333 0.000000 0.714286
v 0.428571 0.000000 0.714286
v 0.523810 0.000000 0.714286
v 0.619048 0.000000 0.714286
v 0.714286 0.000000 0.714286
v 0.809524 0.000000 0.714286
v 0.904762 0.000000 0.714286
v 1.000000 0.000000 0.714286
v -1.000000 0.000000 0.619048
v -0.904762 0.000000 0.619048
v -0.809524 0.000000 0.619048
v -0.714286 0.000000 0.619048
v -0.619048 0.000000 0.619048
v -0.523810 0.000000 0.619048
v -0.428571 0.000000 0.619048
v -0.333333 0.000000 0.619048
v -0.238095 0.000000 0.619048
v -0.142857 0.000000 0.619048
v -0.047619 0.000000 0.619048
v 0.047619 0.000000 0.619048
v 0.142857 0.000000 0.619048
v 0.238095 0.000000 0.619048
v 0.333333 0.000000 0.619048
v 0.428571 0.000000 0.619048
v 0.523810 0.000000 0.619048
v 0.619048 0.000000 0.619048
v 0.714286 0.000000 0.619048
v 0.809524 0.000000 0.619048
v 0.904762 0.000000 0.619048
v 1.000000 0.000000 0.619048
v -1.000000 0.000000 0.523810
v -0.904762 0.000000 0.523810
v -0.809524 0.000000 0.523810
v -0.714286 0.000000 0.523810
v -0.619048 0.000000 0.523810
v -0.523810 0.000000 0.523810
v -0.428571 0.000000 0.523810
v -0.333333 0.000000 0.523810
v -0.238095 0.000000 0.523810
v -0.142857 0.000000 0.523810
v -0.047619 0.000000 0.523810
v 0.047619 0.000000 0.523810
v 0.142857 0.000000 0.523810
v 0.238095 0.000000 0.523810
v 0.333333 0.000000 0.523810
v 0.428571 0.000000 0.523810
v 0.523810 0.000000 0.523810
v 0.619048 0.000000 0.523810
v 0.714286 0.000000 0.523810
v 0.809524 0.000000 0.523810
v 0.904762 0.000000 0.523810
v 1.000000 0.000000 0.523810
v -1.000000 0.000000 0.428571
v -0.904762 0.000000 0.428571
v -0.809524 0.000000 0.428571
v -0.714286 0.000000 0.428571
v -0.619048 0.000000 0.428571
v -0.523810 0.000000 0.428571
v -0.428571 0.000000 0.428571
v -0.333333 0.000000 0.428571
v -0.238095 0.000000 0.428571
v -0.142857 0.000000 0.428571
v -0.047619 0.000000 0.428571
v 0.047619 0.000000 0.428571
v 0.142857 0.000000 0.428571
v 0.238095 0.000000 0.428571
v 0.333333 0.000000 0.428571
v 0.428571 0.000000 0.428571
v 0.523810 0.000000 0.428571
v 0.619048 0.000000 0.428571
v 0.714286 0.000000 0.428571
v 0.809524 0.000000 0.428571
v 0.904762 0.000000 0.428571
v 1.000000 0.000000 0.428571
v -1.000000 0.000000 0.333333
v -0.904762 0.000000 0.333333
v -0.809524 0.000000 0.333333
v -0.714286 0.000000 0.333333
v -0.619048 0.000000 0.333333
v -0.523810 0.000000 0.333333
v -0.428571 0.000000 0.333333
v -0.333333 0.000000 0.333333
v -0.238095 0.000000 0.333333
v -0.142857 0.000000 0.333333
v -0.047619 0.000000 0.333333
v 0.047619 0.000000 0.333333
v 0.142857 0.000000 0.333333
v 0.238095 0.000000 0.333333
v 0.333333 0.000000 0.333333
v 0.428571 0.000000 0.333333
v 0.523810 0.000000 0.333333
v 0.619048 0.000000 0.333333
v 0.714286 0.000000 0.333333
v 0.809524 0.000000 0.333333
v 0.904762 0.000000 0.333333
v 1.000000 0.000000 0.333333
v -1.000000 0.000000 0.238095
v -0.904762 0.000000 0.238095
v -0.809524 0.000000 0.238095
v -0.714286 0.000000 0.238095
v -0.619048 0.000000 0.238095
v -0.523810 0.000000 0.238095
v -0.428571 0.000000 0.238095
v -0.333333 0.000000 0.238095
v -0.238095 0.000000 0.238095
v -0.142857 0.000000 0.238095
v -0.047619 0.000000 0.238095
v 0.047619 0.000000 0.238095
v 0.142857 0.000000 0.238095
v 0.238095 0.000000 0.238095
v 0.333333 0.000000 0.238095
v 0.428571 0.000000 0.238095
v 0.523810 0.000000 0.238095
v 0.619048 0.000000 0.238095
v 0.714286 0.000000 0.238095
v 0.809524 0.000000 0.238095
v 0.904762 0.000000 0.238095
v 1.000000 0.000000 0.238095
v -1.000000 0.000000 0.142857
v -0.904762 0.000000 0.142857
v -0.809524 0.000000 0.142857
v -0.714286 0.000000 0.142857
v -0.619048 0.000000 0.142857
v -0.523810 0.000000 0.142857
v -0.428571 0.000000 0.142857
v -0.333333 0.000000 0.142857
v -0.238095 0.000000 0.142857
v -0.142857 0.000000 0.142857
v -0.047619 0.000000 0.142857
v 0.047619 0.000000 0.142857
v 0.142857 0.000000 0.142857
v 0.238095 0.000000 0.142857
v 0.333333 0.000000 0.142857
v 0.428571 0.000000 0.142857
v 0.523810 0.000000 0.142857
v 0.619048 0.000000 0.142857
v 0.714286 0.000000 0.142857
v 0.809524 0.000000 0.142857
v 0.904762 0.000000 0.142857
v 1.000000 0.000000 0.142857
v -1.000000 0.000000 0.047619
v -0.904762 0.000000 0.047619
v -0.809524 0.000000 0.047619
v -0.714286 0.000000 0.047619
v -0.619048 0.000000 0.047619
v -0.523810 0.000000 0.047619
v -0.428571 0.000000 0.047619
v -0.333333 0.000000 0.047619
v -0.238095 0.000000 0.047619
v -0.142857 0.000000 0.047619
v -0.047619 0.000000 0.047619
v 0.047619 0.000000 0.047619
v 0.142857 0.000000 0.047619
v 0.238095 0.000000 0.047619
v 0.333333 0.000000 0.047619
v 0.428571 0.000000 0.047619
v 0.523810 0.000000 0.047619
v 0.619048 0.000000 0.047619
v 0.714286 0.000000 0.047619
v 0.809524 0.000000 0.047619
v 0.904762 0.000000 0.047619
v 1.000000 0.000000 0.047619
v -1.000000 0.000000 -0.047619
v -0.904762 0.000000 -0.047619
v -0.809524 0.000000 -0.047619
v -0.714286 0.000000 -0.047619
v -0.619048 0.000000 -0.047619
v -0.523810 0.000000 -0.047619
v -0.428571 0.000000 -0.047619
v -0.333333 0.000000 -0.047619
v -0.238095 0.000000 -0.047619
v -0.142857 0.000000 -0.047619
v -0.047619 0.000000 -0.047619
v 0.047619 0.000000 -0.047619
v 0.142857 0.000000 -0.047619
v 0.238095 0.000000 -0.047619
v 0.333333 0.000000 -0.047619
v 0.428571 0.000000 -0.047619
v 0.523810 0.000000 -0.047619
v 0.619048 0.000000 -0.047619
v 0.714286 0.000000 -0.047619
v 0.809524 0.000000 -0.047619
v 0.904762 0.000000 -0.047619
v 1.000000 0.000000 -0.047619
v -1.000000 0.000000 -0.142857
v -0.904762 0.000000 -0.142857
v -0.809524 0.000000 -0.142857
v -0.714286 0.000000 -0.142857
v -0.619048 0.000000 -0.142857
v -0.523810 0.000000 -0.142857
v -0.428571 0.000000 -0.142857
v -0.333333 0.000000 -0.142857
v -0.238095 0.000000 -0.142857
v -0.142857 0.000000 -0.142857
v -0.047619 0.000000 -0.142857
v 0.047619 0.000000 -0.142857
v 0.142857 0.000000 -0.142857
v 0.238095 0.000000 -0.142857
v 0.333333 0.000000 -0.142857
v 0.428571 0.000000 -0.142857
v 0.523810 0.000000 -0.142857
v 0.619048 0.000000 -0.142857
v 0.714286 0.000000 -0.142857
v 0.809524 0.000000 -0.142857
v 0.904762 0.000000 -0.142857
v 1.000000 0.000000 -0.142857
v -1.000000 0.000000 -0.238095
v -0.904762 0.000000 -0.238095
v -0.809524 0.000000 -0.238095
v -0.714286 0.000000 -0.238095
v -0.619048 0.000000 -0.238095
v -0.523810 0.000000 -0.238095
v -0.428571 0.000000 -0.238095
v -0.333333 0.000000 -0.238095
v -0.238095 0.000000 -0.238095
v -0.142857 0.000000 -0.238095
v -0.047619 0.000000 -0.238095
v 0.047619 0.000000 -0.238095
v 0.142857 0.000000 -0.238095
v 0.238095 0.000000 -0.238095
v 0.333333 0.000000 -0.238095
v 0.428571 0.000000 -0.238095
v 0.523810 0.000000 -0.238095
v 0.619048 0.000000 -0.238095
v 0.714286 0.000000 -0.238095
v 0.809524 0.000000 -0.238095
v 0.904762 0.000000 -0.238095
v 1.000000 0.000000 -0.238095
v -1.000000 0.000000 -0.333333
v -0.904762 0.000000 -0.333333
v -0.809524 0.000000 -0.333333
v -0.714286 0.000000 -0.333333
v -0.619048 0.000000 -0.333333
v -0.523810 0.000000 -0.333333
v -0.428571 0.000000 -0.333333
v -0.333333 0.000000 -0.333333
v -0.238095 0.000000 -0.333333
v -0.142857 0.000000 -0.333333
v -0.047619 0.000000 -0.333333
v 0.047619 0.000000 -0.333333
v 0.142857 0.000000 -0.333333
v 0.238095 0.000000 -0.333333
v 0.333333 0.000000 -0.333333
v 0.428571 0.000000 -0.333333
v 0.523810 0.000000 -0.333333
v 0.619048 0.000000 -0.333333
v 0.714286 0.000000 -0.333333
v 0.809524 0.000000 -0.333333
v 0.904762 0.000000 -0.333333
v 1.000000 0.000000 -0.333333
v -1.000000 0.000000 -0.428571
v -0.904762 0.000000 -0.428571
v -0.809524 0.000000 -0.428571
v -0.714286 0.000000 -0.428571
v -0.619048 0.000000 -0.428571
v -0.523810 0.000000 -0.428571
v -0.428571 0.000000 -0.428571
v -0.333333 0.000000 -0.428571
v -0.238095 0.000000 -0.428571
v -0.142857 0.000000 -0.428571
v -0.047619 0.000000 -0.428571
v 0.047619 0.000000 -0.428571
v 0.142857 0.000000 -0.428571
v 0.238095 0.000000 -0.428571
v 0.333333 0.000000 -0.428571
v 0.428571 0.000000 -0.428571
v 0.523810 0.000000 -0.428571
v 0.619048 0.000000 -0.428571
v 0.714286 0.000000 -0.428571
v 0.809524 0.000000 -0.428571
v 0.904762 0.000000 -0.428571
v 1.000000 0.000000 -0.428571
v -1.000000 0.000000 -0.523810
v -0.904762 0.000000 -0.523810
v -0.809524 0.000000 -0.523810
v -0.714286 0.000000 -0.523810
v -0.619048 0.000000 -0.523810
v -0.523810 0.000000 -0.523810
v -0.428571 0.000000 -0.523810
v -0.333333 0.000000 -0.523810
v -0.238095 0.000000 -0.523810
v -0.142857 0.000000 -0.523810
v -0.047619 0.000000 -0.523810
v 0.047619 0.000000 -0.523810
v 0.142857 0.000000 -0.523810
v 0.238095 0.000000 -0.523810
v 0.333333 0.000000 -0.523810
v 0.428571 0.000000 -0.523810
v 0.523810 0.000000 -0.523810
v 0.619048 0.000000 -0.523810
v 0.714286 0.000000 -0.523810
v 0.809524 0.000000 -0.523810
v 0.904762 0.000000 -0.523810
v 1.000000 0.000000 -0.523810
v -1.000000 0.000000 -0.619048
v -0.904762 0.000000 -0.619048
v -0.809524 0.000000 -0.619048
v -0.714286 0.000000 -0.619048
v -0.619048 0.000000 -0.619048
v -0.523810 0.000000 -0.619048
v -0.428571 0.000000 -0.619048
v -0.333333 0.000000 -0.619048
v -0.238095 0.000000 -0.619048
v -0.142857 0.000000 -0.619048
v -0.047619 0.000000 -0.619048
v 0.047619 0.000000 -0.619048
v 0.142857 0.000000 -0.619048
v 0.238095 0.000000 -0.619048
v 0.333333 0.000000 -0.619048
v 0.428571 0.000000 -0.619048
v 0.523810 0.000000 -0.619048
v 0.619048 0.000000 -0.619048
v 0.714286 0.000000 -0.619048
v 0.809524 0.000000 -0.619048
v 0.904762 0.000000 -0.619048
v 1.000000 0.000000 -0.619048
v -1.000000 0.000000 -0.714286
v -0.904762 0.000000 -0.714286
v -0.809524 0.000000 -0.714286
v -0.714286 0.000000 -0.714286
v -0.619048 0.000000 -0.714286
v -0.523810 0.000000 -0.714286
v -0.428571 0.000000 -0.714286
v -0.333333 0.000000 -0.714286
v -0.238095 0.000000 -0.714286
v -0.142857 0.000000 -0.714286
v -0.047619 0.000000 -0.714286
v 0.047619 0.000000 -0.714286
v 0.142857 0.000000 -0.714286
v 0.238095 0.000000 -0.714286
v 0.333333 0.000000 -0.714286
v 0.428571 0.000000 -0.714286
v 0.523810 0.000000 -0.714286
v 0.619048 0.000000 -0.714286
v 0.714286 0.000000 -0.714286
v 0.809524 0.000000 -0.714286
v 0.904762 0.000000 -0.714286
v 1.000000 0.000000 -0.714286
v -1.000000 0.000000 -0.809524
v -0.904762 0.000000 -0.809524
v -0.809524 0.000000 -0.809524
v -0.714286 0.000000 -0.809524
v -0.619048 0.000000 -0.809524
v -0.523810 0.000000 -0.809524
v -0.428571 0.000000 -0.809524
v -0.333333 0.000000 -0.809524
v -0.238095 0.000000 -0.809524
v -0.142857 0.000000 -0.809524
v -0.047619 0.000000 -0.809524
v 0.047619 0.000000 -0.809524
v 0.142857 0.000000 -0.809524
v 0.238095 0.000000 -0.809524
v 0.333333 0.000000 -0.809524
v 0.428571 0.000000 -0.809524
v 0.523810 0.000000 -0.809524
v 0.619048 0.000000 -0.809524
v 0.714286 0.000000 -0.809524
v 0.809524 0.000000 -0.809524
v 0.904762 0.000000 -0.809524
v 1.000000 0.000000 -0.809524
v -1.000000 0.000000 -0.904762
v -0.904762 0.000000 -0.904762
v -0.809524 0.000000 -0.904762
v -0.714286 0.000000 -0.904762
v -0.619048 0.000000 -0.904762
v -0.523810 0.000000 -0.904762
v -0.428571 0.000000 -0.904762
v -0.333333 0.000000 -0.904762
v -0.238095 0.000000 -0.904762
v -0.142857 0.000000 -0.904762
v -0.047619 0.000000 -0.904762
v 0.047619 0.000000 -0.904762
v 0.142857 0.000000 -0.904762
v 0.238095 0.000000 -0.904762
v 0.333333 0.000000 -0.904762
v 0.428571 0.000000 -0.904762
v 0.523810 0.000000 -0.904762
v 0.619048 0.000000 -0.904762
v 0.714286 0.000000 -0.904762
v 0.809524 0.000000 -0.904762
v 0.904762 0.000000 -0.904762
v 1.000000 0.000000 -0.904762
v -1.000000 0.000000 -1.000000
v -0.904762 0.000000 -1.000000
v -0.809524 0.000000 -1.000000
v -0.714286 0.000000 -1.000000
v -0.619048 0.000000 -1.000000
v -0.523810 0.000000 -1.000000
v -0.428571 0.000000 -1.000000
v -0.333333 0.000000 -1.000000
v -0.238095 0.000000 -1.000000
v -0.142857 0.000000 -1.000000
v -0.047619 0.000000 -1.000000
v 0.047619 0.000000 -1.000000
v 0.142857 0.000000 -1.000000
v 0.238095 0.000000 -1.000000
v 0.333333 0.000000 -1.000000
v 0.428571 0.000000 -1.000000
v 0.523810 0.000000 -1.000000
v 0.619048 0.000000 -1.000000
v 0.714286 0.000000 -1.000000
v 0.809524 0.000000 -1.000000
v 0.904762 0.000000 -1.000000
v 1.000000 0.000000 -1.000000
vn -0.0000 1.0000 -0.0000
vt 0.000000 0.000000
vt 0.047619 0.000000
vt 0.047619 0.047619
vt 0.000000 0.047619
vt 0.095238 0.000000
vt 0.095238 0.047619
vt 0.142857 0.000000
vt 0.142857 0.047619
vt 0.190476 0.000000
vt 0.190476 0.047619
vt 0.238095 0.000000
vt 0.238095 0.047619
vt 0.285714 0.000000
vt 0.285714 0.047619
vt 0.333333 0.000000
vt 0.333333 0.047619
vt 0.380952 0.000000
vt 0.380952 0.047619
vt 0.428571 0.000000
vt 0.428571 0.047619
vt 0.476190 0.000000
vt 0.476190 0.047619
vt 0.523810 0.000000
vt 0.523810 0.047619
vt 0.571429 0.000000
vt 0.571429 0.047619
vt 0.619048 0.000000
vt 0.619048 0.047619
vt 0.666667 0.000000
vt 0.666667 0.047619
vt 0.714286 0.000000
vt 0.714286 0.047619
vt 0.761905 0.000000
vt 0.761905 0.047619
vt 0.809524 0.000000
vt 0.809524 0.047619
vt 0.857143 0.000000
vt 0.857143 0.047619
vt 0.904762 0.000000
vt 0.904762 0.047619
vt 0.952381 0.000000
vt 0.952381 0.047619
vt 1.000000 0.000000
vt 1.000000 0.047619
vt 0.047619 0.095238
vt 0.000000 0.095238
vt 0.095238 0.095238
vt 0.142857 0.095238
vt 0.190476 0.095238
vt 0.238095 0.095238
vt 0.285714 0.095238
vt 0.333333 0.095238
vt 0.380952 0.095238
vt 0.428571 0.095238
vt 0.476190 0.095238
vt 0.523810 0.095238
vt 0.571429 0.095238
vt 0.619048 0.095238
vt 0.666667 0.095238
vt 0.714286 0.095238
vt 0.761905 0.095238
vt 0.809524 0.095238
vt 0.857143 0.095238
vt 0.904762 0.095238
vt 0.952381 0.095238
vt 1.000000 0.095238
vt 0.047619 0.142857
vt 0.000000 0.142857
vt 0.095238 0.142857
vt 0.142857 0.142857
vt 0.190476 0.142857
vt 0.238095 0.142857
vt 0.285714 0.142857
vt 0.333333 0.142857
vt 0.380952 0.142857
vt 0.428571 0.142857
vt 0.476190 0.142857
vt 0.523810 0.142857
vt 0.571429 0.142857
vt 0.619048 0.142857
vt 0.666667 0.142857
vt 0.714286 0.142857
vt 0.761905 0.142857
vt 0.809524 0.142857
vt 0.857143 0.142857
vt 0.904762 0.142857
vt 0.952381 0.142857
vt 1.000000 0.142857
vt 0.047619 0.190476
vt 0.000000 0.190476
vt 0.095238 0.190476
vt 0.142857 0.190476
vt 0.190476 0.190476
vt 0.238095 0.190476
vt 0.285714 0.190476
vt 0.333333 0.190476
vt 0.380952 0.190476
vt 0.428571 0.190476
vt 0.476190 0.190476
vt 0.523810 0.190476
vt 0.571429 0.190476
vt 0.619048 0.190476
vt 0.666667 0.190476
vt 0.714286 0.190476
vt 0.761905 0.190476
vt 0.809524 0.190476
vt 0.857143 0.190476
vt 0.904762 0.190476
vt 0.952381 0.190476
vt 1.000000 0.190476
vt 0.047619 0.238095
vt 0.000000 0.238095
vt 0.095238 0.238095
vt 0.142857 0.238095
vt 0.190476 0.238095
vt 0.238095 0.238095
vt 0.285714 0.238095
vt 0.333333 0.238095
vt 0.380952 0.238095
vt 0.428571 0.238095
vt 0.476190 0.238095
vt 0.523810 0.238095
vt 0.571429 0.238095
vt 0.619048 0.238095
vt 0.666667 0.238095
vt 0.714286 0.238095
vt 0.761905 0.238095
vt 0.809524 0.238095
vt 0.857143 0.238095
vt 0.904762 0.238095
vt 0.952381 0.238095
vt 1.000000 0.238095
vt 0.047619 0.285714
vt 0.000000 0.285714
vt 0.095238 0.285714
vt 0.142857 0.285714
vt 0.190476 0.285714
vt 0.238095 0.285714
vt 0.285714 0.285714
vt 0.333333 0.285714
vt 0.380952 0.285714
vt 0.428571 0.285714
vt 0.476190 0.285714
vt 0.523810 0.285714
vt 0.571429 0.285714
vt 0.619048 0.285714
vt 0.666667 0.285714
vt 0.714286 0.285714
vt 0.761905 0.285714
vt 0.809524 0.285714
vt 0.857143 0.285714
vt 0.904762 0.285714
vt 0.952381 0.285714
vt 1.000000 0.285714
vt 0.047619 0.333333
vt 0.000000 0.333333
vt 0.095238 0.333333
vt 0.142857 0.333333
vt 0.190476 0.333333
vt 0.238095 0.333333
vt 0.285714 0.333333
vt 0.333333 0.333333
vt 0.380952 0.333333
vt 0.428571 0.333333
vt 0.476190 0.333333
vt 0.523810 0.333333
vt 0.571429 0.333333
vt 0.619048 0.333333
vt 0.666667 0.333333
vt 0.714286 0.333333
vt 0.761905 0.333333
vt 0.809524 0.333333
vt 0.857143 0.333333
vt 0.904762 0.333333
vt 0.952381 0.333333
vt 1.000000 0.333333
vt 0.047619 0.380952
vt 0.000000 0.380952
vt 0.095238 0.380952
vt 0.142857 0.380952
vt 0.190476 0.380952
vt 0.238095 0.380952
vt 0.285714 0.380952
vt 0.333333 0.380952
vt 0.380952 0.380952
vt 0.428571 0.380952
vt 0.476190 0.380952
vt 0.523810 0.380952
vt 0.571429 0.380952
vt 0.619048 0.380952
vt 0.666667 0.380952
vt 0.714286 0.380952
vt 0.761905 0.380952
vt 0.809524 0.380952
vt 0.857143 0.380952
vt 0.904762 0.380952
vt 0.952381 0.380952
vt 1.000000 0.380952
vt 0.047619 0.428571
vt 0.000000 0.428571
vt 0.095238 0.428571
vt 0.142857 0.428571
vt 0.190476 0.428571
vt 0.238095 0.428571
vt 0.285714 0.428571
vt 0.333333 0.428571
vt 0.380952 0.428571
vt 0.428571 0.428571
vt 0.476190 0.428571
vt 0.523810 0.428571
vt 0.571429 0.428571
vt 0.619048 0.428571
vt 0.666667 0.428571
vt 0.714286 0.428571
vt 0.761905 0.428571
vt 0.809524 0.428571
vt 0.857143 0.428571
vt 0.904762 0.428571
vt 0.952381 0.428571
vt 1.000000 0.428571
vt 0.047619 0.476190
vt 0.000000 0.476190
vt 0.095238 0.476190
vt 0.142857 0.476190
vt 0.190476 0.476190
vt 0.238095 0.476190
vt 0.285714 0.476190
vt 0.333333 0.476190
vt 0.380952 0.476190
vt 0.428571 0.476190
vt 0.476190 0.476190
vt 0.523810 0.476190
vt 0.571429 0.476190
vt 0.619048 0.476190
vt 0.666667 0.476190
vt 0.714286 0.476190
vt 0.761905 0.476190
vt 0.809524 0.476190
vt 0.857143 0.476190
vt 0.904762 0.476190
vt 0.952381 0.476190
vt 1.000000 0.476190
vt 0.047619 0.523810
vt 0.000000 0.523810
vt 0.095238 0.523810
vt 0.142857 0.523810
vt 0.190476 0.523810
vt 0.238095 0.523810
vt 0.285714 0.523810
vt 0.333333 0.523810
vt 0.380952 0.523810
vt 0.428571 0.523810
vt 0.476190 0.523810
vt 0.523810 0.523810
vt 0.571429 0.523810
vt 0.619048 0.523810
vt 0.666667 0.523810
vt 0.714286 0.523810
vt 0.761905 0.523810
vt 0.809524 0.523810
vt 0.857143 0.523810
vt 0.904762 0.523810
vt 0.952381 0.523810
vt 1.000000 0.523810
vt 0.047619 0.571429
vt 0.000000 0.571429
vt 0.095238 0.571429
vt 0.142857 0.571429
vt 0.190476 0.571429
vt 0.238095 0.571429
vt 0.285714 0.571429
vt 0.333333 0.571429
vt 0.380952 0.571429
vt 0.428571 0.571429
vt 0.476190 0.571429
vt 0.523810 0.571429
vt 0.571429 0.571429
vt 0.619048 0.571429
vt 0.666667 0.571429
vt 0.714286 0.571429
vt 0.761905 0.571429
vt 0.809524 0.571429
vt 0.857143 0.571429
vt 0.904762 0.571429
vt 0.952381 0.571429
vt 1.000000 0.571429
vt 0.047619 0.619048
vt 0.000000 0.619048
vt 0.095238 0.619048
vt 0.142857 0.619048
vt 0.190476 0.619048
vt 0.238095 0.619048
vt 0.285714 0.619048
vt 0.333333 0.619048
vt 0.380952 0.619048
vt 0.428571 0.619048
vt 0.476190 0.619048
vt 0.523810 0.619048
vt 0.571429 0.619048
vt 0.619048 0.619048
vt 0.666667 0.619048
vt 0.714286 0.619048
vt 0.761905 0.619048
vt 0.809524 0.619048
vt 0.857143 0.619048
vt 0.904762 0.619048
vt 0.952381 0.619048
vt 1.000000 0.619048
vt 0.047619 0.666667
vt 0.000000 0.666667
vt 0.095238 0.666667
vt 0.142857 0.666667
vt 0.190476 0.666667
vt 0.238095 0.666667
vt 0.285714 0.666667
vt 0.333333 0.666667
vt 0.380952 0.666667
vt 0.428571 0.666667
vt 0.476190 0.666667
vt 0.523810 0.666667
vt 0.571429 0.666667
vt 0.619048 0.666667
vt 0.666667 0.666667
vt 0.714286 0.666667
vt 0.761905 0.666667
vt 0.809524 0.666667
vt 0.857143 0.666667
vt 0.904762 0.666667
vt 0.952381 0.666667
vt 1.000000 0.666667
vt 0.047619 0.714286
vt 0.000000 0.714286
vt 0.095238 0.714286
vt 0.142857 0.714286
vt 0.190476 0.714286
vt 0.238095 0.714286
vt 0.285714 0.714286
vt 0.333333 0.714286
vt 0.380952 0.714286
vt 0.428571 0.714286
vt 0.476190 0.714286
vt 0.523810 0.714286
vt 0.571429 0.714286
vt 0.619048 0.714286
vt 0.666667 0.714286
vt 0.714286 0.714286
vt 0.761905 0.714286
vt 0.809524 0.714286
vt 0.857143 0.714286
vt 0.904762 0.714286
vt 0.952381 0.714286
vt 1.000000 0.714286
vt 0.047619 0.761905
vt 0.000000 0.761905
vt 0.095238 0.761905
vt 0.142857 0.761905
vt 0.190476 0.761905
vt 0.238095 0.761905
vt 0.285714 0.761905
vt 0.333333 0.761905
vt 0.380952 0.761905
vt 0.428571 0.761905
vt 0.476190 0.761905
vt 0.523810 0.761905
vt 0.571429 0.761905
vt 0.619048 0.761905
vt 0.666667 0.761905
vt 0.714286 0.761905
vt 0.761905 0.761905
vt 0.809524 0.761905
vt 0.857143 0.761905
vt 0.904762 0.761905
vt 0.952381 0.761905
vt 1.000000 0.761905
vt 0.047619 0.809524
vt 0.000000 0.809524
vt 0.095238 0.809524
vt 0.142857 0.809524
vt 0.190476 0.809524
vt 0.238095 0.809524
vt 0.285714 0.809524
vt 0.333333 0.809524
vt 0.380952 0.809524
vt 0.428571 0.809524
vt 0.476190 0.809524
vt 0.523810 0.809524
vt 0.571429 0.809524
vt 0.619048 0.809524
vt 0.666667 0.809524
vt 0.714286 0.809524
vt 0.761905 0.809524
vt 0.809524 0.809524
vt 0.857143 0.809524
vt 0.904762 0.809524
vt 0.952381 0.809524
vt 1.000000 0.809524
vt 0.047619 0.857143
vt 0.000000 0.857143
vt 0.095238 0.857143
vt 0.142857 0.857143
vt 0.190476 0.857143
vt 0.238095 0.857143
vt 0.285714 0.857143
vt 0.333333 0.857143
vt 0.380952 0.857143
vt 0.428571 0.857143
vt 0.476190 0.857143
vt 0.523810 0.857143
vt 0.571429 0.857143
vt 0.619048 0.857143
vt 0.666667 0.857143
vt 0.714286 0.857143
vt 0.761905 0.857143
vt 0.809524 0.857143
vt 0.857143 0.857143
vt 0.904762 0.857143
vt 0.952381 0.857143
vt 1.000000 0.857143
vt 0.047619 0.904762
vt 0.000000 0.904762
vt 0.095238 0.904762
vt 0.142857 0.904762
vt 0.190476 0.904762
vt 0.238095 0.904762
vt 0.285714 0.904762
vt 0.333333 0.904762
vt 0.380952 0.904762
vt 0.428571 0.904762
vt 0.476190 0.904762
vt 0.523810 0.904762
vt 0.571429 0.904762
vt 0.619048 0.904762
vt 0.666667 0.904762
vt 0.714286 0.904762
vt 0.761905 0.904762
vt 0.809524 0.904762
vt 0.857143 0.904762
vt 0.904762 0.904762
vt 0.952381 0.904762
vt 1.000000 0.904762
vt 0.047619 0.952381
vt 0.000000 0.952381
vt 0.095238 0.952381
vt 0.142857 0.952381
vt 0.190476 0.952381
vt 0.238095 0.952381
vt 0.285714 0.952381
vt 0.333333 0.952381
vt 0.380952 0.952381
vt 0.428571 0.952381
vt 0.476190 0.952381
vt 0.523810 0.952381
vt 0.571429 0.952381
vt 0.619048 0.952381
vt 0.666667 0.952381
vt 0.714286 0.952381
vt 0.761905 0.952381
vt 0.809524 0.952381
vt 0.857143 0.952381
vt 0.904762 0.952381
vt 0.952381 0.952381
vt 1.000000 0.952381
vt 0.047619 1.000000
vt 0.000000 1.000000
vt 0.095238 1.000000
vt 0.142857 1.000000
vt 0.190476 1.000000
vt 0.238095 1.000000
vt 0.285714 1.000000
vt 0.333333 1.000000
vt 0.380952 1.000000
vt 0.428571 1.000000
vt 0.476190 1.000000
vt 0.523810 1.000000
vt 0.571429 1.000000
vt 0.619048 1.000000
vt 0.666667 1.000000
vt 0.714286 1.000000
vt 0.761905 1.000000
vt 0.809524 1.000000
vt 0.857143 1.000000
vt 0.904762 1.000000
vt 0.952381 1.000000
vt 1.000000 1.000000
s 0
usemtl Grid_20x20_Mat
f 1/1/1 2/2/1 24/3/1 23/4/1
f 2/2/1 3/5/1 25/6/1 24/3/1
f 3/5/1 4/7/1 26/8/1 25/6/1
f 4/7/1 5/9/1 27/10/1 26/8/1
f 5/9/1 6/11/1 28/12/1 27/10/1
f 6/11/1 7/13/1 29/14/1 28/12/1
f 7/13/1 8/15/1 30/16/1 29/14/1
f 8/15/1 9/17/1 31/18/1 30/16/1
f 9/17/1 10/19/1 32/20/1 31/18/1
f 10/19/1 11/21/1 33/22/1 32/20/1
f 11/21/1 12/23/1 34/24/1 33/22/1
f 12/23/1 13/25/1 35/26/1 34/24/1
f 13/25/1 14/27/1 36/28/1 35/26/1
f 14/27/1 15/29/1 37/30/1 36/28/1
f 15/29/1 16/31/1 38/32/1 37/30/1
f 16/31/1 17/33/1 39/34/1 38/32/1
f 17/33/1 18/35/1 40/36/1 39/34/1
f 18/35/1 19/37/1 41/38/1 40/36/1
f 19/37/1 20/39/1 42/40/1 41/38/1
f 20/39/1 21/41/1 43/42/1 42/40/1
f 21/41/1 22/43/1 44/44/1 43/42/1
f 23/4/1 24/3/1 46/45/1 45/46/1
f 24/3/1 25/6/1 47/47/1 46/45/1
f 25/6/1 26/8/1 48/48/1 47/47/1
f 26/8/1 27/10/1 49/49/1 48/48/1
f 27/10/1 28/12/1 50/50/1 49/49/1
f 28/12/1 29/14/1 51/51/1 50/50/1
f 29/14/1 30/16/1 52/52/1 51/51/1
f 30/16/1 31/18/1 53/53/1 52/52/1
f 31/18/1 32/20/1 54/54/1 53/53/1
f 32/20/1 33/22/1 55/55/1 54/54/1
f 33/22/1 34/24/1 56/56/1 55/55/1
f 34/24/1 35/26/1 57/57/1 56/56/1
f 35/26/1 36/28/1 58/58/1 57/57/1
f 36/28/1 37/30/1 59/59/1 58/58/1
f 37/30/1 38/32/1 60/60/1 59/59/1
f 38/32/1 39/34/1 61/61/1 60/60/1
f 39/34/1 40/36/1 62/62/1 61/61/1
f 40/36/1 41/38/1 63/63/1 62/62/1
f 41/38/1 42/40/1 64/64/1 63/63/1
f 42/40/1 43/42/1 65/65/1 64/64/1
f 43/42/1 44/44/1 66/66/1 65/65/1
f 45/46/1 46/45/1 68/67/1 67/68/1
f 46/45/1 47/47/1 69/69/1 68/67/1
f 47/47/1 48/48/1 70/70/1 69/69/1
f 48/48/1 49/49/1 71/71/1 70/70/1
f 49/49/1 50/50/1 72/72/1 71/71/1
f 50/50/1 51/51/1 73/73/1 72/72/1
f 51/51/1 52/52/1 74/74/1 73/73/1
f 52/52/1 53/53/1 75/75/1 74/74/1
f 53/53/1 54/54/1 76/76/1 75/75/1
f 54/54/1 55/55/1 77/77/1 76/76/1
f 55/55/1 56/56/1 78/78/1 77/77/1
f 56/56/1 57/57/1 79/79/1 78/78/1
f 57/57/1 58/58/1 80/80/1 79/79/1
f 58/58/1 59/59/1 81/81/1 80/80/1
f 59/59/1 60/60/1 82/82/1 81/81/1
f 60/60/1 61/61/1 83/83/1 82/82/1
f 61/61/1 62/62/1 84/84/1 83/83/1
f 62/62/1 63/63/1 85/85/1 84/84/1
f 63/63/1 64/64/1 86/86/1 85/85/1
f 64/64/1 65/65/1 87/87/1 86/86/1
f 65/65/1 66/66/1 88/88/1 87/87/1
f 67/68/1 68/67/1 90/89/1 89/90/1
f 68/67/1 69/69/1 91/91/1 90/89/1
f 69/69/1 70/70/1 92/92/1 91/91/1
f 70/70/1 71/71/1 93/93/1 92/92/1
f 71/71/1 72/72/1 94/94/1 93/93/1
f 72/72/1 73/73/1 95/95/1 94/94/1
f 73/73/1 74/74/1 96/96/1 95/95/1
f 74/74/1 75/75/1 97/97/1 96/96/1
f 75/75/1 76/76/1 98/98/1 97/97/1
f 76/76/1 77/77/1 99/99/1 98/98/1
f 77/77/1 78/78/1 100/100/1 99/99/1
f 78/78/1 79/79/1 101/101/1 100/100/1
f 79/79/1 80/80/1 102/102/1 101/101/1
f 80/80/1 81/81/1 103/103/1 102/102/1
f 81/81/1 82/82/1 104/104/1 103/103/1
f 82/82/1 83/83/1 105/105/1 104/104/1
f 83/83/1 84/84/1 106/106/1 105/105/1
f 84/84/1 85/85/1 107/107/1 106/106/1
f 85/85/1 86/86/1 108/108/1 107/107/1
f 86/86/1 87/87/1 109/109/1 108/108/1
f 87/87/1 88/88/1 110/110/1 109/109/1
f 89/90/1 90/89/1 112/111/1 111/112/1
f 90/89/1 91/91/1 113/113/1 112/111/1
f 91/91/1 92/92/1 114/114/1 113/113/1
f 92/92/1 93/93/1 115/115/1 114/114/1
f 93/93/1 94/94/1 116/116/1 115/115/1
f 94/94/1 95/95/1 117/117/1 116/116/1
f 95/95/1 96/96/1 118/118/1 117/117/1
f 96/96/1 97/97/1 119/119/1 118/118/1
f 97/97/1 98/98/1 120/120/1 119/119/1
f 98/98/1 99/99/1 121/121/1 120/120/1
f 99/99/1 100/100/1 122/122/1 121/121/1
f 100/100/1 101/101/1 123/123/1 122/122/1
f 101/101/1 102/102/1 124/124/1 123/123/1
f 102/102/1 103/103/1 125/125/1 124/124/1
f 103/103/1 104/104/1 126/126/1 125/125/1
f 104/104/1 105/105/1 127/127/1 126/126/1
f 105/105/1 106/106/1 128/128/1 127/127/1
f 106/106/1 107/107/1 129/129/1 128/128/1
f 107/107/1 108/108/1 130/130/1 129/129/1
f 108/108/1 109/109/1 131/131/1 130/130/1
f 109/109/1 110/110/1 132/132/1 131/131/1
f 111/112/1 112/111/1 134/133/1 133/134/1
f 112/111/1 113/113/1 135/135/1 134/133/1
f 113/113/1 114/114/1 136/136/1 135/135/1
f 114/114/1 115/115/1 137/137/1 136/136/1
f 115/115/1 116/116/1 138/138/1 137/137/1
f 116/116/1 117/117/1 139/139/1 138/138/1
f 117/117/1 118/118/1 140/140/1 139/139/1
f 118/118/1 119/119/1 141/141/1 140/140/1
f 119/119/1 120/120/1 142/142/1 141/141/1
f 120/120/1 121/121/1 143/143/1 142/142/1
f 121/121/1 122/122/1 144/144/1 143/143/1
f 122/122/1 123/123/1 145/145/1 144/144/1
f 123/123/1 124/124/1 146/146/1 145/145/1
f 124/124/1 125/125/1 147/147/1 146/146/1
f 125/125/1 126/126/1 148/148/1 147/147/1
f 126/126/1 127/127/1 149/149/1 148/148/1
f 127/127/1 128/128/1 150/150/1 149/149/1
f 128/128/1 129/129/1 151/151/1 150/150/1
f 129/129/1 130/130/1 152/152/1 151/151/1
f 130/130/1 131/131/1 153/153/1 152/152/1
f 131/131/1 132/132/1 154/154/1 153/153/1
f 133/134/1 134/133/1 156/155/1 155/156/1
f 134/133/1 135/135/1 157/157/1 156/155/1
f 135/135/1 136/136/1 158/158/1 157/157/1
f 136/136/1 137/137/1 159/159/1 158/158/1
f 137/137/1 138/138/1 160/160/1 159/159/1
f 138/138/1 139/139/1 161/161/1 160/160/1
f 139/139/1 140/140/1 162/162/1 161/161/1
f 140/140/1 141/141/1 163/163/1 162/162/1
f 141/141/1 142/142/1 164/164/1 163/163/1
f 142/142/1 143/143/1 165/165/1 164/164/1
f 143/143/1 144/144/1 166/166/1 165/165/1
f 144/144/1 145/145/1 167/167/1 166/166/1
f 145/145/1 146/146/1 168/168/1 167/167/1
f 146/146/1 147/147/1 169/169/1 168/168/1
f 147/147/1 148/148/1 170/170/1 169/169/1
f 148/148/1 149/149/1 171/171/1 170/170/1
f 149/149/1 150/150/1 172/172/1 171/171/1
f 150/150/1 151/151/1 173/173/1 172/172/1
f 151/151/1 152/152/1 174/174/1 173/173/1
f 152/152/1 153/153/1 175/175/1 174/174/1
f 153/153/1 154/154/1 176/176/1 175/175/1
f 155/156/1 156/155/1 178/177/1 177/178/1
f 156/155/1 157/157/1 179/179/1 178/177/1
f 157/157/1 158/158/1 180/180/1 179/179/1
f 158/158/1 159/159/1 181/181/1 180/180/1
f 159/159/1 160/160/1 182/182/1 181/181/1
f 160/160/1 161/161/1 183/183/1 182/182/1
f 161/161/1 162/162/1 184/184/1 183/183/1
f 162/162/1 163/163/1 185/185/1 184/184/1
f 163/163/1 164/164/1 186/186/1 185/185/1
f 164/164/1 165/165/1 187/187/1 186/186/1
f 165/165/1 166/166/1 188/188/1 187/187/1
f 166/166/1 167/167/1 189/189/1 188/188/1
f 167/167/1 168/168/1 190/190/1 189/189/1
f 168/168/1 169/169/1 191/191/1 190/190/1
f 169/169/1 170/170/1 192/192/1 191/191/1
f 170/170/1 171/171/1 193/193/1 192/192/1
f 171/171/1 172/172/1 194/194/1 193/193/1
f 172/172/1 173/173/1 195/195/1 194/194/1
f 173/173/1 174/174/1 196/196/1 195/195/1
f 174/174/1 175/175/1 197/197/1 196/196/1
f 175/175/1 176/176/1 198/198/1 197/197/1
f 177/178/1 178/177/1 200/199/1 199/200/1
f 178/177/1 179/179/1 201/201/1 200/199/1
f 179/179/1 180/180/1 202/202/1 201/201/1
f 180/180/1 181/181/1 203/203/1 202/202/1
f 181/181/1 182/182/1 204/204/1 203/203/1
f 182/182/1 183/183/1 205/205/1 204/204/1
f 183/183/1 184/184/1 206/206/1 205/205/1
f 184/184/1 185/185/1 207/207/1 206/206/1
f 185/185/1 186/186/1 208/208/1 207/207/1
f 186/186/1 187/187/1 209/209/1 208/208/1
f 187/187/1 188/188/1 210/210/1 209/209/1
f 188/188/1 189/189/1 211/211/1 210/210/1
f 189/189/1 190/190/1 212/212/1 211/211/1
f 190/190/1 191/191/1 213/213/1 212/212/1
f 191/191/1 192/192/1 214/214/1 213/213/1
f 192/192/1 193/193/1 215/215/1 214/214/1
f 193/193/1 194/194/1 216/216/1 215/215/1
f 194/194/1 195/195/1 217/217/1 216/216/1
f 195/195/1 196/196/1 218/218/1 217/217/1
f 196/196/1 197/197/1 219/219/1 218/218/1
f 197/197/1 198/198/1 220/220/1 219/219/1
f 199/200/1 200/199/1 222/221/1 221/222/1
f 200/199/1 201/201/1 223/223/1 222/221/1
f 201/201/1 202/202/1 224/224/1 223/223/1
f 202/202/1 203/203/1 225/225/1 224/224/1
f 203/203/1 204/204/1 226/226/1 225/225/1
f 204/204/1 205/205/1 227/227/1 226/226/1
f 205/205/1 206/206/1 228/228/1 227/227/1
f 206/206/1 207/207/1 229/229/1 228/228/1
f 207/207/1 208/208/1 230/230/1 229/229/1
f 208/208/1 209/209/1 231/231/1 230/230/1
f 209/209/1 210/210/1 232/232/1 231/231/1
f 210/210/1 211/211/1 233/233/1 232/232/1
f 211/211/1 212/212/1 234/234/1 233/233/1
f 212/212/1 213/213/1 235/235/1 234/234/1
f 213/213/1 214/214/1 236/236/1 235/235/1
f 214/214/1 215/215/1 237/237/1 236/236/1
f 215/215/1 216/216/1 238/238/1 237/237/1
f 216/216/1 217/217/1 239/239/1 238/238/1
f 217/217/1 218/218/1 240/240/1 239/239/1
f 218/218/1 219/219/1 241/241/1 240/240/1
f 219/219/1 220/220/1 242/242/1 241/241/1
f 221/222/1 222/221/1 244/243/1 243/244/1
f 222/221/1 223/223/1 245/245/1 244/243/1
f 223/223/1 224/224/1 246/246/1 245/245/1
f 224/224/1 225/225/1 247/247/1 246/246/1
f 225/225/1 226/226/1 248/248/1 247/247/1
f 226/226/1 227/227/1 249/249/1 248/248/1
f 227/227/1 228/228/1 250/250/1 249/249/1
f 228/228/1 229/229/1 251/251/1 250/250/1
f 229/229/1 230/230/1 252/252/1 251/251/1
f 230/230/1 231/231/1 253/253/1 252/252/1
f 231/231/1 232/232/1 254/254/1 253/253/1
f 232/232/1 233/233/1 255/255/1 254/254/1
f 233/233/1 234/234/1 256/256/1 255/255/1
f 234/234/1 235/235/1 257/257/1 256/256/1
f 235/235/1 236/236/1 258/258/1 257/257/1
f 236/236/1 237/237/1 259/259/1 258/258/1
f 237/237/1 238/238/1 260/260/1 259/259/1
f 238/238/1 239/239/1 261/261/1 260/260/1
f 239/239/1 240/240/1 262/262/1 261/261/1
f 240/240/1 241/241/1 263/263/1 262/262/1
f 241/241/1 242/242/1 264/264/1 263/263/1
f 243/244/1 244/243/1 266/265/1 265/266/1
f 244/243/1 245/245/1 267/267/1 266/265/1
f 245/245/1 246/246/1 268/268/1 267/267/1
f 246/246/1 247/247/1 269/269/1 268/268/1
f 247/247/1 248/248/1 270/270/1 269/269/1
f 248/248/1 249/249/1 271/271/1 270/270/1
f 249/249/1 250/250/1 272/272/1 271/271/1
f 250/250/1 251/251/1 273/273/1 272/272/1
f 251/251/1 252/252/1 274/274/1 273/273/1
f 252/252/1 253/253/1 275/275/1 274/274/1
f 253/253/1 254/254/1 276/276/1 275/275/1
f 254/254/1 255/255/1 277/277/1 276/276/1
f 255/255/1 256/256/1 278/278/1 277/277/1
f 256/256/1 257/257/1 279/279/1 278/278/1
f 257/257/1 258/258/1 280/280/1 279/279/1
f 258/258/1 259/259/1 281/281/1 280/280/1
f 259/259/1 260/260/1 282/282/1 281/281/1
f 260/260/1 261/261/1 283/283/1 282/282/1
f 261/261/1 262/262/1 284/284/1 283/283/1
f 262/262/1 263/263/1 285/285/1 284/284/1
f 263/263/1 264/264/1 286/286/1 285/285/1
f 265/266/1 266/265/1 288/287/1 287/288/1
f 266/265/1 267/267/1 289/289/1 288/287/1
f 267/267/1 268/268/1 290/290/1 289/289/1
f 268/268/1 269/269/1 291/291/1 290/290/1
f 269/269/1 270/270/1 292/292/1 291/291/1
f 270/270/1 271/271/1 293/293/1 292/292/1
f 271/271/1 272/272/1 294/294/1 293/293/1
f 272/272/1 273/273/1 295/295/1 294/294/1
f 273/273/1 274/274/1 296/296/1 295/295/1
f 274/274/1 275/275/1 297/297/1 296/296/1
f 275/275/1 276/276/1 298/298/1 297/297/1
f 276/276/1 277/277/1 299/299/1 298/298/1
f 277/277/1 278/278/1 300/300/1 299/299/1
f 278/278/1 279/279/1 301/301/1 300/300/1
f 279/279/1 280/280/1 302/302/1 301/301/1
f 280/280/1 281/281/1 303/303/1 302/302/1
f 281/281/1 282/282/1 304/304/1 303/303/1
f 282/282/1 283/283/1 305/305/1 304/304/1
f 283/283/1 284/284/1 306/306/1 305/305/1
f 284/284/1 285/285/1 307/307/1 306/306/1
f 285/285/1 286/286/1 308/308/1 307/307/1
f 287/288/1 288/287/1 310/309/1 309/310/1
f 288/287/1 289/289/1 311/311/1 310/309/1
f 289/289/1 290/290/1 312/312/1 311/311/1
f 290/290/1 291/291/1 313/313/1 312/312/1
f 291/291/1 292/292/1 314/314/1 313/313/1
f 292/292/1 293/293/1 315/315/1 314/314/1
f 293/293/1 294/294/1 316/316/1 315/315/1
f 294/294/1 295/295/1 317/317/1 316/316/1
f 295/295/1 296/296/1 318/318/1 317/317/1
f 296/296/1 297/297/1 319/319/1 318/318/1
f 297/297/1 298/298/1 320/320/1 319/319/1
f 298/298/1 299/299/1 321/321/1 320/320/1
f 299/299/1 300/300/1 322/322/1 321/321/1
f 300/300/1 301/301/1 323/323/1 322/322/1
f 301/301/1 302/302/1 324/324/1 323/323/1
f 302/302/1 303/303/1 325/325/1 324/324/1
f 303/303/1 304/304/1 326/326/1 325/325/1
f 304/304/1 305/305/1 327/327/1 326/326/1
f 305/305/1 306/306/1 328/328/1 327/327/1
f 306/306/1 307/307/1 329/329/1 328/328/1
f 307/307/1 308/308/1 330/330/1 329/329/1
f 309/310/1 310/309/1 332/331/1 331/332/1
f 310/309/1 311/311/1 333/333/1 332/331/1
f 311/311/1 312/312/1 334/334/1 333/333/1
f 312/312/1 313/313/1 335/335/1 334/334/1
f 313/313/1 314/314/1 336/336/1 335/335/1
f 314/314/1 315/315/1 337/337/1 336/336/1
f 315/315/1 316/316/1 338/338/1 337/337/1
f 316/316/1 317/317/1 339/339/1 338/338/1
f 317/317/1 318/318/1 340/340/1 339/339/1
f 318/318/1 319/319/1 341/341/1 340/340/1
f 319/319/1 320/320/1 342/342/1 341/341/1
f 320/320/1 321/321/1 343/343/1 342/342/1
f 321/321/1 322/322/1 344/344/1 343/343/1
f 322/322/1 323/323/1 345/345/1 344/344/1
f 323/323/1 324/324/1 346/346/1 345/345/1
f 324/324/1 325/325/1 347/347/1 346/346/1
f 325/325/1 326/326/1 348/348/1 347/347/1
f 326/326/1 327/327/1 349/349/1 348/348/1
f 327/327/1 328/328/1 350/350/1 349/349/1
f 328/328/1 329/329/1 351/351/1 350/350/1
f 329/329/1 330/330/1 352/352/1 351/351/1
f 331/332/1 332/331/1 354/353/1 353/354/1
f 332/331/1 333/333/1 355/355/1 354/353/1
f 333/333/1 334/334/1 356/356/1 355/355/1
f 334/334/1 335/335/1 357/357/1 356/356/1
f 335/335/1 336/336/1 358/358/1 357/357/1
f 336/336/1 337/337/1 359/359/1 358/358/1
f 337/337/1 338/338/1 360/360/1 359/359/1
f 338/338/1 339/339/1 361/361/1 360/360/1
f 339/339/1 340/340/1 362/362/1 361/361/1
f 340/340/1 341/341/1 363/363/1 362/362/1
f 341/341/1 342/342/1 364/364/1 363/363/1
f 342/342/1 343/343/1 365/365/1 364/364/1
f 343/343/1 344/344/1 366/366/1 365/365/1
f 344/344/1 345/345/1 367/367/1 366/366/1
f 345/345/1 346/346/1 368/368/1 367/367/1
f 346/346/1 347/347/1 369/369/1 368/368/1
f 347/347/1 348/348/1 370/370/1 369/369/1
f 348/348/1 349/349/1 371/371/1 370/370/1
f 349/349/1 350/350/1 372/372/1 371/371/1
f 350/350/1 351/351/1 373/373/1 372/372/1
f 351/351/1 352/352/1 374/374/1 373/373/1
f 353/354/1 354/353/1 376/375/1 375/376/1
f 354/353/1 355/355/1 377/377/1 376/375/1
f 355/355/1 356/356/1 378/378/1 377/377/1
f 356/356/1 357/357/1 379/379/1 378/378/1
f 357/357/1 358/358/1 380/380/1 379/379/1
f 358/358/1 359/359/1 381/381/1 380/380/1
f 359/359/1 360/360/1 382/382/1 381/381/1
f 360/360/1 361/361/1 383/383/1 382/382/1
f 361/361/1 362/362/1 384/384/1 383/383/1
f 362/362/1 363/363/1 385/385/1 384/384/1
f 363/363/1 364/364/1 386/386/1 385/385/1
f 364/364/1 365/365/1 387/387/1 386/386/1
f 365/365/1 366/366/1 388/388/1 387/387/1
f 366/366/1 367/367/1 389/389/1 388/388/1
f 367/367/1 368/368/1 390/390/1 389/389/1
f 368/368/1 369/369/1 391/391/1 390/390/1
f 369/369/1 370/370/1 392/392/1 391/391/1
f 370/370/1 371/371/1 393/393/1 392/392/1
f 371/371/1 372/372/1 394/394/1 393/393/1
f 372/372/1 373/373/1 395/395/1 394/394/1
f 373/373/1 374/374/1 396/396/1 395/395/1
f 375/376/1 376/375/1 398/397/1 397/398/1
f 376/375/1 377/377/1 399/399/1 398/397/1
f 377/377/1 378/378/1 400/400/1 399/399/1
f 378/378/1 379/379/1 401/401/1 400/400/1
f 379/379/1 380/380/1 402/402/1 401/401/1
f 380/380/1 381/381/1 403/403/1 402/402/1
f 381/381/1 382/382/1 404/404/1 403/403/1
f 382/382/1 383/383/1 405/405/1 404/404/1
f 383/383/1 384/384/1 406/406/1 405/405/1
f 384/384/1 385/385/1 407/407/1 406/406/1
f 385/385/1 386/386/1 408/408/1 407/407/1
f 386/386/1 387/387/1 409/409/1 408/408/1
f 387/387/1 388/388/1 410/410/1 409/409/1
f 388/388/1 389/389/1 411/411/1 410/410/1
f 389/389/1 390/390/1 412/412/1 411/411/1
f 390/390/1 391/391/1 413/413/1 412/412/1
f 391/391/1 392/392/1 414/414/1 413/413/1
f 392/392/1 393/393/1 415/415/1 414/414/1
f 393/393/1 394/394/1 416/416/1 415/415/1
f 394/394/1 395/395/1 417/417/1 416/416/1
f 395/395/1 396/396/1 418/418/1 417/417/1
f 397/398/1 398/397/1 420/419/1 419/420/1
f 398/397/1 399/399/1 421/421/1 420/419/1
f 399/399/1 400/400/1 422/422/1 421/421/1
f 400/400/1 401/401/1 423/423/1 422/422/1
f 401/401/1 402/402/1 424/424/1 423/423/1
f 402/402/1 403/403/1 425/425/1 424/424/1
f 403/403/1 404/404/1 426/426/1 425/425/1
f 404/404/1 405/405/1 427/427/1 426/426/1
f 405/405/1 406/406/1 428/428/1 427/427/1
f 406/406/1 407/407/1 429/429/1 428/428/1
f 407/407/1 408/408/1 430/430/1 429/429/1
f 408/408/1 409/409/1 431/431/1 430/430/1
f 409/409/1 410/410/1 432/432/1 431/431/1
f 410/410/1 411/411/1 433/433/1 432/432/1
f 411/411/1 412/412/1 434/434/1 433/433/1
f 412/412/1 413/413/1 435/435/1 434/434/1
f 413/413/1 414/414/1 436/436/1 435/435/1
f 414/414/1 415/415/1 437/437/1 436/436/1
f 415/415/1 416/416/1 438/438/1 437/437/1
f 416/416/1 417/417/1 439/439/1 438/438/1
f 417/417/1 418/418/1 440/440/1 439/439/1
f 419/420/1 420/419/1 442/441/1 441/442/1
f 420/419/1 421/421/1 443/443/1 442/441/1
f 421/421/1 422/422/1 444/444/1 443/443/1
f 422/422/1 423/423/1 445/445/1 444/444/1
f 423/423/1 424/424/1 446/446/1 445/445/1
f 424/424/1 425/425/1 447/447/1 446/446/1
f 425/425/1 426/426/1 448/448/1 447/447/1
f 426/426/1 427/427/1 449/449/1 448/448/1
f 427/427/1 428/428/1 450/450/1 449/449/1
f 428/428/1 429/429/1 451/451/1 450/450/1
f 429/429/1 430/430/1 452/452/1 451/451/1
f 430/430/1 431/431/1 453/453/1 452/452/1
f 431/431/1 432/432/1 454/454/1 453/453/1
f 432/432/1 433/433/1 455/455/1 454/454/1
f 433/433/1 434/434/1 456/456/1 455/455/1
f 434/434/1 435/435/1 457/457/1 456/456/1
f 435/435/1 436/436/1 458/458/1 457/457/1
f 436/436/1 437/437/1 459/459/1 458/458/1
f 437/437/1 438/438/1 460/460/1 459/459/1
f 438/438/1 439/439/1 461/461/1 460/460/1
f 439/439/1 440/440/1 462/462/1 461/461/1
f 441/442/1 442/441/1 464/463/1 463/464/1
f 442/441/1 443/443/1 465/465/1 464/463/1
f 443/443/1 444/444/1 466/466/1 465/465/1
f 444/444/1 445/445/1 467/467/1 466/466/1
f 445/445/1 446/446/1 468/468/1 467/467/1
f 446/446/1 447/447/1 469/469/1 468/468/1
f 447/447/1 448/448/1 470/470/1 469/469/1
f 448/448/1 449/449/1 471/471/1 470/470/1
f 449/449/1 450/450/1 472/472/1 471/471/1
f 450/450/1 451/451/1 473/473/1 472/472/1
f 451/451/1 452/452/1 474/474/1 473/473/1
f 452/452/1 453/453/1 475/475/1 474/474/1
f 453/453/1 454/454/1 476/476/1 475/475/1
f 454/454/1 455/455/1 477/477/1 476/476/1
f 455/455/1 456/456/1 478/478/1 477/477/1
f 456/456/1 457/457/1 479/479/1 478/478/1
f 457/457/1 458/458/1 480/480/1 479/479/1
f 458/458/1 459/459/1 481/481/1 480/480/1
f 459/459/1 460/460/1 482/482/1 481/481/1
f 460/460/1 461/461/1 483/483/1 482/482/1
f 461/461/1 462/462/1 484/484/1 483/483/1
