# 3ds Max Wavefront OBJ Exporter v0.97b - (c)2007 guruware
# File Created: 19.07.2013 21:25:14

mtllib plane grid.mtl

#
# object Cylinder001
#

v  99.6629 0.0000 -0.0000
v  99.6629 -0.2500 0.4330
v  99.6629 -0.2500 -0.4330
v  99.6629 0.5000 -0.0000
v  59.6629 -0.2500 -0.4330
v  59.6629 0.5000 -0.0000
v  59.6629 -0.2500 0.4330
v  19.6629 -0.2500 -0.4330
v  19.6629 0.5000 -0.0000
v  19.6629 -0.2500 0.4330
v  -20.3372 -0.2500 -0.4330
v  -20.3372 0.5000 -0.0000
v  -20.3372 -0.2500 0.4330
v  -60.3371 -0.2500 -0.4330
v  -60.3371 0.5000 -0.0000
v  -60.3371 -0.2500 0.4330
v  -100.3371 -0.2500 -0.4330
v  -100.3371 0.5000 -0.0000
v  -100.3371 -0.2500 0.4330
v  -100.3371 -0.0000 -0.0000
# 20 vertices

vn 1.0000 0.0000 -0.0000
vn -0.0000 1.0000 -0.0000
vn 0.0000 -0.5000 -0.8660
vn 0.0000 -0.5000 0.8660
vn -0.0000 1.0000 0.0000
vn -1.0000 -0.0000 -0.0000
# 6 vertex normals

vt 0.2500 0.4330 0.0000
vt 0.0000 0.8660 0.0000
vt 0.0000 0.0000 0.0000
vt 0.7500 0.4330 0.0000
vt -0.7854 0.0000 1.0000
vt 0.2618 0.0000 1.0000
vt 0.2618 40.0000 1.0000
vt -0.7854 40.0000 1.0000
vt 1.3090 0.0000 1.0000
vt 1.3090 40.0000 1.0000
vt 2.3562 0.0000 1.0000
vt 2.3562 40.0000 1.0000
vt 0.2618 80.0000 1.0000
vt -0.7854 80.0000 1.0000
vt 1.3090 80.0000 1.0000
vt 2.3562 80.0000 1.0000
vt 0.2618 120.0000 1.0000
vt -0.7854 120.0000 1.0000
vt 1.3090 120.0000 1.0000
vt 2.3562 120.0000 1.0000
vt 0.2618 160.0000 1.0000
vt -0.7854 160.0000 1.0000
vt 1.3090 160.0000 1.0000
vt 2.3562 160.0000 1.0000
vt 0.2618 200.0000 1.0000
vt -0.7854 200.0000 1.0000
vt 1.3090 200.0000 1.0000
vt 2.3562 200.0000 1.0000
# 28 texture coords

g Cylinder001
usemtl wire_135110008
s 1
f 1/1/1 2/2/1 3/3/1 4/4/1 
f 1/1/1 4/4/1 2/2/1 
s 8
f 4/5/2 3/6/3 5/7/3 6/8/2 
f 3/6/3 2/9/4 7/10/4 5/7/3 
f 2/9/4 4/11/2 6/12/2 7/10/4 
f 6/8/2 5/7/3 8/13/3 9/14/2 
f 5/7/3 7/10/4 10/15/4 8/13/3 
f 7/10/4 6/12/2 9/16/2 10/15/4 
f 9/14/2 8/13/3 11/17/3 12/18/2 
f 8/13/3 10/15/4 13/19/4 11/17/3 
f 10/15/4 9/16/2 12/20/2 13/19/4 
f 12/18/2 11/17/3 14/21/3 15/22/2 
f 11/17/3 13/19/4 16/23/4 14/21/3 
f 13/19/4 12/20/2 15/24/2 16/23/4 
f 15/22/2 14/21/3 17/25/3 18/26/5 
f 14/21/3 16/23/4 19/27/4 17/25/3 
f 16/23/4 15/24/2 18/28/5 19/27/4 
s 1
f 20/1/6 19/3/6 18/4/6 17/2/6 
f 20/1/6 17/2/6 19/3/6 
# 17 polygons - 2 triangles

#
# object Cylinder002
#

v  99.6629 0.0000 -19.5712
v  99.6629 -0.2500 -19.1382
v  99.6629 -0.2500 -20.0042
v  99.6629 0.5000 -19.5712
v  59.6629 -0.2500 -20.0042
v  59.6629 0.5000 -19.5712
v  59.6629 -0.2500 -19.1382
v  19.6629 -0.2500 -20.0042
v  19.6629 0.5000 -19.5712
v  19.6629 -0.2500 -19.1382
v  -20.3372 -0.2500 -20.0042
v  -20.3372 0.5000 -19.5712
v  -20.3372 -0.2500 -19.1382
v  -60.3371 -0.2500 -20.0042
v  -60.3371 0.5000 -19.5712
v  -60.3371 -0.2500 -19.1382
v  -100.3371 -0.2500 -20.0042
v  -100.3371 0.5000 -19.5712
v  -100.3371 -0.2500 -19.1382
v  -100.3371 -0.0000 -19.5712
# 20 vertices

vn 1.0000 0.0000 -0.0000
vn -0.0000 1.0000 -0.0000
vn 0.0000 -0.5000 -0.8660
vn 0.0000 -0.5000 0.8660
vn -0.0000 1.0000 0.0000
vn -1.0000 -0.0000 -0.0000
# 6 vertex normals

vt 0.2500 0.4330 0.0000
vt 0.0000 0.8660 0.0000
vt 0.0000 0.0000 0.0000
vt 0.7500 0.4330 0.0000
vt -0.7854 0.0000 1.0000
vt 0.2618 0.0000 1.0000
vt 0.2618 40.0000 1.0000
vt -0.7854 40.0000 1.0000
vt 1.3090 0.0000 1.0000
vt 1.3090 40.0000 1.0000
vt 2.3562 0.0000 1.0000
vt 2.3562 40.0000 1.0000
vt 0.2618 80.0000 1.0000
vt -0.7854 80.0000 1.0000
vt 1.3090 80.0000 1.0000
vt 2.3562 80.0000 1.0000
vt 0.2618 120.0000 1.0000
vt -0.7854 120.0000 1.0000
vt 1.3090 120.0000 1.0000
vt 2.3562 120.0000 1.0000
vt 0.2618 160.0000 1.0000
vt -0.7854 160.0000 1.0000
vt 1.3090 160.0000 1.0000
vt 2.3562 160.0000 1.0000
vt 0.2618 200.0000 1.0000
vt -0.7854 200.0000 1.0000
vt 1.3090 200.0000 1.0000
vt 2.3562 200.0000 1.0000
# 28 texture coords

g Cylinder002
usemtl wire_135110008
s 1
f 21/29/7 22/30/7 23/31/7 24/32/7 
f 21/29/7 24/32/7 22/30/7 
s 8
f 24/33/8 23/34/9 25/35/9 26/36/8 
f 23/34/9 22/37/10 27/38/10 25/35/9 
f 22/37/10 24/39/8 26/40/8 27/38/10 
f 26/36/8 25/35/9 28/41/9 29/42/8 
f 25/35/9 27/38/10 30/43/10 28/41/9 
f 27/38/10 26/40/8 29/44/8 30/43/10 
f 29/42/8 28/41/9 31/45/9 32/46/8 
f 28/41/9 30/43/10 33/47/10 31/45/9 
f 30/43/10 29/44/8 32/48/8 33/47/10 
f 32/46/8 31/45/9 34/49/9 35/50/8 
f 31/45/9 33/47/10 36/51/10 34/49/9 
f 33/47/10 32/48/8 35/52/8 36/51/10 
f 35/50/8 34/49/9 37/53/9 38/54/11 
f 34/49/9 36/51/10 39/55/10 37/53/9 
f 36/51/10 35/52/8 38/56/11 39/55/10 
s 1
f 40/29/12 39/31/12 38/32/12 37/30/12 
f 40/29/12 37/30/12 39/31/12 
# 17 polygons - 2 triangles

#
# object Cylinder003
#

v  99.6629 0.0000 -39.1424
v  99.6629 -0.2500 -38.7094
v  99.6629 -0.2500 -39.5755
v  99.6629 0.5000 -39.1424
v  59.6629 -0.2500 -39.5755
v  59.6629 0.5000 -39.1424
v  59.6629 -0.2500 -38.7094
v  19.6629 -0.2500 -39.5755
v  19.6629 0.5000 -39.1424
v  19.6629 -0.2500 -38.7094
v  -20.3372 -0.2500 -39.5755
v  -20.3372 0.5000 -39.1424
v  -20.3372 -0.2500 -38.7094
v  -60.3371 -0.2500 -39.5755
v  -60.3371 0.5000 -39.1424
v  -60.3371 -0.2500 -38.7094
v  -100.3371 -0.2500 -39.5755
v  -100.3371 0.5000 -39.1424
v  -100.3371 -0.2500 -38.7094
v  -100.3371 -0.0000 -39.1424
# 20 vertices

vn 1.0000 0.0000 -0.0000
vn -0.0000 1.0000 -0.0000
vn 0.0000 -0.5000 -0.8660
vn 0.0000 -0.5000 0.8660
vn -0.0000 1.0000 0.0000
vn -1.0000 -0.0000 -0.0000
# 6 vertex normals

vt 0.2500 0.4330 0.0000
vt 0.0000 0.8660 0.0000
vt 0.0000 0.0000 0.0000
vt 0.7500 0.4330 0.0000
vt -0.7854 0.0000 1.0000
vt 0.2618 0.0000 1.0000
vt 0.2618 40.0000 1.0000
vt -0.7854 40.0000 1.0000
vt 1.3090 0.0000 1.0000
vt 1.3090 40.0000 1.0000
vt 2.3562 0.0000 1.0000
vt 2.3562 40.0000 1.0000
vt 0.2618 80.0000 1.0000
vt -0.7854 80.0000 1.0000
vt 1.3090 80.0000 1.0000
vt 2.3562 80.0000 1.0000
vt 0.2618 120.0000 1.0000
vt -0.7854 120.0000 1.0000
vt 1.3090 120.0000 1.0000
vt 2.3562 120.0000 1.0000
vt 0.2618 160.0000 1.0000
vt -0.7854 160.0000 1.0000
vt 1.3090 160.0000 1.0000
vt 2.3562 160.0000 1.0000
vt 0.2618 200.0000 1.0000
vt -0.7854 200.0000 1.0000
vt 1.3090 200.0000 1.0000
vt 2.3562 200.0000 1.0000
# 28 texture coords

g Cylinder003
usemtl wire_135110008
s 1
f 41/57/13 42/58/13 43/59/13 44/60/13 
f 41/57/13 44/60/13 42/58/13 
s 8
f 44/61/14 43/62/15 45/63/15 46/64/14 
f 43/62/15 42/65/16 47/66/16 45/63/15 
f 42/65/16 44/67/14 46/68/14 47/66/16 
f 46/64/14 45/63/15 48/69/15 49/70/14 
f 45/63/15 47/66/16 50/71/16 48/69/15 
f 47/66/16 46/68/14 49/72/14 50/71/16 
f 49/70/14 48/69/15 51/73/15 52/74/14 
f 48/69/15 50/71/16 53/75/16 51/73/15 
f 50/71/16 49/72/14 52/76/14 53/75/16 
f 52/74/14 51/73/15 54/77/15 55/78/14 
f 51/73/15 53/75/16 56/79/16 54/77/15 
f 53/75/16 52/76/14 55/80/14 56/79/16 
f 55/78/14 54/77/15 57/81/15 58/82/17 
f 54/77/15 56/79/16 59/83/16 57/81/15 
f 56/79/16 55/80/14 58/84/17 59/83/16 
s 1
f 60/57/18 59/59/18 58/60/18 57/58/18 
f 60/57/18 57/58/18 59/59/18 
# 17 polygons - 2 triangles

#
# object Cylinder004
#

v  99.6629 0.0000 -58.7137
v  99.6629 -0.2500 -58.2806
v  99.6629 -0.2500 -59.1467
v  99.6629 0.5000 -58.7137
v  59.6629 -0.2500 -59.1467
v  59.6629 0.5000 -58.7137
v  59.6629 -0.2500 -58.2806
v  19.6629 -0.2500 -59.1467
v  19.6629 0.5000 -58.7137
v  19.6629 -0.2500 -58.2806
v  -20.3372 -0.2500 -59.1467
v  -20.3372 0.5000 -58.7137
v  -20.3372 -0.2500 -58.2806
v  -60.3371 -0.2500 -59.1467
v  -60.3371 0.5000 -58.7137
v  -60.3371 -0.2500 -58.2806
v  -100.3371 -0.2500 -59.1467
v  -100.3371 0.5000 -58.7137
v  -100.3371 -0.2500 -58.2806
v  -100.3371 -0.0000 -58.7137
# 20 vertices

vn 1.0000 0.0000 -0.0000
vn -0.0000 1.0000 -0.0000
vn 0.0000 -0.5000 -0.8660
vn 0.0000 -0.5000 0.8660
vn -0.0000 1.0000 0.0000
vn -1.0000 -0.0000 -0.0000
# 6 vertex normals

vt 0.2500 0.4330 0.0000
vt 0.0000 0.8660 0.0000
vt 0.0000 0.0000 0.0000
vt 0.7500 0.4330 0.0000
vt -0.7854 0.0000 1.0000
vt 0.2618 0.0000 1.0000
vt 0.2618 40.0000 1.0000
vt -0.7854 40.0000 1.0000
vt 1.3090 0.0000 1.0000
vt 1.3090 40.0000 1.0000
vt 2.3562 0.0000 1.0000
vt 2.3562 40.0000 1.0000
vt 0.2618 80.0000 1.0000
vt -0.7854 80.0000 1.0000
vt 1.3090 80.0000 1.0000
vt 2.3562 80.0000 1.0000
vt 0.2618 120.0000 1.0000
vt -0.7854 120.0000 1.0000
vt 1.3090 120.0000 1.0000
vt 2.3562 120.0000 1.0000
vt 0.2618 160.0000 1.0000
vt -0.7854 160.0000 1.0000
vt 1.3090 160.0000 1.0000
vt 2.3562 160.0000 1.0000
vt 0.2618 200.0000 1.0000
vt -0.7854 200.0000 1.0000
vt 1.3090 200.0000 1.0000
vt 2.3562 200.0000 1.0000
# 28 texture coords

g Cylinder004
usemtl wire_135110008
s 1
f 61/85/19 62/86/19 63/87/19 64/88/19 
f 61/85/19 64/88/19 62/86/19 
s 8
f 64/89/20 63/90/21 65/91/21 66/92/20 
f 63/90/21 62/93/22 67/94/22 65/91/21 
f 62/93/22 64/95/20 66/96/20 67/94/22 
f 66/92/20 65/91/21 68/97/21 69/98/20 
f 65/91/21 67/94/22 70/99/22 68/97/21 
f 67/94/22 66/96/20 69/100/20 70/99/22 
f 69/98/20 68/97/21 71/101/21 72/102/20 
f 68/97/21 70/99/22 73/103/22 71/101/21 
f 70/99/22 69/100/20 72/104/20 73/103/22 
f 72/102/20 71/101/21 74/105/21 75/106/20 
f 71/101/21 73/103/22 76/107/22 74/105/21 
f 73/103/22 72/104/20 75/108/20 76/107/22 
f 75/106/20 74/105/21 77/109/21 78/110/23 
f 74/105/21 76/107/22 79/111/22 77/109/21 
f 76/107/22 75/108/20 78/112/23 79/111/22 
s 1
f 80/85/24 79/87/24 78/88/24 77/86/24 
f 80/85/24 77/86/24 79/87/24 
# 17 polygons - 2 triangles

#
# object Cylinder005
#

v  99.6629 0.0000 -78.2849
v  99.6629 -0.2500 -77.8519
v  99.6629 -0.2500 -78.7179
v  99.6629 0.5000 -78.2849
v  59.6629 -0.2500 -78.7179
v  59.6629 0.5000 -78.2849
v  59.6629 -0.2500 -77.8519
v  19.6629 -0.2500 -78.7179
v  19.6629 0.5000 -78.2849
v  19.6629 -0.2500 -77.8519
v  -20.3372 -0.2500 -78.7179
v  -20.3372 0.5000 -78.2849
v  -20.3372 -0.2500 -77.8519
v  -60.3371 -0.2500 -78.7179
v  -60.3371 0.5000 -78.2849
v  -60.3371 -0.2500 -77.8519
v  -100.3371 -0.2500 -78.7179
v  -100.3371 0.5000 -78.2849
v  -100.3371 -0.2500 -77.8519
v  -100.3371 -0.0000 -78.2849
# 20 vertices

vn 1.0000 0.0000 -0.0000
vn -0.0000 1.0000 -0.0000
vn 0.0000 -0.5000 -0.8660
vn 0.0000 -0.5000 0.8660
vn -0.0000 1.0000 0.0000
vn -1.0000 -0.0000 -0.0000
# 6 vertex normals

vt 0.2500 0.4330 0.0000
vt 0.0000 0.8660 0.0000
vt 0.0000 0.0000 0.0000
vt 0.7500 0.4330 0.0000
vt -0.7854 0.0000 1.0000
vt 0.2618 0.0000 1.0000
vt 0.2618 40.0000 1.0000
vt -0.7854 40.0000 1.0000
vt 1.3090 0.0000 1.0000
vt 1.3090 40.0000 1.0000
vt 2.3562 0.0000 1.0000
vt 2.3562 40.0000 1.0000
vt 0.2618 80.0000 1.0000
vt -0.7854 80.0000 1.0000
vt 1.3090 80.0000 1.0000
vt 2.3562 80.0000 1.0000
vt 0.2618 120.0000 1.0000
vt -0.7854 120.0000 1.0000
vt 1.3090 120.0000 1.0000
vt 2.3562 120.0000 1.0000
vt 0.2618 160.0000 1.0000
vt -0.7854 160.0000 1.0000
vt 1.3090 160.0000 1.0000
vt 2.3562 160.0000 1.0000
vt 0.2618 200.0000 1.0000
vt -0.7854 200.0000 1.0000
vt 1.3090 200.0000 1.0000
vt 2.3562 200.0000 1.0000
# 28 texture coords

g Cylinder005
usemtl wire_135110008
s 1
f 81/113/25 82/114/25 83/115/25 84/116/25 
f 81/113/25 84/116/25 82/114/25 
s 8
f 84/117/26 83/118/27 85/119/27 86/120/26 
f 83/118/27 82/121/28 87/122/28 85/119/27 
f 82/121/28 84/123/26 86/124/26 87/122/28 
f 86/120/26 85/119/27 88/125/27 89/126/26 
f 85/119/27 87/122/28 90/127/28 88/125/27 
f 87/122/28 86/124/26 89/128/26 90/127/28 
f 89/126/26 88/125/27 91/129/27 92/130/26 
f 88/125/27 90/127/28 93/131/28 91/129/27 
f 90/127/28 89/128/26 92/132/26 93/131/28 
f 92/130/26 91/129/27 94/133/27 95/134/26 
f 91/129/27 93/131/28 96/135/28 94/133/27 
f 93/131/28 92/132/26 95/136/26 96/135/28 
f 95/134/26 94/133/27 97/137/27 98/138/29 
f 94/133/27 96/135/28 99/139/28 97/137/27 
f 96/135/28 95/136/26 98/140/29 99/139/28 
s 1
f 100/113/30 99/115/30 98/116/30 97/114/30 
f 100/113/30 97/114/30 99/115/30 
# 17 polygons - 2 triangles

#
# object Cylinder006
#

v  99.6629 0.0000 -97.8561
v  99.6629 -0.2500 -97.4231
v  99.6629 -0.2500 -98.2891
v  99.6629 0.5000 -97.8561
v  59.6629 -0.2500 -98.2891
v  59.6629 0.5000 -97.8561
v  59.6629 -0.2500 -97.4231
v  19.6629 -0.2500 -98.2891
v  19.6629 0.5000 -97.8561
v  19.6629 -0.2500 -97.4231
v  -20.3372 -0.2500 -98.2891
v  -20.3372 0.5000 -97.8561
v  -20.3372 -0.2500 -97.4231
v  -60.3371 -0.2500 -98.2891
v  -60.3371 0.5000 -97.8561
v  -60.3371 -0.2500 -97.4231
v  -100.3371 -0.2500 -98.2891
v  -100.3371 0.5000 -97.8561
v  -100.3371 -0.2500 -97.4231
v  -100.3371 -0.0000 -97.8561
# 20 vertices

vn 1.0000 0.0000 -0.0000
vn -0.0000 1.0000 -0.0000
vn 0.0000 -0.5000 -0.8660
vn 0.0000 -0.5000 0.8660
vn -0.0000 1.0000 0.0000
vn -1.0000 -0.0000 -0.0000
# 6 vertex normals

vt 0.2500 0.4330 0.0000
vt 0.0000 0.8660 0.0000
vt 0.0000 0.0000 0.0000
vt 0.7500 0.4330 0.0000
vt -0.7854 0.0000 1.0000
vt 0.2618 0.0000 1.0000
vt 0.2618 40.0000 1.0000
vt -0.7854 40.0000 1.0000
vt 1.3090 0.0000 1.0000
vt 1.3090 40.0000 1.0000
vt 2.3562 0.0000 1.0000
vt 2.3562 40.0000 1.0000
vt 0.2618 80.0000 1.0000
vt -0.7854 80.0000 1.0000
vt 1.3090 80.0000 1.0000
vt 2.3562 80.0000 1.0000
vt 0.2618 120.0000 1.0000
vt -0.7854 120.0000 1.0000
vt 1.3090 120.0000 1.0000
vt 2.3562 120.0000 1.0000
vt 0.2618 160.0000 1.0000
vt -0.7854 160.0000 1.0000
vt 1.3090 160.0000 1.0000
vt 2.3562 160.0000 1.0000
vt 0.2618 200.0000 1.0000
vt -0.7854 200.0000 1.0000
vt 1.3090 200.0000 1.0000
vt 2.3562 200.0000 1.0000
# 28 texture coords

g Cylinder006
usemtl wire_135110008
s 1
f 101/141/31 102/142/31 103/143/31 104/144/31 
f 101/141/31 104/144/31 102/142/31 
s 8
f 104/145/32 103/146/33 105/147/33 106/148/32 
f 103/146/33 102/149/34 107/150/34 105/147/33 
f 102/149/34 104/151/32 106/152/32 107/150/34 
f 106/148/32 105/147/33 108/153/33 109/154/32 
f 105/147/33 107/150/34 110/155/34 108/153/33 
f 107/150/34 106/152/32 109/156/32 110/155/34 
f 109/154/32 108/153/33 111/157/33 112/158/32 
f 108/153/33 110/155/34 113/159/34 111/157/33 
f 110/155/34 109/156/32 112/160/32 113/159/34 
f 112/158/32 111/157/33 114/161/33 115/162/32 
f 111/157/33 113/159/34 116/163/34 114/161/33 
f 113/159/34 112/160/32 115/164/32 116/163/34 
f 115/162/32 114/161/33 117/165/33 118/166/35 
f 114/161/33 116/163/34 119/167/34 117/165/33 
f 116/163/34 115/164/32 118/168/35 119/167/34 
s 1
f 120/141/36 119/143/36 118/144/36 117/142/36 
f 120/141/36 117/142/36 119/143/36 
# 17 polygons - 2 triangles

#
# object Cylinder007
#

v  99.6629 0.0000 -117.4273
v  99.6629 -0.2500 -116.9943
v  99.6629 -0.2500 -117.8603
v  99.6629 0.5000 -117.4273
v  59.6629 -0.2500 -117.8603
v  59.6629 0.5000 -117.4273
v  59.6629 -0.2500 -116.9943
v  19.6629 -0.2500 -117.8603
v  19.6629 0.5000 -117.4273
v  19.6629 -0.2500 -116.9943
v  -20.3372 -0.2500 -117.8603
v  -20.3372 0.5000 -117.4273
v  -20.3372 -0.2500 -116.9943
v  -60.3371 -0.2500 -117.8603
v  -60.3371 0.5000 -117.4273
v  -60.3371 -0.2500 -116.9943
v  -100.3371 -0.2500 -117.8603
v  -100.3371 0.5000 -117.4273
v  -100.3371 -0.2500 -116.9943
v  -100.3371 -0.0000 -117.4273
# 20 vertices

vn 1.0000 0.0000 -0.0000
vn -0.0000 1.0000 -0.0000
vn 0.0000 -0.5000 -0.8660
vn 0.0000 -0.5000 0.8660
vn -0.0000 1.0000 0.0000
vn -1.0000 -0.0000 -0.0000
# 6 vertex normals

vt 0.2500 0.4330 0.0000
vt 0.0000 0.8660 0.0000
vt 0.0000 0.0000 0.0000
vt 0.7500 0.4330 0.0000
vt -0.7854 0.0000 1.0000
vt 0.2618 0.0000 1.0000
vt 0.2618 40.0000 1.0000
vt -0.7854 40.0000 1.0000
vt 1.3090 0.0000 1.0000
vt 1.3090 40.0000 1.0000
vt 2.3562 0.0000 1.0000
vt 2.3562 40.0000 1.0000
vt 0.2618 80.0000 1.0000
vt -0.7854 80.0000 1.0000
vt 1.3090 80.0000 1.0000
vt 2.3562 80.0000 1.0000
vt 0.2618 120.0000 1.0000
vt -0.7854 120.0000 1.0000
vt 1.3090 120.0000 1.0000
vt 2.3562 120.0000 1.0000
vt 0.2618 160.0000 1.0000
vt -0.7854 160.0000 1.0000
vt 1.3090 160.0000 1.0000
vt 2.3562 160.0000 1.0000
vt 0.2618 200.0000 1.0000
vt -0.7854 200.0000 1.0000
vt 1.3090 200.0000 1.0000
vt 2.3562 200.0000 1.0000
# 28 texture coords

g Cylinder007
usemtl wire_135110008
s 1
f 121/169/37 122/170/37 123/171/37 124/172/37 
f 121/169/37 124/172/37 122/170/37 
s 8
f 124/173/38 123/174/39 125/175/39 126/176/38 
f 123/174/39 122/177/40 127/178/40 125/175/39 
f 122/177/40 124/179/38 126/180/38 127/178/40 
f 126/176/38 125/175/39 128/181/39 129/182/38 
f 125/175/39 127/178/40 130/183/40 128/181/39 
f 127/178/40 126/180/38 129/184/38 130/183/40 
f 129/182/38 128/181/39 131/185/39 132/186/38 
f 128/181/39 130/183/40 133/187/40 131/185/39 
f 130/183/40 129/184/38 132/188/38 133/187/40 
f 132/186/38 131/185/39 134/189/39 135/190/38 
f 131/185/39 133/187/40 136/191/40 134/189/39 
f 133/187/40 132/188/38 135/192/38 136/191/40 
f 135/190/38 134/189/39 137/193/39 138/194/41 
f 134/189/39 136/191/40 139/195/40 137/193/39 
f 136/191/40 135/192/38 138/196/41 139/195/40 
s 1
f 140/169/42 139/171/42 138/172/42 137/170/42 
f 140/169/42 137/170/42 139/171/42 
# 17 polygons - 2 triangles

#
# object Cylinder008
#

v  99.6629 0.0000 -136.9985
v  99.6629 -0.2500 -136.5655
v  99.6629 -0.2500 -137.4315
v  99.6629 0.5000 -136.9985
v  59.6629 -0.2500 -137.4315
v  59.6629 0.5000 -136.9985
v  59.6629 -0.2500 -136.5655
v  19.6629 -0.2500 -137.4315
v  19.6629 0.5000 -136.9985
v  19.6629 -0.2500 -136.5655
v  -20.3372 -0.2500 -137.4315
v  -20.3372 0.5000 -136.9985
v  -20.3372 -0.2500 -136.5655
v  -60.3371 -0.2500 -137.4315
v  -60.3371 0.5000 -136.9985
v  -60.3371 -0.2500 -136.5655
v  -100.3371 -0.2500 -137.4315
v  -100.3371 0.5000 -136.9985
v  -100.3371 -0.2500 -136.5655
v  -100.3371 -0.0000 -136.9985
# 20 vertices

vn 1.0000 0.0000 -0.0000
vn -0.0000 1.0000 -0.0000
vn 0.0000 -0.5000 -0.8660
vn 0.0000 -0.5000 0.8660
vn -0.0000 1.0000 0.0000
vn -1.0000 -0.0000 -0.0000
# 6 vertex normals

vt 0.2500 0.4330 0.0000
vt 0.0000 0.8660 0.0000
vt 0.0000 0.0000 0.0000
vt 0.7500 0.4330 0.0000
vt -0.7854 0.0000 1.0000
vt 0.2618 0.0000 1.0000
vt 0.2618 40.0000 1.0000
vt -0.7854 40.0000 1.0000
vt 1.3090 0.0000 1.0000
vt 1.3090 40.0000 1.0000
vt 2.3562 0.0000 1.0000
vt 2.3562 40.0000 1.0000
vt 0.2618 80.0000 1.0000
vt -0.7854 80.0000 1.0000
vt 1.3090 80.0000 1.0000
vt 2.3562 80.0000 1.0000
vt 0.2618 120.0000 1.0000
vt -0.7854 120.0000 1.0000
vt 1.3090 120.0000 1.0000
vt 2.3562 120.0000 1.0000
vt 0.2618 160.0000 1.0000
vt -0.7854 160.0000 1.0000
vt 1.3090 160.0000 1.0000
vt 2.3562 160.0000 1.0000
vt 0.2618 200.0000 1.0000
vt -0.7854 200.0000 1.0000
vt 1.3090 200.0000 1.0000
vt 2.3562 200.0000 1.0000
# 28 texture coords

g Cylinder008
usemtl wire_135110008
s 1
f 141/197/43 142/198/43 143/199/43 144/200/43 
f 141/197/43 144/200/43 142/198/43 
s 8
f 144/201/44 143/202/45 145/203/45 146/204/44 
f 143/202/45 142/205/46 147/206/46 145/203/45 
f 142/205/46 144/207/44 146/208/44 147/206/46 
f 146/204/44 145/203/45 148/209/45 149/210/44 
f 145/203/45 147/206/46 150/211/46 148/209/45 
f 147/206/46 146/208/44 149/212/44 150/211/46 
f 149/210/44 148/209/45 151/213/45 152/214/44 
f 148/209/45 150/211/46 153/215/46 151/213/45 
f 150/211/46 149/212/44 152/216/44 153/215/46 
f 152/214/44 151/213/45 154/217/45 155/218/44 
f 151/213/45 153/215/46 156/219/46 154/217/45 
f 153/215/46 152/216/44 155/220/44 156/219/46 
f 155/218/44 154/217/45 157/221/45 158/222/47 
f 154/217/45 156/219/46 159/223/46 157/221/45 
f 156/219/46 155/220/44 158/224/47 159/223/46 
s 1
f 160/197/48 159/199/48 158/200/48 157/198/48 
f 160/197/48 157/198/48 159/199/48 
# 17 polygons - 2 triangles

#
# object Cylinder009
#

v  99.6629 0.0000 -156.5698
v  99.6629 -0.2500 -156.1367
v  99.6629 -0.2500 -157.0028
v  99.6629 0.5000 -156.5698
v  59.6629 -0.2500 -157.0028
v  59.6629 0.5000 -156.5698
v  59.6629 -0.2500 -156.1367
v  19.6629 -0.2500 -157.0028
v  19.6629 0.5000 -156.5698
v  19.6629 -0.2500 -156.1367
v  -20.3372 -0.2500 -157.0028
v  -20.3372 0.5000 -156.5698
v  -20.3372 -0.2500 -156.1367
v  -60.3371 -0.2500 -157.0028
v  -60.3371 0.5000 -156.5698
v  -60.3371 -0.2500 -156.1367
v  -100.3371 -0.2500 -157.0028
v  -100.3371 0.5000 -156.5698
v  -100.3371 -0.2500 -156.1367
v  -100.3371 -0.0000 -156.5698
# 20 vertices

vn 1.0000 0.0000 -0.0000
vn -0.0000 1.0000 -0.0000
vn 0.0000 -0.5000 -0.8660
vn 0.0000 -0.5000 0.8660
vn -0.0000 1.0000 0.0000
vn -1.0000 -0.0000 -0.0000
# 6 vertex normals

vt 0.2500 0.4330 0.0000
vt 0.0000 0.8660 0.0000
vt 0.0000 0.0000 0.0000
vt 0.7500 0.4330 0.0000
vt -0.7854 0.0000 1.0000
vt 0.2618 0.0000 1.0000
vt 0.2618 40.0000 1.0000
vt -0.7854 40.0000 1.0000
vt 1.3090 0.0000 1.0000
vt 1.3090 40.0000 1.0000
vt 2.3562 0.0000 1.0000
vt 2.3562 40.0000 1.0000
vt 0.2618 80.0000 1.0000
vt -0.7854 80.0000 1.0000
vt 1.3090 80.0000 1.0000
vt 2.3562 80.0000 1.0000
vt 0.2618 120.0000 1.0000
vt -0.7854 120.0000 1.0000
vt 1.3090 120.0000 1.0000
vt 2.3562 120.0000 1.0000
vt 0.2618 160.0000 1.0000
vt -0.7854 160.0000 1.0000
vt 1.3090 160.0000 1.0000
vt 2.3562 160.0000 1.0000
vt 0.2618 200.0000 1.0000
vt -0.7854 200.0000 1.0000
vt 1.3090 200.0000 1.0000
vt 2.3562 200.0000 1.0000
# 28 texture coords

g Cylinder009
usemtl wire_135110008
s 1
f 161/225/49 162/226/49 163/227/49 164/228/49 
f 161/225/49 164/228/49 162/226/49 
s 8
f 164/229/50 163/230/51 165/231/51 166/232/50 
f 163/230/51 162/233/52 167/234/52 165/231/51 
f 162/233/52 164/235/50 166/236/50 167/234/52 
f 166/232/50 165/231/51 168/237/51 169/238/50 
f 165/231/51 167/234/52 170/239/52 168/237/51 
f 167/234/52 166/236/50 169/240/50 170/239/52 
f 169/238/50 168/237/51 171/241/51 172/242/50 
f 168/237/51 170/239/52 173/243/52 171/241/51 
f 170/239/52 169/240/50 172/244/50 173/243/52 
f 172/242/50 171/241/51 174/245/51 175/246/50 
f 171/241/51 173/243/52 176/247/52 174/245/51 
f 173/243/52 172/244/50 175/248/50 176/247/52 
f 175/246/50 174/245/51 177/249/51 178/250/53 
f 174/245/51 176/247/52 179/251/52 177/249/51 
f 176/247/52 175/248/50 178/252/53 179/251/52 
s 1
f 180/225/54 179/227/54 178/228/54 177/226/54 
f 180/225/54 177/226/54 179/227/54 
# 17 polygons - 2 triangles

#
# object Cylinder010
#

v  99.6629 0.0000 -176.1410
v  99.6629 -0.2500 -175.7080
v  99.6629 -0.2500 -176.5740
v  99.6629 0.5000 -176.1410
v  59.6629 -0.2500 -176.5740
v  59.6629 0.5000 -176.1410
v  59.6629 -0.2500 -175.7080
v  19.6629 -0.2500 -176.5740
v  19.6629 0.5000 -176.1410
v  19.6629 -0.2500 -175.7080
v  -20.3372 -0.2500 -176.5740
v  -20.3372 0.5000 -176.1410
v  -20.3372 -0.2500 -175.7080
v  -60.3371 -0.2500 -176.5740
v  -60.3371 0.5000 -176.1410
v  -60.3371 -0.2500 -175.7080
v  -100.3371 -0.2500 -176.5740
v  -100.3371 0.5000 -176.1410
v  -100.3371 -0.2500 -175.7080
v  -100.3371 -0.0000 -176.1410
# 20 vertices

vn 1.0000 0.0000 -0.0000
vn -0.0000 1.0000 -0.0000
vn 0.0000 -0.5000 -0.8660
vn 0.0000 -0.5000 0.8660
vn -0.0000 1.0000 0.0000
vn -1.0000 -0.0000 -0.0000
# 6 vertex normals

vt 0.2500 0.4330 0.0000
vt 0.0000 0.8660 0.0000
vt 0.0000 0.0000 0.0000
vt 0.7500 0.4330 0.0000
vt -0.7854 0.0000 1.0000
vt 0.2618 0.0000 1.0000
vt 0.2618 40.0000 1.0000
vt -0.7854 40.0000 1.0000
vt 1.3090 0.0000 1.0000
vt 1.3090 40.0000 1.0000
vt 2.3562 0.0000 1.0000
vt 2.3562 40.0000 1.0000
vt 0.2618 80.0000 1.0000
vt -0.7854 80.0000 1.0000
vt 1.3090 80.0000 1.0000
vt 2.3562 80.0000 1.0000
vt 0.2618 120.0000 1.0000
vt -0.7854 120.0000 1.0000
vt 1.3090 120.0000 1.0000
vt 2.3562 120.0000 1.0000
vt 0.2618 160.0000 1.0000
vt -0.7854 160.0000 1.0000
vt 1.3090 160.0000 1.0000
vt 2.3562 160.0000 1.0000
vt 0.2618 200.0000 1.0000
vt -0.7854 200.0000 1.0000
vt 1.3090 200.0000 1.0000
vt 2.3562 200.0000 1.0000
# 28 texture coords

g Cylinder010
usemtl wire_135110008
s 1
f 181/253/55 182/254/55 183/255/55 184/256/55 
f 181/253/55 184/256/55 182/254/55 
s 8
f 184/257/56 183/258/57 185/259/57 186/260/56 
f 183/258/57 182/261/58 187/262/58 185/259/57 
f 182/261/58 184/263/56 186/264/56 187/262/58 
f 186/260/56 185/259/57 188/265/57 189/266/56 
f 185/259/57 187/262/58 190/267/58 188/265/57 
f 187/262/58 186/264/56 189/268/56 190/267/58 
f 189/266/56 188/265/57 191/269/57 192/270/56 
f 188/265/57 190/267/58 193/271/58 191/269/57 
f 190/267/58 189/268/56 192/272/56 193/271/58 
f 192/270/56 191/269/57 194/273/57 195/274/56 
f 191/269/57 193/271/58 196/275/58 194/273/57 
f 193/271/58 192/272/56 195/276/56 196/275/58 
f 195/274/56 194/273/57 197/277/57 198/278/59 
f 194/273/57 196/275/58 199/279/58 197/277/57 
f 196/275/58 195/276/56 198/280/59 199/279/58 
s 1
f 200/253/60 199/255/60 198/256/60 197/254/60 
f 200/253/60 197/254/60 199/255/60 
# 17 polygons - 2 triangles

#
# object Cylinder011
#

v  -88.4076 0.0000 11.9295
v  -88.8407 -0.2500 11.9295
v  -87.9746 -0.2500 11.9295
v  -88.4076 0.5000 11.9295
v  -87.9746 -0.2500 -28.0705
v  -88.4076 0.5000 -28.0705
v  -88.8407 -0.2500 -28.0705
v  -87.9746 -0.2500 -68.0705
v  -88.4076 0.5000 -68.0705
v  -88.8406 -0.2500 -68.0705
v  -87.9746 -0.2500 -108.0705
v  -88.4076 0.5000 -108.0705
v  -88.8406 -0.2500 -108.0705
v  -87.9746 -0.2500 -148.0705
v  -88.4076 0.5000 -148.0705
v  -88.8406 -0.2500 -148.0705
v  -87.9746 -0.2500 -188.0705
v  -88.4076 0.5000 -188.0705
v  -88.8406 -0.2500 -188.0705
v  -88.4076 0.0000 -188.0705
# 20 vertices

vn -0.0000 -0.0000 1.0000
vn 0.0000 1.0000 0.0000
vn 0.8660 -0.5000 0.0000
vn -0.0000 1.0000 -0.0000
vn -0.8660 -0.5000 -0.0000
vn -0.0000 1.0000 0.0000
vn 0.0000 0.0000 -1.0000
# 7 vertex normals

vt 0.2500 0.4330 0.0000
vt 0.0000 0.8660 0.0000
vt 0.0000 0.0000 0.0000
vt 0.7500 0.4330 0.0000
vt -0.7854 0.0000 1.0000
vt 0.2618 0.0000 1.0000
vt 0.2618 40.0000 1.0000
vt -0.7854 40.0000 1.0000
vt 1.3090 0.0000 1.0000
vt 1.3090 40.0000 1.0000
vt 2.3562 0.0000 1.0000
vt 2.3562 40.0000 1.0000
vt 0.2618 80.0000 1.0000
vt -0.7854 80.0000 1.0000
vt 1.3090 80.0000 1.0000
vt 2.3562 80.0000 1.0000
vt 0.2618 120.0000 1.0000
vt -0.7854 120.0000 1.0000
vt 1.3090 120.0000 1.0000
vt 2.3562 120.0000 1.0000
vt 0.2618 160.0000 1.0000
vt -0.7854 160.0000 1.0000
vt 1.3090 160.0000 1.0000
vt 2.3562 160.0000 1.0000
vt 0.2618 200.0000 1.0000
vt -0.7854 200.0000 1.0000
vt 1.3090 200.0000 1.0000
vt 2.3562 200.0000 1.0000
# 28 texture coords

g Cylinder011
usemtl wire_135110008
s 1
f 201/281/61 202/282/61 203/283/61 204/284/61 
f 201/281/61 204/284/61 202/282/61 
s 8
f 204/285/62 203/286/63 205/287/63 206/288/64 
f 203/286/63 202/289/65 207/290/65 205/287/63 
f 202/289/65 204/291/62 206/292/64 207/290/65 
f 206/288/64 205/287/63 208/293/63 209/294/64 
f 205/287/63 207/290/65 210/295/65 208/293/63 
f 207/290/65 206/292/64 209/296/64 210/295/65 
f 209/294/64 208/293/63 211/297/63 212/298/66 
f 208/293/63 210/295/65 213/299/65 211/297/63 
f 210/295/65 209/296/64 212/300/66 213/299/65 
f 212/298/66 211/297/63 214/301/63 215/302/66 
f 211/297/63 213/299/65 216/303/65 214/301/63 
f 213/299/65 212/300/66 215/304/66 216/303/65 
f 215/302/66 214/301/63 217/305/63 218/306/64 
f 214/301/63 216/303/65 219/307/65 217/305/63 
f 216/303/65 215/304/66 218/308/64 219/307/65 
s 1
f 220/281/67 219/283/67 218/284/67 217/282/67 
f 220/281/67 217/282/67 219/283/67 
# 17 polygons - 2 triangles

#
# object Cylinder012
#

v  -68.8364 0.0000 11.9295
v  -69.2694 -0.2500 11.9295
v  -68.4034 -0.2500 11.9295
v  -68.8364 0.5000 11.9295
v  -68.4034 -0.2500 -28.0705
v  -68.8364 0.5000 -28.0705
v  -69.2694 -0.2500 -28.0705
v  -68.4034 -0.2500 -68.0705
v  -68.8364 0.5000 -68.0705
v  -69.2694 -0.2500 -68.0705
v  -68.4034 -0.2500 -108.0705
v  -68.8364 0.5000 -108.0705
v  -69.2694 -0.2500 -108.0705
v  -68.4034 -0.2500 -148.0705
v  -68.8364 0.5000 -148.0705
v  -69.2694 -0.2500 -148.0705
v  -68.4034 -0.2500 -188.0705
v  -68.8364 0.5000 -188.0705
v  -69.2694 -0.2500 -188.0705
v  -68.8364 0.0000 -188.0705
# 20 vertices

vn -0.0000 -0.0000 1.0000
vn 0.0000 1.0000 0.0000
vn 0.8660 -0.5000 0.0000
vn -0.0000 1.0000 -0.0000
vn -0.8660 -0.5000 -0.0000
vn -0.0000 1.0000 0.0000
vn 0.0000 0.0000 -1.0000
# 7 vertex normals

vt 0.2500 0.4330 0.0000
vt 0.0000 0.8660 0.0000
vt 0.0000 0.0000 0.0000
vt 0.7500 0.4330 0.0000
vt -0.7854 0.0000 1.0000
vt 0.2618 0.0000 1.0000
vt 0.2618 40.0000 1.0000
vt -0.7854 40.0000 1.0000
vt 1.3090 0.0000 1.0000
vt 1.3090 40.0000 1.0000
vt 2.3562 0.0000 1.0000
vt 2.3562 40.0000 1.0000
vt 0.2618 80.0000 1.0000
vt -0.7854 80.0000 1.0000
vt 1.3090 80.0000 1.0000
vt 2.3562 80.0000 1.0000
vt 0.2618 120.0000 1.0000
vt -0.7854 120.0000 1.0000
vt 1.3090 120.0000 1.0000
vt 2.3562 120.0000 1.0000
vt 0.2618 160.0000 1.0000
vt -0.7854 160.0000 1.0000
vt 1.3090 160.0000 1.0000
vt 2.3562 160.0000 1.0000
vt 0.2618 200.0000 1.0000
vt -0.7854 200.0000 1.0000
vt 1.3090 200.0000 1.0000
vt 2.3562 200.0000 1.0000
# 28 texture coords

g Cylinder012
usemtl wire_135110008
s 1
f 221/309/68 222/310/68 223/311/68 224/312/68 
f 221/309/68 224/312/68 222/310/68 
s 8
f 224/313/69 223/314/70 225/315/70 226/316/71 
f 223/314/70 222/317/72 227/318/72 225/315/70 
f 222/317/72 224/319/69 226/320/71 227/318/72 
f 226/316/71 225/315/70 228/321/70 229/322/71 
f 225/315/70 227/318/72 230/323/72 228/321/70 
f 227/318/72 226/320/71 229/324/71 230/323/72 
f 229/322/71 228/321/70 231/325/70 232/326/73 
f 228/321/70 230/323/72 233/327/72 231/325/70 
f 230/323/72 229/324/71 232/328/73 233/327/72 
f 232/326/73 231/325/70 234/329/70 235/330/73 
f 231/325/70 233/327/72 236/331/72 234/329/70 
f 233/327/72 232/328/73 235/332/73 236/331/72 
f 235/330/73 234/329/70 237/333/70 238/334/71 
f 234/329/70 236/331/72 239/335/72 237/333/70 
f 236/331/72 235/332/73 238/336/71 239/335/72 
s 1
f 240/309/74 239/311/74 238/312/74 237/310/74 
f 240/309/74 237/310/74 239/311/74 
# 17 polygons - 2 triangles

#
# object Cylinder013
#

v  -49.2652 0.0000 11.9295
v  -49.6982 -0.2500 11.9295
v  -48.8322 -0.2500 11.9295
v  -49.2652 0.5000 11.9295
v  -48.8322 -0.2500 -28.0705
v  -49.2652 0.5000 -28.0705
v  -49.6982 -0.2500 -28.0705
v  -48.8322 -0.2500 -68.0705
v  -49.2652 0.5000 -68.0705
v  -49.6982 -0.2500 -68.0705
v  -48.8322 -0.2500 -108.0705
v  -49.2652 0.5000 -108.0705
v  -49.6982 -0.2500 -108.0705
v  -48.8322 -0.2500 -148.0705
v  -49.2652 0.5000 -148.0705
v  -49.6982 -0.2500 -148.0705
v  -48.8322 -0.2500 -188.0705
v  -49.2652 0.5000 -188.0705
v  -49.6982 -0.2500 -188.0705
v  -49.2652 0.0000 -188.0705
# 20 vertices

vn -0.0000 -0.0000 1.0000
vn 0.0000 1.0000 0.0000
vn 0.8660 -0.5000 0.0000
vn -0.0000 1.0000 -0.0000
vn -0.8660 -0.5000 -0.0000
vn -0.0000 1.0000 0.0000
vn 0.0000 0.0000 -1.0000
# 7 vertex normals

vt 0.2500 0.4330 0.0000
vt 0.0000 0.8660 0.0000
vt 0.0000 0.0000 0.0000
vt 0.7500 0.4330 0.0000
vt -0.7854 0.0000 1.0000
vt 0.2618 0.0000 1.0000
vt 0.2618 40.0000 1.0000
vt -0.7854 40.0000 1.0000
vt 1.3090 0.0000 1.0000
vt 1.3090 40.0000 1.0000
vt 2.3562 0.0000 1.0000
vt 2.3562 40.0000 1.0000
vt 0.2618 80.0000 1.0000
vt -0.7854 80.0000 1.0000
vt 1.3090 80.0000 1.0000
vt 2.3562 80.0000 1.0000
vt 0.2618 120.0000 1.0000
vt -0.7854 120.0000 1.0000
vt 1.3090 120.0000 1.0000
vt 2.3562 120.0000 1.0000
vt 0.2618 160.0000 1.0000
vt -0.7854 160.0000 1.0000
vt 1.3090 160.0000 1.0000
vt 2.3562 160.0000 1.0000
vt 0.2618 200.0000 1.0000
vt -0.7854 200.0000 1.0000
vt 1.3090 200.0000 1.0000
vt 2.3562 200.0000 1.0000
# 28 texture coords

g Cylinder013
usemtl wire_135110008
s 1
f 241/337/75 242/338/75 243/339/75 244/340/75 
f 241/337/75 244/340/75 242/338/75 
s 8
f 244/341/76 243/342/77 245/343/77 246/344/78 
f 243/342/77 242/345/79 247/346/79 245/343/77 
f 242/345/79 244/347/76 246/348/78 247/346/79 
f 246/344/78 245/343/77 248/349/77 249/350/78 
f 245/343/77 247/346/79 250/351/79 248/349/77 
f 247/346/79 246/348/78 249/352/78 250/351/79 
f 249/350/78 248/349/77 251/353/77 252/354/80 
f 248/349/77 250/351/79 253/355/79 251/353/77 
f 250/351/79 249/352/78 252/356/80 253/355/79 
f 252/354/80 251/353/77 254/357/77 255/358/80 
f 251/353/77 253/355/79 256/359/79 254/357/77 
f 253/355/79 252/356/80 255/360/80 256/359/79 
f 255/358/80 254/357/77 257/361/77 258/362/78 
f 254/357/77 256/359/79 259/363/79 257/361/77 
f 256/359/79 255/360/80 258/364/78 259/363/79 
s 1
f 260/337/81 259/339/81 258/340/81 257/338/81 
f 260/337/81 257/338/81 259/339/81 
# 17 polygons - 2 triangles

#
# object Cylinder014
#

v  -29.6940 0.0000 11.9295
v  -30.1270 -0.2500 11.9295
v  -29.2610 -0.2500 11.9295
v  -29.6940 0.5000 11.9295
v  -29.2610 -0.2500 -28.0705
v  -29.6940 0.5000 -28.0705
v  -30.1270 -0.2500 -28.0705
v  -29.2610 -0.2500 -68.0705
v  -29.6940 0.5000 -68.0705
v  -30.1270 -0.2500 -68.0705
v  -29.2610 -0.2500 -108.0705
v  -29.6940 0.5000 -108.0705
v  -30.1270 -0.2500 -108.0705
v  -29.2610 -0.2500 -148.0705
v  -29.6940 0.5000 -148.0705
v  -30.1270 -0.2500 -148.0705
v  -29.2609 -0.2500 -188.0705
v  -29.6940 0.5000 -188.0705
v  -30.1270 -0.2500 -188.0705
v  -29.6940 0.0000 -188.0705
# 20 vertices

vn -0.0000 -0.0000 1.0000
vn 0.0000 1.0000 0.0000
vn 0.8660 -0.5000 0.0000
vn -0.0000 1.0000 -0.0000
vn -0.8660 -0.5000 -0.0000
vn -0.0000 1.0000 0.0000
vn 0.0000 0.0000 -1.0000
# 7 vertex normals

vt 0.2500 0.4330 0.0000
vt 0.0000 0.8660 0.0000
vt 0.0000 0.0000 0.0000
vt 0.7500 0.4330 0.0000
vt -0.7854 0.0000 1.0000
vt 0.2618 0.0000 1.0000
vt 0.2618 40.0000 1.0000
vt -0.7854 40.0000 1.0000
vt 1.3090 0.0000 1.0000
vt 1.3090 40.0000 1.0000
vt 2.3562 0.0000 1.0000
vt 2.3562 40.0000 1.0000
vt 0.2618 80.0000 1.0000
vt -0.7854 80.0000 1.0000
vt 1.3090 80.0000 1.0000
vt 2.3562 80.0000 1.0000
vt 0.2618 120.0000 1.0000
vt -0.7854 120.0000 1.0000
vt 1.3090 120.0000 1.0000
vt 2.3562 120.0000 1.0000
vt 0.2618 160.0000 1.0000
vt -0.7854 160.0000 1.0000
vt 1.3090 160.0000 1.0000
vt 2.3562 160.0000 1.0000
vt 0.2618 200.0000 1.0000
vt -0.7854 200.0000 1.0000
vt 1.3090 200.0000 1.0000
vt 2.3562 200.0000 1.0000
# 28 texture coords

g Cylinder014
usemtl wire_135110008
s 1
f 261/365/82 262/366/82 263/367/82 264/368/82 
f 261/365/82 264/368/82 262/366/82 
s 8
f 264/369/83 263/370/84 265/371/84 266/372/85 
f 263/370/84 262/373/86 267/374/86 265/371/84 
f 262/373/86 264/375/83 266/376/85 267/374/86 
f 266/372/85 265/371/84 268/377/84 269/378/85 
f 265/371/84 267/374/86 270/379/86 268/377/84 
f 267/374/86 266/376/85 269/380/85 270/379/86 
f 269/378/85 268/377/84 271/381/84 272/382/87 
f 268/377/84 270/379/86 273/383/86 271/381/84 
f 270/379/86 269/380/85 272/384/87 273/383/86 
f 272/382/87 271/381/84 274/385/84 275/386/87 
f 271/381/84 273/383/86 276/387/86 274/385/84 
f 273/383/86 272/384/87 275/388/87 276/387/86 
f 275/386/87 274/385/84 277/389/84 278/390/85 
f 274/385/84 276/387/86 279/391/86 277/389/84 
f 276/387/86 275/388/87 278/392/85 279/391/86 
s 1
f 280/365/88 279/367/88 278/368/88 277/366/88 
f 280/365/88 277/366/88 279/367/88 
# 17 polygons - 2 triangles

#
# object Cylinder015
#

v  -10.1227 0.0000 11.9295
v  -10.5558 -0.2500 11.9295
v  -9.6897 -0.2500 11.9295
v  -10.1227 0.5000 11.9295
v  -9.6897 -0.2500 -28.0705
v  -10.1227 0.5000 -28.0705
v  -10.5558 -0.2500 -28.0705
v  -9.6897 -0.2500 -68.0705
v  -10.1227 0.5000 -68.0705
v  -10.5558 -0.2500 -68.0705
v  -9.6897 -0.2500 -108.0705
v  -10.1227 0.5000 -108.0705
v  -10.5558 -0.2500 -108.0705
v  -9.6897 -0.2500 -148.0705
v  -10.1227 0.5000 -148.0705
v  -10.5558 -0.2500 -148.0705
v  -9.6897 -0.2500 -188.0705
v  -10.1227 0.5000 -188.0705
v  -10.5558 -0.2500 -188.0705
v  -10.1227 0.0000 -188.0705
# 20 vertices

vn -0.0000 -0.0000 1.0000
vn 0.0000 1.0000 0.0000
vn 0.8660 -0.5000 0.0000
vn -0.0000 1.0000 -0.0000
vn -0.8660 -0.5000 -0.0000
vn -0.0000 1.0000 0.0000
vn 0.0000 0.0000 -1.0000
# 7 vertex normals

vt 0.2500 0.4330 0.0000
vt 0.0000 0.8660 0.0000
vt 0.0000 0.0000 0.0000
vt 0.7500 0.4330 0.0000
vt -0.7854 0.0000 1.0000
vt 0.2618 0.0000 1.0000
vt 0.2618 40.0000 1.0000
vt -0.7854 40.0000 1.0000
vt 1.3090 0.0000 1.0000
vt 1.3090 40.0000 1.0000
vt 2.3562 0.0000 1.0000
vt 2.3562 40.0000 1.0000
vt 0.2618 80.0000 1.0000
vt -0.7854 80.0000 1.0000
vt 1.3090 80.0000 1.0000
vt 2.3562 80.0000 1.0000
vt 0.2618 120.0000 1.0000
vt -0.7854 120.0000 1.0000
vt 1.3090 120.0000 1.0000
vt 2.3562 120.0000 1.0000
vt 0.2618 160.0000 1.0000
vt -0.7854 160.0000 1.0000
vt 1.3090 160.0000 1.0000
vt 2.3562 160.0000 1.0000
vt 0.2618 200.0000 1.0000
vt -0.7854 200.0000 1.0000
vt 1.3090 200.0000 1.0000
vt 2.3562 200.0000 1.0000
# 28 texture coords

g Cylinder015
usemtl wire_135110008
s 1
f 281/393/89 282/394/89 283/395/89 284/396/89 
f 281/393/89 284/396/89 282/394/89 
s 8
f 284/397/90 283/398/91 285/399/91 286/400/92 
f 283/398/91 282/401/93 287/402/93 285/399/91 
f 282/401/93 284/403/90 286/404/92 287/402/93 
f 286/400/92 285/399/91 288/405/91 289/406/92 
f 285/399/91 287/402/93 290/407/93 288/405/91 
f 287/402/93 286/404/92 289/408/92 290/407/93 
f 289/406/92 288/405/91 291/409/91 292/410/94 
f 288/405/91 290/407/93 293/411/93 291/409/91 
f 290/407/93 289/408/92 292/412/94 293/411/93 
f 292/410/94 291/409/91 294/413/91 295/414/94 
f 291/409/91 293/411/93 296/415/93 294/413/91 
f 293/411/93 292/412/94 295/416/94 296/415/93 
f 295/414/94 294/413/91 297/417/91 298/418/92 
f 294/413/91 296/415/93 299/419/93 297/417/91 
f 296/415/93 295/416/94 298/420/92 299/419/93 
s 1
f 300/393/95 299/395/95 298/396/95 297/394/95 
f 300/393/95 297/394/95 299/395/95 
# 17 polygons - 2 triangles

#
# object Cylinder016
#

v  9.4485 0.0000 11.9295
v  9.0155 -0.2500 11.9295
v  9.8815 -0.2500 11.9295
v  9.4485 0.5000 11.9295
v  9.8815 -0.2500 -28.0705
v  9.4485 0.5000 -28.0705
v  9.0155 -0.2500 -28.0705
v  9.8815 -0.2500 -68.0705
v  9.4485 0.5000 -68.0705
v  9.0155 -0.2500 -68.0705
v  9.8815 -0.2500 -108.0705
v  9.4485 0.5000 -108.0705
v  9.0155 -0.2500 -108.0705
v  9.8815 -0.2500 -148.0705
v  9.4485 0.5000 -148.0705
v  9.0155 -0.2500 -148.0705
v  9.8815 -0.2500 -188.0705
v  9.4485 0.5000 -188.0705
v  9.0155 -0.2500 -188.0705
v  9.4485 0.0000 -188.0705
# 20 vertices

vn -0.0000 -0.0000 1.0000
vn 0.0000 1.0000 0.0000
vn 0.8660 -0.5000 0.0000
vn -0.0000 1.0000 -0.0000
vn -0.8660 -0.5000 -0.0000
vn -0.0000 1.0000 0.0000
vn 0.0000 0.0000 -1.0000
# 7 vertex normals

vt 0.2500 0.4330 0.0000
vt 0.0000 0.8660 0.0000
vt 0.0000 0.0000 0.0000
vt 0.7500 0.4330 0.0000
vt -0.7854 0.0000 1.0000
vt 0.2618 0.0000 1.0000
vt 0.2618 40.0000 1.0000
vt -0.7854 40.0000 1.0000
vt 1.3090 0.0000 1.0000
vt 1.3090 40.0000 1.0000
vt 2.3562 0.0000 1.0000
vt 2.3562 40.0000 1.0000
vt 0.2618 80.0000 1.0000
vt -0.7854 80.0000 1.0000
vt 1.3090 80.0000 1.0000
vt 2.3562 80.0000 1.0000
vt 0.2618 120.0000 1.0000
vt -0.7854 120.0000 1.0000
vt 1.3090 120.0000 1.0000
vt 2.3562 120.0000 1.0000
vt 0.2618 160.0000 1.0000
vt -0.7854 160.0000 1.0000
vt 1.3090 160.0000 1.0000
vt 2.3562 160.0000 1.0000
vt 0.2618 200.0000 1.0000
vt -0.7854 200.0000 1.0000
vt 1.3090 200.0000 1.0000
vt 2.3562 200.0000 1.0000
# 28 texture coords

g Cylinder016
usemtl wire_135110008
s 1
f 301/421/96 302/422/96 303/423/96 304/424/96 
f 301/421/96 304/424/96 302/422/96 
s 8
f 304/425/97 303/426/98 305/427/98 306/428/99 
f 303/426/98 302/429/100 307/430/100 305/427/98 
f 302/429/100 304/431/97 306/432/99 307/430/100 
f 306/428/99 305/427/98 308/433/98 309/434/99 
f 305/427/98 307/430/100 310/435/100 308/433/98 
f 307/430/100 306/432/99 309/436/99 310/435/100 
f 309/434/99 308/433/98 311/437/98 312/438/101 
f 308/433/98 310/435/100 313/439/100 311/437/98 
f 310/435/100 309/436/99 312/440/101 313/439/100 
f 312/438/101 311/437/98 314/441/98 315/442/101 
f 311/437/98 313/439/100 316/443/100 314/441/98 
f 313/439/100 312/440/101 315/444/101 316/443/100 
f 315/442/101 314/441/98 317/445/98 318/446/99 
f 314/441/98 316/443/100 319/447/100 317/445/98 
f 316/443/100 315/444/101 318/448/99 319/447/100 
s 1
f 320/421/102 319/423/102 318/424/102 317/422/102 
f 320/421/102 317/422/102 319/423/102 
# 17 polygons - 2 triangles

#
# object Cylinder017
#

v  29.0197 0.0000 11.9295
v  28.5867 -0.2500 11.9295
v  29.4527 -0.2500 11.9295
v  29.0197 0.5000 11.9295
v  29.4527 -0.2500 -28.0705
v  29.0197 0.5000 -28.0705
v  28.5867 -0.2500 -28.0705
v  29.4527 -0.2500 -68.0705
v  29.0197 0.5000 -68.0705
v  28.5867 -0.2500 -68.0705
v  29.4527 -0.2500 -108.0705
v  29.0197 0.5000 -108.0705
v  28.5867 -0.2500 -108.0705
v  29.4527 -0.2500 -148.0705
v  29.0197 0.5000 -148.0705
v  28.5867 -0.2500 -148.0705
v  29.4527 -0.2500 -188.0705
v  29.0197 0.5000 -188.0705
v  28.5867 -0.2500 -188.0705
v  29.0197 0.0000 -188.0705
# 20 vertices

vn -0.0000 -0.0000 1.0000
vn 0.0000 1.0000 0.0000
vn 0.8660 -0.5000 0.0000
vn -0.0000 1.0000 -0.0000
vn -0.8660 -0.5000 -0.0000
vn -0.0000 1.0000 0.0000
vn 0.0000 0.0000 -1.0000
# 7 vertex normals

vt 0.2500 0.4330 0.0000
vt 0.0000 0.8660 0.0000
vt 0.0000 0.0000 0.0000
vt 0.7500 0.4330 0.0000
vt -0.7854 0.0000 1.0000
vt 0.2618 0.0000 1.0000
vt 0.2618 40.0000 1.0000
vt -0.7854 40.0000 1.0000
vt 1.3090 0.0000 1.0000
vt 1.3090 40.0000 1.0000
vt 2.3562 0.0000 1.0000
vt 2.3562 40.0000 1.0000
vt 0.2618 80.0000 1.0000
vt -0.7854 80.0000 1.0000
vt 1.3090 80.0000 1.0000
vt 2.3562 80.0000 1.0000
vt 0.2618 120.0000 1.0000
vt -0.7854 120.0000 1.0000
vt 1.3090 120.0000 1.0000
vt 2.3562 120.0000 1.0000
vt 0.2618 160.0000 1.0000
vt -0.7854 160.0000 1.0000
vt 1.3090 160.0000 1.0000
vt 2.3562 160.0000 1.0000
vt 0.2618 200.0000 1.0000
vt -0.7854 200.0000 1.0000
vt 1.3090 200.0000 1.0000
vt 2.3562 200.0000 1.0000
# 28 texture coords

g Cylinder017
usemtl wire_135110008
s 1
f 321/449/103 322/450/103 323/451/103 324/452/103 
f 321/449/103 324/452/103 322/450/103 
s 8
f 324/453/104 323/454/105 325/455/105 326/456/106 
f 323/454/105 322/457/107 327/458/107 325/455/105 
f 322/457/107 324/459/104 326/460/106 327/458/107 
f 326/456/106 325/455/105 328/461/105 329/462/106 
f 325/455/105 327/458/107 330/463/107 328/461/105 
f 327/458/107 326/460/106 329/464/106 330/463/107 
f 329/462/106 328/461/105 331/465/105 332/466/108 
f 328/461/105 330/463/107 333/467/107 331/465/105 
f 330/463/107 329/464/106 332/468/108 333/467/107 
f 332/466/108 331/465/105 334/469/105 335/470/108 
f 331/465/105 333/467/107 336/471/107 334/469/105 
f 333/467/107 332/468/108 335/472/108 336/471/107 
f 335/470/108 334/469/105 337/473/105 338/474/106 
f 334/469/105 336/471/107 339/475/107 337/473/105 
f 336/471/107 335/472/108 338/476/106 339/475/107 
s 1
f 340/449/109 339/451/109 338/452/109 337/450/109 
f 340/449/109 337/450/109 339/451/109 
# 17 polygons - 2 triangles

#
# object Cylinder018
#

v  48.5909 0.0000 11.9295
v  48.1579 -0.2500 11.9295
v  49.0239 -0.2500 11.9295
v  48.5909 0.5000 11.9295
v  49.0239 -0.2500 -28.0705
v  48.5909 0.5000 -28.0705
v  48.1579 -0.2500 -28.0705
v  49.0239 -0.2500 -68.0705
v  48.5909 0.5000 -68.0705
v  48.1579 -0.2500 -68.0705
v  49.0239 -0.2500 -108.0705
v  48.5909 0.5000 -108.0705
v  48.1579 -0.2500 -108.0705
v  49.0239 -0.2500 -148.0705
v  48.5909 0.5000 -148.0705
v  48.1579 -0.2500 -148.0705
v  49.0239 -0.2500 -188.0705
v  48.5909 0.5000 -188.0705
v  48.1579 -0.2500 -188.0705
v  48.5909 0.0000 -188.0705
# 20 vertices

vn -0.0000 -0.0000 1.0000
vn 0.0000 1.0000 0.0000
vn 0.8660 -0.5000 0.0000
vn -0.0000 1.0000 -0.0000
vn -0.8660 -0.5000 -0.0000
vn -0.0000 1.0000 0.0000
vn 0.0000 0.0000 -1.0000
# 7 vertex normals

vt 0.2500 0.4330 0.0000
vt 0.0000 0.8660 0.0000
vt 0.0000 0.0000 0.0000
vt 0.7500 0.4330 0.0000
vt -0.7854 0.0000 1.0000
vt 0.2618 0.0000 1.0000
vt 0.2618 40.0000 1.0000
vt -0.7854 40.0000 1.0000
vt 1.3090 0.0000 1.0000
vt 1.3090 40.0000 1.0000
vt 2.3562 0.0000 1.0000
vt 2.3562 40.0000 1.0000
vt 0.2618 80.0000 1.0000
vt -0.7854 80.0000 1.0000
vt 1.3090 80.0000 1.0000
vt 2.3562 80.0000 1.0000
vt 0.2618 120.0000 1.0000
vt -0.7854 120.0000 1.0000
vt 1.3090 120.0000 1.0000
vt 2.3562 120.0000 1.0000
vt 0.2618 160.0000 1.0000
vt -0.7854 160.0000 1.0000
vt 1.3090 160.0000 1.0000
vt 2.3562 160.0000 1.0000
vt 0.2618 200.0000 1.0000
vt -0.7854 200.0000 1.0000
vt 1.3090 200.0000 1.0000
vt 2.3562 200.0000 1.0000
# 28 texture coords

g Cylinder018
usemtl wire_135110008
s 1
f 341/477/110 342/478/110 343/479/110 344/480/110 
f 341/477/110 344/480/110 342/478/110 
s 8
f 344/481/111 343/482/112 345/483/112 346/484/113 
f 343/482/112 342/485/114 347/486/114 345/483/112 
f 342/485/114 344/487/111 346/488/113 347/486/114 
f 346/484/113 345/483/112 348/489/112 349/490/113 
f 345/483/112 347/486/114 350/491/114 348/489/112 
f 347/486/114 346/488/113 349/492/113 350/491/114 
f 349/490/113 348/489/112 351/493/112 352/494/115 
f 348/489/112 350/491/114 353/495/114 351/493/112 
f 350/491/114 349/492/113 352/496/115 353/495/114 
f 352/494/115 351/493/112 354/497/112 355/498/115 
f 351/493/112 353/495/114 356/499/114 354/497/112 
f 353/495/114 352/496/115 355/500/115 356/499/114 
f 355/498/115 354/497/112 357/501/112 358/502/113 
f 354/497/112 356/499/114 359/503/114 357/501/112 
f 356/499/114 355/500/115 358/504/113 359/503/114 
s 1
f 360/477/116 359/479/116 358/480/116 357/478/116 
f 360/477/116 357/478/116 359/479/116 
# 17 polygons - 2 triangles

#
# object Cylinder019
#

v  68.1621 0.0000 11.9295
v  67.7291 -0.2500 11.9295
v  68.5951 -0.2500 11.9295
v  68.1621 0.5000 11.9295
v  68.5951 -0.2500 -28.0705
v  68.1621 0.5000 -28.0705
v  67.7291 -0.2500 -28.0705
v  68.5951 -0.2500 -68.0705
v  68.1621 0.5000 -68.0705
v  67.7291 -0.2500 -68.0705
v  68.5952 -0.2500 -108.0705
v  68.1621 0.5000 -108.0705
v  67.7291 -0.2500 -108.0705
v  68.5952 -0.2500 -148.0705
v  68.1621 0.5000 -148.0705
v  67.7291 -0.2500 -148.0705
v  68.5952 -0.2500 -188.0705
v  68.1621 0.5000 -188.0705
v  67.7291 -0.2500 -188.0705
v  68.1621 0.0000 -188.0705
# 20 vertices

vn -0.0000 -0.0000 1.0000
vn 0.0000 1.0000 0.0000
vn 0.8660 -0.5000 0.0000
vn -0.0000 1.0000 -0.0000
vn -0.8660 -0.5000 -0.0000
vn -0.0000 1.0000 0.0000
vn 0.0000 0.0000 -1.0000
# 7 vertex normals

vt 0.2500 0.4330 0.0000
vt 0.0000 0.8660 0.0000
vt 0.0000 0.0000 0.0000
vt 0.7500 0.4330 0.0000
vt -0.7854 0.0000 1.0000
vt 0.2618 0.0000 1.0000
vt 0.2618 40.0000 1.0000
vt -0.7854 40.0000 1.0000
vt 1.3090 0.0000 1.0000
vt 1.3090 40.0000 1.0000
vt 2.3562 0.0000 1.0000
vt 2.3562 40.0000 1.0000
vt 0.2618 80.0000 1.0000
vt -0.7854 80.0000 1.0000
vt 1.3090 80.0000 1.0000
vt 2.3562 80.0000 1.0000
vt 0.2618 120.0000 1.0000
vt -0.7854 120.0000 1.0000
vt 1.3090 120.0000 1.0000
vt 2.3562 120.0000 1.0000
vt 0.2618 160.0000 1.0000
vt -0.7854 160.0000 1.0000
vt 1.3090 160.0000 1.0000
vt 2.3562 160.0000 1.0000
vt 0.2618 200.0000 1.0000
vt -0.7854 200.0000 1.0000
vt 1.3090 200.0000 1.0000
vt 2.3562 200.0000 1.0000
# 28 texture coords

g Cylinder019
usemtl wire_135110008
s 1
f 361/505/117 362/506/117 363/507/117 364/508/117 
f 361/505/117 364/508/117 362/506/117 
s 8
f 364/509/118 363/510/119 365/511/119 366/512/120 
f 363/510/119 362/513/121 367/514/121 365/511/119 
f 362/513/121 364/515/118 366/516/120 367/514/121 
f 366/512/120 365/511/119 368/517/119 369/518/120 
f 365/511/119 367/514/121 370/519/121 368/517/119 
f 367/514/121 366/516/120 369/520/120 370/519/121 
f 369/518/120 368/517/119 371/521/119 372/522/122 
f 368/517/119 370/519/121 373/523/121 371/521/119 
f 370/519/121 369/520/120 372/524/122 373/523/121 
f 372/522/122 371/521/119 374/525/119 375/526/122 
f 371/521/119 373/523/121 376/527/121 374/525/119 
f 373/523/121 372/524/122 375/528/122 376/527/121 
f 375/526/122 374/525/119 377/529/119 378/530/120 
f 374/525/119 376/527/121 379/531/121 377/529/119 
f 376/527/121 375/528/122 378/532/120 379/531/121 
s 1
f 380/505/123 379/507/123 378/508/123 377/506/123 
f 380/505/123 377/506/123 379/507/123 
# 17 polygons - 2 triangles

#
# object Cylinder020
#

v  87.7334 0.0000 11.9295
v  87.3003 -0.2500 11.9295
v  88.1664 -0.2500 11.9295
v  87.7334 0.5000 11.9295
v  88.1664 -0.2500 -28.0705
v  87.7334 0.5000 -28.0705
v  87.3003 -0.2500 -28.0705
v  88.1664 -0.2500 -68.0705
v  87.7334 0.5000 -68.0705
v  87.3004 -0.2500 -68.0705
v  88.1664 -0.2500 -108.0705
v  87.7334 0.5000 -108.0705
v  87.3004 -0.2500 -108.0705
v  88.1664 -0.2500 -148.0705
v  87.7334 0.5000 -148.0705
v  87.3004 -0.2500 -148.0705
v  88.1664 -0.2500 -188.0705
v  87.7334 0.5000 -188.0705
v  87.3004 -0.2500 -188.0705
v  87.7334 0.0000 -188.0705
# 20 vertices

vn -0.0000 -0.0000 1.0000
vn 0.0000 1.0000 0.0000
vn 0.8660 -0.5000 0.0000
vn -0.0000 1.0000 -0.0000
vn -0.8660 -0.5000 -0.0000
vn -0.0000 1.0000 0.0000
vn 0.0000 0.0000 -1.0000
# 7 vertex normals

vt 0.2500 0.4330 0.0000
vt 0.0000 0.8660 0.0000
vt 0.0000 0.0000 0.0000
vt 0.7500 0.4330 0.0000
vt -0.7854 0.0000 1.0000
vt 0.2618 0.0000 1.0000
vt 0.2618 40.0000 1.0000
vt -0.7854 40.0000 1.0000
vt 1.3090 0.0000 1.0000
vt 1.3090 40.0000 1.0000
vt 2.3562 0.0000 1.0000
vt 2.3562 40.0000 1.0000
vt 0.2618 80.0000 1.0000
vt -0.7854 80.0000 1.0000
vt 1.3090 80.0000 1.0000
vt 2.3562 80.0000 1.0000
vt 0.2618 120.0000 1.0000
vt -0.7854 120.0000 1.0000
vt 1.3090 120.0000 1.0000
vt 2.3562 120.0000 1.0000
vt 0.2618 160.0000 1.0000
vt -0.7854 160.0000 1.0000
vt 1.3090 160.0000 1.0000
vt 2.3562 160.0000 1.0000
vt 0.2618 200.0000 1.0000
vt -0.7854 200.0000 1.0000
vt 1.3090 200.0000 1.0000
vt 2.3562 200.0000 1.0000
# 28 texture coords

g Cylinder020
usemtl wire_135110008
s 1
f 381/533/124 382/534/124 383/535/124 384/536/124 
f 381/533/124 384/536/124 382/534/124 
s 8
f 384/537/125 383/538/126 385/539/126 386/540/127 
f 383/538/126 382/541/128 387/542/128 385/539/126 
f 382/541/128 384/543/125 386/544/127 387/542/128 
f 386/540/127 385/539/126 388/545/126 389/546/127 
f 385/539/126 387/542/128 390/547/128 388/545/126 
f 387/542/128 386/544/127 389/548/127 390/547/128 
f 389/546/127 388/545/126 391/549/126 392/550/129 
f 388/545/126 390/547/128 393/551/128 391/549/126 
f 390/547/128 389/548/127 392/552/129 393/551/128 
f 392/550/129 391/549/126 394/553/126 395/554/129 
f 391/549/126 393/551/128 396/555/128 394/553/126 
f 393/551/128 392/552/129 395/556/129 396/555/128 
f 395/554/129 394/553/126 397/557/126 398/558/127 
f 394/553/126 396/555/128 399/559/128 397/557/126 
f 396/555/128 395/556/129 398/560/127 399/559/128 
s 1
f 400/533/130 399/535/130 398/536/130 397/534/130 
f 400/533/130 397/534/130 399/535/130 
# 17 polygons - 2 triangles

